<?xml version="1.0" encoding="utf-8"?>
<svg width="80px" height="80px" viewBox="0 0 80 80" version="1.1" xmlns:xlink="http://www.w3.org/1999/xlink" xmlns="http://www.w3.org/2000/svg">
  <desc>Created with Lunacy</desc>
  <defs>
    <path d="M14.999 0L65.001 0C73.2847 0 80 6.71528 80 14.999L80 65.001C80 73.2847 73.2847 80 65.001 80L14.999 80C6.71528 80 0 73.2847 0 65.001L0 14.999C0 6.71528 6.71528 0 14.999 0L65.001 0C73.2847 0 80 6.71528 80 14.999L80 65.001C80 73.2847 73.2847 80 65.001 80L14.999 80C6.71528 80 0 73.2847 0 65.001L0 14.999C0 6.71528 6.71528 0 14.999 0Z" id="path_1" />
    <clipPath id="clip_1">
      <use xlink:href="#path_1" />
    </clipPath>
  </defs>
  <g id="Rectangle-12-Copy-3">
    <g clip-path="url(#clip_1)">
      <use xlink:href="#path_1" fill="none" stroke="#C5D5E6" stroke-width="4" />
    </g>
  </g>
  <g id="clothes" transform="translate(18.33398 14)">
    <g id="Group">
      <path d="M19.9021 7.18395C16.8065 7.18395 14.2328 4.90809 13.7651 1.94175L10.0962 1.94175L10.0962 28.6532L16.0343 28.6532C16.5705 28.6532 17.0053 29.0879 17.0053 29.6241C17.0053 30.1603 16.5706 30.595 16.0344 30.595L9.12545 30.595C8.58927 30.595 8.15457 30.1603 8.15457 29.6241L8.15457 14.1921L6.06525 15.2368C5.92648 15.306 5.77813 15.3393 5.6316 15.3393C5.32454 15.3393 5.02512 15.1934 4.83781 14.9282L0.177746 8.3266C-0.114163 7.91314 -0.0393414 7.34485 0.349396 7.02084L8.49956 0.229126C8.66862 0.086343 8.88674 0 9.12532 0L30.6787 0C30.9169 0 31.1349 0.0860841 31.3038 0.228479L39.4549 7.02084C39.8436 7.34485 39.9183 7.91314 39.6265 8.3266L34.9665 14.9282C34.7792 15.1935 34.4798 15.3393 34.1727 15.3393C34.026 15.3393 33.8777 15.3061 33.739 15.2368L31.6496 14.1921L31.6496 16.8092C31.6496 17.3454 31.2149 17.7801 30.6787 17.7801C30.1425 17.7801 29.7078 17.3454 29.7078 16.8092L29.7078 1.94175L26.0394 1.94175C25.5715 4.90809 22.9978 7.18395 19.9021 7.18395ZM19.9021 5.2422C17.8808 5.2422 16.1841 3.83055 15.7431 1.94175L24.0612 1.94175C23.6202 3.83068 21.9235 5.2422 19.9021 5.2422ZM2.28079 7.9389L5.94292 13.1269L8.15444 12.0211L8.15444 3.04427L2.28079 7.9389ZM31.6496 12.0211L33.8611 13.1269L37.5232 7.9389L31.6496 3.04427L31.6496 12.0211Z" transform="translate(0.1197297 0)" id="Shape" fill="#C5D5E6" fill-rule="evenodd" stroke="none" />
      <path d="M0.970874 0C0.434693 0 0 0.434693 0 0.970874L0 35.1811C0 35.7173 0.434693 36.152 0.970874 36.152L8.44673 36.152C8.96194 36.152 9.38757 35.7495 9.41605 35.235L10.731 11.5784L12.046 35.235C12.0746 35.7494 12.5001 36.152 13.0153 36.152L20.4911 36.152C21.0273 36.152 21.462 35.7173 21.462 35.1811L21.462 0.970874C21.4623 0.434563 21.0276 0 20.4914 0L0.970874 0ZM5.00324 1.94175L5.00324 4.11456L1.94175 4.11456L1.94175 1.94175L5.00324 1.94175ZM6.94498 1.94175L6.94498 4.11456L14.5173 4.11456L14.5173 1.94175L6.94498 1.94175ZM19.5205 4.11456L16.459 4.11456L16.459 1.94175L19.5205 1.94175L19.5205 4.11456ZM12.6142 10.4695L13.934 34.2101L19.5206 34.2101L19.5206 6.05631L1.94188 6.05631L1.94188 34.2101L7.52854 34.2101L8.84816 10.4695C8.87663 9.95495 9.30227 9.55249 9.81748 9.55249L11.6449 9.55249C12.1601 9.55249 12.5856 9.95508 12.6142 10.4695Z" transform="translate(18.30369 18.90783)" id="Shape" fill="#C5D5E6" fill-rule="evenodd" stroke="none" />
    </g>
  </g>
</svg>