<?xml version="1.0" encoding="utf-8"?>
<svg width="80px" height="80px" viewBox="0 0 80 80" version="1.1" xmlns:xlink="http://www.w3.org/1999/xlink" xmlns="http://www.w3.org/2000/svg">
  <desc>Created with Lunacy</desc>
  <defs>
    <path d="M14.999 0L65.001 0C73.2847 0 80 6.71528 80 14.999L80 65.001C80 73.2847 73.2847 80 65.001 80L14.999 80C6.71528 80 0 73.2847 0 65.001L0 14.999C0 6.71528 6.71528 0 14.999 0L65.001 0C73.2847 0 80 6.71528 80 14.999L80 65.001C80 73.2847 73.2847 80 65.001 80L14.999 80C6.71528 80 0 73.2847 0 65.001L0 14.999C0 6.71528 6.71528 0 14.999 0Z" id="path_1" />
    <clipPath id="clip_1">
      <use xlink:href="#path_1" />
    </clipPath>
  </defs>
  <g id="donation" transform="translate(21 22)">
    <g id="Group">
      <path d="M0.718223 2.09561C2.23629 2.634 3.46202 3.86302 4.00041 5.38108C4.15682 5.82452 4.57332 6.10079 5.01675 6.10079C5.13649 6.10079 5.25838 6.08031 5.37711 6.0382C5.93814 5.83969 6.23275 5.22252 6.03423 4.66137C5.27141 2.50338 3.5958 0.826761 1.43996 0.0616587C0.877793 -0.135844 0.261767 0.156617 0.0621144 0.717641C-0.136273 1.27993 0.156061 1.89608 0.718223 2.09561C2.23629 2.634 3.46202 3.86302 4.00041 5.38108C4.15682 5.82452 4.57332 6.10079 5.01675 6.10079C5.13649 6.10079 5.25838 6.08031 5.37711 6.0382C5.93814 5.83969 6.23275 5.22252 6.03423 4.66137C5.27141 2.50338 3.5958 0.826761 1.43996 0.0616587C0.877793 -0.135844 0.261767 0.156617 0.0621144 0.717641C-0.136273 1.27993 0.156061 1.89608 0.718223 2.09561Z" transform="translate(28.09597 4.687511)" id="Shape" fill="#C5D5E6" stroke="none" />
      <path d="M18.9048 36.5536C19.0666 36.6409 19.2435 36.6852 19.4215 36.6852C19.5996 36.6852 19.7776 36.6409 19.9383 36.5536C32.2181 29.8553 38.8431 18.8357 38.8431 11.8688C38.8431 5.32372 33.5195 8.98426e-16 26.9743 8.98426e-16C22.3779 8.98426e-16 18.1526 2.69208 16.2115 6.86012C15.959 7.40066 16.1932 8.04274 16.7327 8.2941C17.2733 8.54661 17.9153 8.31143 18.1667 7.7719C19.7561 4.36125 23.213 2.15799 26.9744 2.15799C32.3294 2.15799 36.6852 6.5138 36.6852 11.8688C36.6852 18.2034 30.2404 28.2692 19.4217 34.3718C8.60275 28.2692 2.15799 18.2035 2.15799 11.8688C2.15799 6.5138 6.51494 2.15799 11.8688 2.15799C13.2207 2.15799 14.5285 2.42984 15.7574 2.96722C16.3033 3.20569 16.9388 2.95748 17.1783 2.41151C17.4168 1.86553 17.1676 1.23003 16.6216 0.990548C15.1197 0.333428 13.5206 0 11.8688 0C5.32474 0 0 5.3236 0 11.8688C0 18.8357 6.62608 29.8553 18.9048 36.5536C19.0666 36.6409 19.2435 36.6852 19.4215 36.6852C19.5996 36.6852 19.7776 36.6409 19.9383 36.5536C32.2181 29.8553 38.8431 18.8357 38.8431 11.8688C38.8431 5.32372 33.5195 8.98426e-16 26.9743 8.98426e-16C22.3779 8.98426e-16 18.1526 2.69208 16.2115 6.86012C15.959 7.40066 16.1932 8.04274 16.7327 8.2941C17.2733 8.54661 17.9153 8.31143 18.1667 7.7719C19.7561 4.36125 23.213 2.15799 26.9744 2.15799C32.3294 2.15799 36.6852 6.5138 36.6852 11.8688C36.6852 18.2034 30.2404 28.2692 19.4217 34.3718C8.60275 28.2692 2.15799 18.2035 2.15799 11.8688C2.15799 6.5138 6.51494 2.15799 11.8688 2.15799C13.2207 2.15799 14.5285 2.42984 15.7574 2.96722C16.3033 3.20569 16.9388 2.95748 17.1783 2.41151C17.4168 1.86553 17.1676 1.23003 16.6216 0.990548C15.1197 0.333428 13.5206 0 11.8688 0C5.32474 0 0 5.3236 0 11.8688C0 18.8357 6.62608 29.8553 18.9048 36.5536Z" transform="translate(0.03467678 0.0006322112)" id="Shape" fill="#C5D5E6" stroke="none" />
    </g>
  </g>
  <g id="Rectangle-12-Copy">
    <g clip-path="url(#clip_1)">
      <use xlink:href="#path_1" fill="none" stroke="#C5D5E6" stroke-width="4" />
    </g>
  </g>
</svg>