<?xml version="1.0" encoding="utf-8"?>
<svg width="80px" height="80px" viewBox="0 0 80 80" version="1.1" xmlns:xlink="http://www.w3.org/1999/xlink" xmlns="http://www.w3.org/2000/svg">
  <desc>Created with Lunacy</desc>
  <path d="M14.999 0L65.001 0C73.2847 0 80 6.71528 80 14.999L80 65.001C80 73.2847 73.2847 80 65.001 80L14.999 80C6.71528 80 0 73.2847 0 65.001L0 14.999C0 6.71528 6.71528 0 14.999 0L65.001 0C73.2847 0 80 6.71528 80 14.999L80 65.001C80 73.2847 73.2847 80 65.001 80L14.999 80C6.71528 80 0 73.2847 0 65.001L0 14.999C0 6.71528 6.71528 0 14.999 0Z" id="Rectangle-12" fill="#9C5D9A" stroke="none" />
  <path d="M3.68 0C1.67059 0 0.0329412 1.62353 0.0329412 3.61882L0 3.61882L0 29.3576C0 31.3529 1.63529 32.9765 3.64706 32.9765L35.3929 32.9765L35.3929 29.0824L40 29.0824L40 0L3.68 0ZM2.38672 3.61885C2.38672 4.33414 3.03848 4.6565 3.68084 4.6565L35.3938 4.6565L35.3938 14.1506L37.6479 14.1506L37.6479 2.35297L3.68084 2.35297C2.97025 2.35297 2.38907 2.92003 2.38672 3.61885ZM3.64763 30.6212C2.93469 30.6212 2.35352 30.0541 2.35352 29.3553L2.35352 6.80707C2.40999 6.82354 2.48057 6.81883 2.53705 6.8353C2.87352 6.93413 3.22646 6.9953 3.60293 7.00236C3.6194 7.00236 3.63116 7.00942 3.64763 7.00942L33.0429 7.00942L33.0429 14.1506L26.3159 14.1506C24.2876 14.1506 22.6382 15.7341 22.6382 17.68L22.6382 20.033C22.6382 21.9788 24.2876 23.5624 26.3159 23.5624L33.0429 23.5624L33.0429 30.6212L3.64763 30.6212ZM24.9883 20.033C24.9883 20.6824 25.5812 21.2094 26.313 21.2094L37.6471 21.2094L37.6471 16.5035L26.313 16.5035C25.5836 16.5035 24.9883 17.0306 24.9883 17.68L24.9883 20.033ZM37.6467 26.7271L35.3926 26.7271L35.3926 23.5624L37.6467 23.5624L37.6467 26.7271Z" transform="translate(20 24)" id="Shape" fill="#FFFFFF" fill-rule="evenodd" stroke="none" />
</svg>