<?xml version="1.0" encoding="utf-8"?>
<svg width="80px" height="80px" viewBox="0 0 80 80" version="1.1" xmlns:xlink="http://www.w3.org/1999/xlink" xmlns="http://www.w3.org/2000/svg">
  <desc>Created with Lunacy</desc>
  <defs>
    <path d="M15 0L65 0Q65.3842 0 65.7658 0.0174863Q66.1475 0.0349725 66.5257 0.0699093Q66.904 0.104846 67.2782 0.157162Q67.6523 0.209478 68.0216 0.279067Q68.3908 0.348656 68.7544 0.435375Q69.118 0.522095 69.4753 0.625768Q69.8325 0.729441 70.1826 0.849856Q70.5327 0.970271 70.875 1.10718Q71.2173 1.24409 71.551 1.39722Q71.8848 1.55035 72.2093 1.71939Q72.5339 1.88842 72.8485 2.07301Q73.1632 2.25761 73.4674 2.45739Q73.7715 2.65716 74.0646 2.87172Q74.3576 3.08627 74.6389 3.31516Q74.9202 3.54405 75.1892 3.78681Q75.4582 4.02958 75.7143 4.28571Q75.9704 4.54185 76.2132 4.81085Q76.456 5.07984 76.6849 5.36113Q76.9137 5.64243 77.1283 5.93546Q77.3429 6.22849 77.5426 6.53265Q77.7424 6.83681 77.927 7.15148Q78.1116 7.46615 78.2806 7.7907Q78.4497 8.11524 78.6028 8.44899Q78.7559 8.78274 78.8928 9.12502Q79.0297 9.4673 79.1502 9.81741Q79.2706 10.1675 79.3742 10.5247Q79.4779 10.882 79.5646 11.2456Q79.6514 11.6092 79.7209 11.9784Q79.7905 12.3477 79.8428 12.7218Q79.8952 13.096 79.9301 13.4743Q79.965 13.8525 79.9825 14.2342Q80 14.6158 80 15L80 65Q80 65.3842 79.9825 65.7658Q79.965 66.1475 79.9301 66.5257Q79.8952 66.904 79.8428 67.2782Q79.7905 67.6523 79.7209 68.0216Q79.6514 68.3908 79.5646 68.7544Q79.4779 69.118 79.3742 69.4753Q79.2706 69.8325 79.1502 70.1826Q79.0297 70.5327 78.8928 70.875Q78.7559 71.2173 78.6028 71.551Q78.4497 71.8848 78.2806 72.2093Q78.1116 72.5339 77.927 72.8485Q77.7424 73.1632 77.5426 73.4674Q77.3429 73.7715 77.1283 74.0646Q76.9137 74.3576 76.6849 74.6389Q76.456 74.9202 76.2132 75.1892Q75.9704 75.4582 75.7143 75.7143Q75.4582 75.9704 75.1892 76.2132Q74.9202 76.456 74.6389 76.6849Q74.3576 76.9137 74.0645 77.1283Q73.7715 77.3429 73.4674 77.5426Q73.1632 77.7424 72.8485 77.927Q72.5339 78.1116 72.2093 78.2806Q71.8848 78.4497 71.551 78.6028Q71.2173 78.7559 70.875 78.8928Q70.5327 79.0297 70.1826 79.1502Q69.8325 79.2706 69.4753 79.3742Q69.118 79.4779 68.7544 79.5646Q68.3908 79.6514 68.0216 79.7209Q67.6523 79.7905 67.2782 79.8428Q66.904 79.8952 66.5257 79.9301Q66.1475 79.965 65.7658 79.9825Q65.3842 80 65 80L15 80Q14.6158 80 14.2342 79.9825Q13.8525 79.965 13.4743 79.9301Q13.096 79.8952 12.7218 79.8428Q12.3477 79.7905 11.9784 79.7209Q11.6092 79.6514 11.2456 79.5646Q10.882 79.4779 10.5247 79.3742Q10.1675 79.2706 9.81741 79.1502Q9.4673 79.0297 9.12502 78.8928Q8.78274 78.7559 8.44899 78.6028Q8.11524 78.4497 7.79069 78.2806Q7.46615 78.1116 7.15148 77.927Q6.83681 77.7424 6.53265 77.5426Q6.22849 77.3429 5.93546 77.1283Q5.64243 76.9137 5.36113 76.6849Q5.07984 76.456 4.81085 76.2132Q4.54185 75.9704 4.28571 75.7143Q4.02958 75.4582 3.78681 75.1892Q3.54405 74.9202 3.31516 74.6389Q3.08627 74.3576 2.87172 74.0645Q2.65716 73.7715 2.45739 73.4674Q2.25761 73.1632 2.07301 72.8485Q1.88842 72.5339 1.71939 72.2093Q1.55035 71.8848 1.39722 71.551Q1.24409 71.2173 1.10718 70.875Q0.970271 70.5327 0.849856 70.1826Q0.729441 69.8325 0.625768 69.4753Q0.522095 69.118 0.435375 68.7544Q0.348656 68.3908 0.279067 68.0216Q0.209478 67.6523 0.157162 67.2782Q0.104846 66.904 0.0699093 66.5257Q0.0349725 66.1475 0.0174863 65.7658Q0 65.3842 0 65L0 15Q0 14.6158 0.0174863 14.2342Q0.0349725 13.8525 0.0699093 13.4743Q0.104846 13.096 0.157162 12.7218Q0.209478 12.3477 0.279067 11.9784Q0.348656 11.6092 0.435375 11.2456Q0.522095 10.882 0.625768 10.5247Q0.729441 10.1675 0.849856 9.81741Q0.970271 9.4673 1.10718 9.12502Q1.24409 8.78274 1.39722 8.44899Q1.55035 8.11524 1.71939 7.79069Q1.88842 7.46615 2.07301 7.15148Q2.25761 6.83681 2.45739 6.53265Q2.65716 6.22849 2.87172 5.93546Q3.08627 5.64243 3.31516 5.36113Q3.54405 5.07984 3.78681 4.81085Q4.02958 4.54185 4.28571 4.28571Q4.54185 4.02958 4.81085 3.78681Q5.07984 3.54405 5.36113 3.31516Q5.64243 3.08627 5.93546 2.87172Q6.22849 2.65716 6.53265 2.45739Q6.83681 2.25761 7.15148 2.07301Q7.46615 1.88842 7.7907 1.71939Q8.11524 1.55035 8.44899 1.39722Q8.78274 1.24409 9.12502 1.10718Q9.4673 0.970271 9.81741 0.849856Q10.1675 0.729441 10.5247 0.625768Q10.882 0.522095 11.2456 0.435375Q11.6092 0.348656 11.9784 0.279067Q12.3477 0.209478 12.7218 0.157162Q13.096 0.104846 13.4743 0.0699093Q13.8525 0.0349725 14.2342 0.0174863Q14.6158 0 15 0L65 0Q65.3842 0 65.7658 0.0174863Q66.1475 0.0349725 66.5257 0.0699093Q66.904 0.104846 67.2782 0.157162Q67.6523 0.209478 68.0216 0.279067Q68.3908 0.348656 68.7544 0.435375Q69.118 0.522095 69.4753 0.625768Q69.8325 0.729441 70.1826 0.849856Q70.5327 0.970271 70.875 1.10718Q71.2173 1.24409 71.551 1.39722Q71.8848 1.55035 72.2093 1.71939Q72.5339 1.88842 72.8485 2.07301Q73.1632 2.25761 73.4674 2.45739Q73.7715 2.65716 74.0646 2.87172Q74.3576 3.08627 74.6389 3.31516Q74.9202 3.54405 75.1892 3.78681Q75.4582 4.02958 75.7143 4.28571Q75.9704 4.54185 76.2132 4.81085Q76.456 5.07984 76.6849 5.36113Q76.9137 5.64243 77.1283 5.93546Q77.3429 6.22849 77.5426 6.53265Q77.7424 6.83681 77.927 7.15148Q78.1116 7.46615 78.2806 7.7907Q78.4497 8.11524 78.6028 8.44899Q78.7559 8.78274 78.8928 9.12502Q79.0297 9.4673 79.1502 9.81741Q79.2706 10.1675 79.3742 10.5247Q79.4779 10.882 79.5646 11.2456Q79.6514 11.6092 79.7209 11.9784Q79.7905 12.3477 79.8428 12.7218Q79.8952 13.096 79.9301 13.4743Q79.965 13.8525 79.9825 14.2342Q80 14.6158 80 15L80 65Q80 65.3842 79.9825 65.7658Q79.965 66.1475 79.9301 66.5257Q79.8952 66.904 79.8428 67.2782Q79.7905 67.6523 79.7209 68.0216Q79.6514 68.3908 79.5646 68.7544Q79.4779 69.118 79.3742 69.4753Q79.2706 69.8325 79.1502 70.1826Q79.0297 70.5327 78.8928 70.875Q78.7559 71.2173 78.6028 71.551Q78.4497 71.8848 78.2806 72.2093Q78.1116 72.5339 77.927 72.8485Q77.7424 73.1632 77.5426 73.4674Q77.3429 73.7715 77.1283 74.0646Q76.9137 74.3576 76.6849 74.6389Q76.456 74.9202 76.2132 75.1892Q75.9704 75.4582 75.7143 75.7143Q75.4582 75.9704 75.1892 76.2132Q74.9202 76.456 74.6389 76.6849Q74.3576 76.9137 74.0645 77.1283Q73.7715 77.3429 73.4674 77.5426Q73.1632 77.7424 72.8485 77.927Q72.5339 78.1116 72.2093 78.2806Q71.8848 78.4497 71.551 78.6028Q71.2173 78.7559 70.875 78.8928Q70.5327 79.0297 70.1826 79.1502Q69.8325 79.2706 69.4753 79.3742Q69.118 79.4779 68.7544 79.5646Q68.3908 79.6514 68.0216 79.7209Q67.6523 79.7905 67.2782 79.8428Q66.904 79.8952 66.5257 79.9301Q66.1475 79.965 65.7658 79.9825Q65.3842 80 65 80L15 80Q14.6158 80 14.2342 79.9825Q13.8525 79.965 13.4743 79.9301Q13.096 79.8952 12.7218 79.8428Q12.3477 79.7905 11.9784 79.7209Q11.6092 79.6514 11.2456 79.5646Q10.882 79.4779 10.5247 79.3742Q10.1675 79.2706 9.81741 79.1502Q9.4673 79.0297 9.12502 78.8928Q8.78274 78.7559 8.44899 78.6028Q8.11524 78.4497 7.79069 78.2806Q7.46615 78.1116 7.15148 77.927Q6.83681 77.7424 6.53265 77.5426Q6.22849 77.3429 5.93546 77.1283Q5.64243 76.9137 5.36113 76.6849Q5.07984 76.456 4.81085 76.2132Q4.54185 75.9704 4.28571 75.7143Q4.02958 75.4582 3.78681 75.1892Q3.54405 74.9202 3.31516 74.6389Q3.08627 74.3576 2.87172 74.0645Q2.65716 73.7715 2.45739 73.4674Q2.25761 73.1632 2.07301 72.8485Q1.88842 72.5339 1.71939 72.2093Q1.55035 71.8848 1.39722 71.551Q1.24409 71.2173 1.10718 70.875Q0.970271 70.5327 0.849856 70.1826Q0.729441 69.8325 0.625768 69.4753Q0.522095 69.118 0.435375 68.7544Q0.348656 68.3908 0.279067 68.0216Q0.209478 67.6523 0.157162 67.2782Q0.104846 66.904 0.0699093 66.5257Q0.0349725 66.1475 0.0174863 65.7658Q0 65.3842 0 65L0 15Q0 14.6158 0.0174863 14.2342Q0.0349725 13.8525 0.0699093 13.4743Q0.104846 13.096 0.157162 12.7218Q0.209478 12.3477 0.279067 11.9784Q0.348656 11.6092 0.435375 11.2456Q0.522095 10.882 0.625768 10.5247Q0.729441 10.1675 0.849856 9.81741Q0.970271 9.4673 1.10718 9.12502Q1.24409 8.78274 1.39722 8.44899Q1.55035 8.11524 1.71939 7.79069Q1.88842 7.46615 2.07301 7.15148Q2.25761 6.83681 2.45739 6.53265Q2.65716 6.22849 2.87172 5.93546Q3.08627 5.64243 3.31516 5.36113Q3.54405 5.07984 3.78681 4.81085Q4.02958 4.54185 4.28571 4.28571Q4.54185 4.02958 4.81085 3.78681Q5.07984 3.54405 5.36113 3.31516Q5.64243 3.08627 5.93546 2.87172Q6.22849 2.65716 6.53265 2.45739Q6.83681 2.25761 7.15148 2.07301Q7.46615 1.88842 7.7907 1.71939Q8.11524 1.55035 8.44899 1.39722Q8.78274 1.24409 9.12502 1.10718Q9.4673 0.970271 9.81741 0.849856Q10.1675 0.729441 10.5247 0.625768Q10.882 0.522095 11.2456 0.435375Q11.6092 0.348656 11.9784 0.279067Q12.3477 0.209478 12.7218 0.157162Q13.096 0.104846 13.4743 0.0699093Q13.8525 0.0349725 14.2342 0.0174863Q14.6158 0 15 0Z" id="path_1" />
    <clipPath id="clip_1">
      <use xlink:href="#path_1" />
    </clipPath>
  </defs>
  <g id="Rectangle-12-Copy-3">
    <g clip-path="url(#clip_1)">
      <use xlink:href="#path_1" fill="none" stroke="#C5D5E6" stroke-width="4" />
    </g>
  </g>
  <g id="clothes" transform="translate(18.33398 14)">
    <g id="Group">
      <path d="M19.9021 7.18395C16.8065 7.18395 14.2328 4.90809 13.7651 1.94175L10.0962 1.94175L10.0962 28.6532L16.0343 28.6532C16.5705 28.6532 17.0053 29.0879 17.0053 29.6241C17.0053 30.1603 16.5706 30.595 16.0344 30.595L9.12545 30.595C8.58927 30.595 8.15457 30.1603 8.15457 29.6241L8.15457 14.1921L6.06525 15.2368C5.92648 15.306 5.77813 15.3393 5.6316 15.3393C5.32454 15.3393 5.02512 15.1934 4.83781 14.9282L0.177746 8.3266C-0.114163 7.91314 -0.0393414 7.34485 0.349396 7.02084L8.49956 0.229126C8.66862 0.086343 8.88674 0 9.12532 0L30.6787 0C30.9169 0 31.1349 0.0860841 31.3038 0.228479L39.4549 7.02084C39.8436 7.34485 39.9183 7.91314 39.6265 8.3266L34.9665 14.9282C34.7792 15.1935 34.4798 15.3393 34.1727 15.3393C34.026 15.3393 33.8777 15.3061 33.739 15.2368L31.6496 14.1921L31.6496 16.8092C31.6496 17.3454 31.2149 17.7801 30.6787 17.7801C30.1425 17.7801 29.7078 17.3454 29.7078 16.8092L29.7078 1.94175L26.0394 1.94175C25.5715 4.90809 22.9978 7.18395 19.9021 7.18395ZM19.9021 5.2422C17.8808 5.2422 16.1841 3.83055 15.7431 1.94175L24.0612 1.94175C23.6202 3.83068 21.9235 5.2422 19.9021 5.2422ZM2.28079 7.9389L5.94292 13.1269L8.15444 12.0211L8.15444 3.04427L2.28079 7.9389ZM31.6496 12.0211L33.8611 13.1269L37.5232 7.9389L31.6496 3.04427L31.6496 12.0211Z" transform="translate(0.1197297 0)" id="Shape" fill="#C5D5E6" fill-rule="evenodd" stroke="none" />
      <path d="M0.970874 0C0.434693 0 0 0.434693 0 0.970874L0 35.1811C0 35.7173 0.434693 36.152 0.970874 36.152L8.44673 36.152C8.96194 36.152 9.38757 35.7495 9.41605 35.235L10.731 11.5784L12.046 35.235C12.0746 35.7494 12.5001 36.152 13.0153 36.152L20.4911 36.152C21.0273 36.152 21.462 35.7173 21.462 35.1811L21.462 0.970874C21.4623 0.434563 21.0276 0 20.4914 0L0.970874 0ZM5.00324 1.94175L5.00324 4.11456L1.94175 4.11456L1.94175 1.94175L5.00324 1.94175ZM6.94498 1.94175L6.94498 4.11456L14.5173 4.11456L14.5173 1.94175L6.94498 1.94175ZM19.5205 4.11456L16.459 4.11456L16.459 1.94175L19.5205 1.94175L19.5205 4.11456ZM12.6142 10.4695L13.934 34.2101L19.5206 34.2101L19.5206 6.05631L1.94188 6.05631L1.94188 34.2101L7.52854 34.2101L8.84816 10.4695C8.87663 9.95495 9.30227 9.55249 9.81748 9.55249L11.6449 9.55249C12.1601 9.55249 12.5856 9.95508 12.6142 10.4695Z" transform="translate(18.30369 18.90783)" id="Shape" fill="#C5D5E6" fill-rule="evenodd" stroke="none" />
    </g>
  </g>
</svg>