<?xml version="1.0" encoding="utf-8"?>
<svg width="80px" height="80px" viewBox="0 0 80 80" version="1.1" xmlns:xlink="http://www.w3.org/1999/xlink" xmlns="http://www.w3.org/2000/svg">
  <desc>Created with Lunacy</desc>
  <defs>
    <path d="M15 0L65 0Q65.3842 0 65.7658 0.0174863Q66.1475 0.0349725 66.5257 0.0699093Q66.904 0.104846 67.2782 0.157162Q67.6523 0.209478 68.0216 0.279067Q68.3908 0.348656 68.7544 0.435375Q69.118 0.522095 69.4753 0.625768Q69.8325 0.729441 70.1826 0.849856Q70.5327 0.970271 70.875 1.10718Q71.2173 1.24409 71.551 1.39722Q71.8848 1.55035 72.2093 1.71939Q72.5339 1.88842 72.8485 2.07301Q73.1632 2.25761 73.4674 2.45739Q73.7715 2.65716 74.0646 2.87172Q74.3576 3.08627 74.6389 3.31516Q74.9202 3.54405 75.1892 3.78681Q75.4582 4.02958 75.7143 4.28571Q75.9704 4.54185 76.2132 4.81085Q76.456 5.07984 76.6849 5.36113Q76.9137 5.64243 77.1283 5.93546Q77.3429 6.22849 77.5426 6.53265Q77.7424 6.83681 77.927 7.15148Q78.1116 7.46615 78.2806 7.7907Q78.4497 8.11524 78.6028 8.44899Q78.7559 8.78274 78.8928 9.12502Q79.0297 9.4673 79.1502 9.81741Q79.2706 10.1675 79.3742 10.5247Q79.4779 10.882 79.5646 11.2456Q79.6514 11.6092 79.7209 11.9784Q79.7905 12.3477 79.8428 12.7218Q79.8952 13.096 79.9301 13.4743Q79.965 13.8525 79.9825 14.2342Q80 14.6158 80 15L80 65Q80 65.3842 79.9825 65.7658Q79.965 66.1475 79.9301 66.5257Q79.8952 66.904 79.8428 67.2782Q79.7905 67.6523 79.7209 68.0216Q79.6514 68.3908 79.5646 68.7544Q79.4779 69.118 79.3742 69.4753Q79.2706 69.8325 79.1502 70.1826Q79.0297 70.5327 78.8928 70.875Q78.7559 71.2173 78.6028 71.551Q78.4497 71.8848 78.2806 72.2093Q78.1116 72.5339 77.927 72.8485Q77.7424 73.1632 77.5426 73.4674Q77.3429 73.7715 77.1283 74.0646Q76.9137 74.3576 76.6849 74.6389Q76.456 74.9202 76.2132 75.1892Q75.9704 75.4582 75.7143 75.7143Q75.4582 75.9704 75.1892 76.2132Q74.9202 76.456 74.6389 76.6849Q74.3576 76.9137 74.0645 77.1283Q73.7715 77.3429 73.4674 77.5426Q73.1632 77.7424 72.8485 77.927Q72.5339 78.1116 72.2093 78.2806Q71.8848 78.4497 71.551 78.6028Q71.2173 78.7559 70.875 78.8928Q70.5327 79.0297 70.1826 79.1502Q69.8325 79.2706 69.4753 79.3742Q69.118 79.4779 68.7544 79.5646Q68.3908 79.6514 68.0216 79.7209Q67.6523 79.7905 67.2782 79.8428Q66.904 79.8952 66.5257 79.9301Q66.1475 79.965 65.7658 79.9825Q65.3842 80 65 80L15 80Q14.6158 80 14.2342 79.9825Q13.8525 79.965 13.4743 79.9301Q13.096 79.8952 12.7218 79.8428Q12.3477 79.7905 11.9784 79.7209Q11.6092 79.6514 11.2456 79.5646Q10.882 79.4779 10.5247 79.3742Q10.1675 79.2706 9.81741 79.1502Q9.4673 79.0297 9.12502 78.8928Q8.78274 78.7559 8.44899 78.6028Q8.11524 78.4497 7.79069 78.2806Q7.46615 78.1116 7.15148 77.927Q6.83681 77.7424 6.53265 77.5426Q6.22849 77.3429 5.93546 77.1283Q5.64243 76.9137 5.36113 76.6849Q5.07984 76.456 4.81085 76.2132Q4.54185 75.9704 4.28571 75.7143Q4.02958 75.4582 3.78681 75.1892Q3.54405 74.9202 3.31516 74.6389Q3.08627 74.3576 2.87172 74.0645Q2.65716 73.7715 2.45739 73.4674Q2.25761 73.1632 2.07301 72.8485Q1.88842 72.5339 1.71939 72.2093Q1.55035 71.8848 1.39722 71.551Q1.24409 71.2173 1.10718 70.875Q0.970271 70.5327 0.849856 70.1826Q0.729441 69.8325 0.625768 69.4753Q0.522095 69.118 0.435375 68.7544Q0.348656 68.3908 0.279067 68.0216Q0.209478 67.6523 0.157162 67.2782Q0.104846 66.904 0.0699093 66.5257Q0.0349725 66.1475 0.0174863 65.7658Q0 65.3842 0 65L0 15Q0 14.6158 0.0174863 14.2342Q0.0349725 13.8525 0.0699093 13.4743Q0.104846 13.096 0.157162 12.7218Q0.209478 12.3477 0.279067 11.9784Q0.348656 11.6092 0.435375 11.2456Q0.522095 10.882 0.625768 10.5247Q0.729441 10.1675 0.849856 9.81741Q0.970271 9.4673 1.10718 9.12502Q1.24409 8.78274 1.39722 8.44899Q1.55035 8.11524 1.71939 7.79069Q1.88842 7.46615 2.07301 7.15148Q2.25761 6.83681 2.45739 6.53265Q2.65716 6.22849 2.87172 5.93546Q3.08627 5.64243 3.31516 5.36113Q3.54405 5.07984 3.78681 4.81085Q4.02958 4.54185 4.28571 4.28571Q4.54185 4.02958 4.81085 3.78681Q5.07984 3.54405 5.36113 3.31516Q5.64243 3.08627 5.93546 2.87172Q6.22849 2.65716 6.53265 2.45739Q6.83681 2.25761 7.15148 2.07301Q7.46615 1.88842 7.7907 1.71939Q8.11524 1.55035 8.44899 1.39722Q8.78274 1.24409 9.12502 1.10718Q9.4673 0.970271 9.81741 0.849856Q10.1675 0.729441 10.5247 0.625768Q10.882 0.522095 11.2456 0.435375Q11.6092 0.348656 11.9784 0.279067Q12.3477 0.209478 12.7218 0.157162Q13.096 0.104846 13.4743 0.0699093Q13.8525 0.0349725 14.2342 0.0174863Q14.6158 0 15 0L65 0Q65.3842 0 65.7658 0.0174863Q66.1475 0.0349725 66.5257 0.0699093Q66.904 0.104846 67.2782 0.157162Q67.6523 0.209478 68.0216 0.279067Q68.3908 0.348656 68.7544 0.435375Q69.118 0.522095 69.4753 0.625768Q69.8325 0.729441 70.1826 0.849856Q70.5327 0.970271 70.875 1.10718Q71.2173 1.24409 71.551 1.39722Q71.8848 1.55035 72.2093 1.71939Q72.5339 1.88842 72.8485 2.07301Q73.1632 2.25761 73.4674 2.45739Q73.7715 2.65716 74.0646 2.87172Q74.3576 3.08627 74.6389 3.31516Q74.9202 3.54405 75.1892 3.78681Q75.4582 4.02958 75.7143 4.28571Q75.9704 4.54185 76.2132 4.81085Q76.456 5.07984 76.6849 5.36113Q76.9137 5.64243 77.1283 5.93546Q77.3429 6.22849 77.5426 6.53265Q77.7424 6.83681 77.927 7.15148Q78.1116 7.46615 78.2806 7.7907Q78.4497 8.11524 78.6028 8.44899Q78.7559 8.78274 78.8928 9.12502Q79.0297 9.4673 79.1502 9.81741Q79.2706 10.1675 79.3742 10.5247Q79.4779 10.882 79.5646 11.2456Q79.6514 11.6092 79.7209 11.9784Q79.7905 12.3477 79.8428 12.7218Q79.8952 13.096 79.9301 13.4743Q79.965 13.8525 79.9825 14.2342Q80 14.6158 80 15L80 65Q80 65.3842 79.9825 65.7658Q79.965 66.1475 79.9301 66.5257Q79.8952 66.904 79.8428 67.2782Q79.7905 67.6523 79.7209 68.0216Q79.6514 68.3908 79.5646 68.7544Q79.4779 69.118 79.3742 69.4753Q79.2706 69.8325 79.1502 70.1826Q79.0297 70.5327 78.8928 70.875Q78.7559 71.2173 78.6028 71.551Q78.4497 71.8848 78.2806 72.2093Q78.1116 72.5339 77.927 72.8485Q77.7424 73.1632 77.5426 73.4674Q77.3429 73.7715 77.1283 74.0646Q76.9137 74.3576 76.6849 74.6389Q76.456 74.9202 76.2132 75.1892Q75.9704 75.4582 75.7143 75.7143Q75.4582 75.9704 75.1892 76.2132Q74.9202 76.456 74.6389 76.6849Q74.3576 76.9137 74.0645 77.1283Q73.7715 77.3429 73.4674 77.5426Q73.1632 77.7424 72.8485 77.927Q72.5339 78.1116 72.2093 78.2806Q71.8848 78.4497 71.551 78.6028Q71.2173 78.7559 70.875 78.8928Q70.5327 79.0297 70.1826 79.1502Q69.8325 79.2706 69.4753 79.3742Q69.118 79.4779 68.7544 79.5646Q68.3908 79.6514 68.0216 79.7209Q67.6523 79.7905 67.2782 79.8428Q66.904 79.8952 66.5257 79.9301Q66.1475 79.965 65.7658 79.9825Q65.3842 80 65 80L15 80Q14.6158 80 14.2342 79.9825Q13.8525 79.965 13.4743 79.9301Q13.096 79.8952 12.7218 79.8428Q12.3477 79.7905 11.9784 79.7209Q11.6092 79.6514 11.2456 79.5646Q10.882 79.4779 10.5247 79.3742Q10.1675 79.2706 9.81741 79.1502Q9.4673 79.0297 9.12502 78.8928Q8.78274 78.7559 8.44899 78.6028Q8.11524 78.4497 7.79069 78.2806Q7.46615 78.1116 7.15148 77.927Q6.83681 77.7424 6.53265 77.5426Q6.22849 77.3429 5.93546 77.1283Q5.64243 76.9137 5.36113 76.6849Q5.07984 76.456 4.81085 76.2132Q4.54185 75.9704 4.28571 75.7143Q4.02958 75.4582 3.78681 75.1892Q3.54405 74.9202 3.31516 74.6389Q3.08627 74.3576 2.87172 74.0645Q2.65716 73.7715 2.45739 73.4674Q2.25761 73.1632 2.07301 72.8485Q1.88842 72.5339 1.71939 72.2093Q1.55035 71.8848 1.39722 71.551Q1.24409 71.2173 1.10718 70.875Q0.970271 70.5327 0.849856 70.1826Q0.729441 69.8325 0.625768 69.4753Q0.522095 69.118 0.435375 68.7544Q0.348656 68.3908 0.279067 68.0216Q0.209478 67.6523 0.157162 67.2782Q0.104846 66.904 0.0699093 66.5257Q0.0349725 66.1475 0.0174863 65.7658Q0 65.3842 0 65L0 15Q0 14.6158 0.0174863 14.2342Q0.0349725 13.8525 0.0699093 13.4743Q0.104846 13.096 0.157162 12.7218Q0.209478 12.3477 0.279067 11.9784Q0.348656 11.6092 0.435375 11.2456Q0.522095 10.882 0.625768 10.5247Q0.729441 10.1675 0.849856 9.81741Q0.970271 9.4673 1.10718 9.12502Q1.24409 8.78274 1.39722 8.44899Q1.55035 8.11524 1.71939 7.79069Q1.88842 7.46615 2.07301 7.15148Q2.25761 6.83681 2.45739 6.53265Q2.65716 6.22849 2.87172 5.93546Q3.08627 5.64243 3.31516 5.36113Q3.54405 5.07984 3.78681 4.81085Q4.02958 4.54185 4.28571 4.28571Q4.54185 4.02958 4.81085 3.78681Q5.07984 3.54405 5.36113 3.31516Q5.64243 3.08627 5.93546 2.87172Q6.22849 2.65716 6.53265 2.45739Q6.83681 2.25761 7.15148 2.07301Q7.46615 1.88842 7.7907 1.71939Q8.11524 1.55035 8.44899 1.39722Q8.78274 1.24409 9.12502 1.10718Q9.4673 0.970271 9.81741 0.849856Q10.1675 0.729441 10.5247 0.625768Q10.882 0.522095 11.2456 0.435375Q11.6092 0.348656 11.9784 0.279067Q12.3477 0.209478 12.7218 0.157162Q13.096 0.104846 13.4743 0.0699093Q13.8525 0.0349725 14.2342 0.0174863Q14.6158 0 15 0Z" id="path_1" />
    <clipPath id="clip_1">
      <use xlink:href="#path_1" />
    </clipPath>
  </defs>
  <g id="Зробити">
    <g id="Rectangle-12-Copy-2">
      <g clip-path="url(#clip_1)">
        <use xlink:href="#path_1" fill="none" stroke="#C5D5E6" stroke-width="4" />
      </g>
    </g>
  </g>
  <path d="M32.3359 12.7529L29.5406 31.7271C29.2629 33.1671 28.6253 33.7976 28.1617 34.2588C27.7123 34.7059 27.4135 35.0024 27.4135 36.4541L27.4135 38.8235C27.4135 39.4729 26.8864 40 26.237 40C25.5876 40 25.0606 39.4729 25.0606 38.8235L25.0606 36.4541C25.0606 34.2071 25.7147 33.3741 26.5053 32.5906C26.87 32.2282 27.0888 32.0094 27.2206 31.3341L30.0088 12.4188C30.0512 12.1294 30.1288 11.1482 29.3664 11.0424C29.1029 11.0047 28.8888 11.0471 28.7194 11.1765C28.4935 11.3435 28.3335 11.6682 28.277 12.0659L27.1076 19.8682C27.0488 20.2706 26.7829 20.6118 26.4112 20.7741C26.0394 20.9365 25.6088 20.8918 25.2723 20.6588C25.1547 20.6776 24.957 20.6047 24.7594 20.4753C24.4017 20.2471 24.197 19.8447 24.2206 19.4212L24.8912 6.98353C24.9453 6.32941 24.4912 5.78588 23.8747 5.73176C23.5759 5.70353 23.2888 5.79765 23.0606 5.98824C22.83 6.18118 22.6935 6.44941 22.6676 6.74353L21.5782 17.9953C21.517 18.6282 21.0159 19.0871 20.3288 19.0565C20.1382 19.0447 19.9453 19.0329 19.75 19.0306C19.117 19.0165 18.6088 18.5059 18.597 17.8753L18.3264 3.47765C18.3264 2.84706 17.8323 2.35294 17.2253 2.35294C16.6182 2.35294 16.1241 2.84706 16.1241 3.45412L15.8464 18.9506C15.837 19.3976 15.5782 19.8024 15.1735 19.9929C15.0276 20.0635 14.8864 20.1341 14.7523 20.2094C14.4064 20.4071 13.9853 20.4141 13.6323 20.2282C13.2794 20.0447 13.0417 19.6941 13.0017 19.2988L11.79 6.76C11.7641 6.45176 11.6253 6.18353 11.3994 5.99294C11.1712 5.80235 10.8629 5.71529 10.5876 5.73647C10.2912 5.76235 10.0253 5.90118 9.83468 6.12941C9.64645 6.35529 9.55468 6.64235 9.58057 6.93647L10.7641 23.6353C10.8017 24.1482 10.4982 24.6282 10.0182 24.8141C9.53351 25.0024 8.98763 24.8541 8.66998 24.4494L5.02057 19.8541C4.54292 19.0541 3.69821 18.8306 3.0441 19.2094C2.7241 19.3953 2.49586 19.6918 2.40174 20.0471C2.30763 20.4 2.35468 20.7718 2.54292 21.0894L10.8464 35.4118C11.0347 35.7388 11.3429 35.9671 11.71 36.0565C12.237 36.1835 12.6088 36.6565 12.6088 37.2L12.6088 38.8235C12.6088 39.4729 12.0817 40 11.4323 40C10.7829 40 10.2559 39.4729 10.2559 38.8235L10.2559 38C9.65821 37.6776 9.16174 37.1976 8.81115 36.5929L0.505272 22.2706C0.00409599 21.4094 -0.130022 20.4047 0.128802 19.4424C0.382919 18.4776 1.00174 17.6729 1.86763 17.1718C3.65115 16.1435 5.93351 16.7553 6.95939 18.5341L8.14998 20.0259L7.23468 7.12471C7.15468 6.22588 7.43704 5.32706 8.02998 4.61647C8.62292 3.91059 9.46057 3.47529 10.3806 3.39294C11.3147 3.30824 12.2041 3.59765 12.9147 4.19294C13.2582 4.48235 13.5335 4.82588 13.7382 5.20706L13.7712 3.43529C13.7712 1.54824 15.3217 0 17.2253 0C19.1288 0 20.6794 1.55059 20.6794 3.45647L20.7123 5.21176C20.9194 4.82824 21.197 4.48235 21.5429 4.19059C22.2559 3.59294 23.1617 3.30588 24.0794 3.39059C25.9876 3.55765 27.4017 5.24471 27.2347 7.15059L27.11 9.45177C27.1712 9.39765 27.237 9.34588 27.3006 9.29647C27.9782 8.78823 28.7994 8.59059 29.6959 8.71294C31.5429 8.96941 32.6323 10.6329 32.3359 12.7529L32.3359 12.7529L29.5406 31.7271C29.2629 33.1671 28.6253 33.7976 28.1617 34.2588C27.7123 34.7059 27.4135 35.0024 27.4135 36.4541L27.4135 38.8235C27.4135 39.4729 26.8864 40 26.237 40C25.5876 40 25.0606 39.4729 25.0606 38.8235L25.0606 36.4541C25.0606 34.2071 25.7147 33.3741 26.5053 32.5906C26.87 32.2282 27.0888 32.0094 27.2206 31.3341L30.0088 12.4188C30.0512 12.1294 30.1288 11.1482 29.3664 11.0424C29.1029 11.0047 28.8888 11.0471 28.7194 11.1765C28.4935 11.3435 28.3335 11.6682 28.277 12.0659L27.1076 19.8682C27.0488 20.2706 26.7829 20.6118 26.4112 20.7741C26.0394 20.9365 25.6088 20.8918 25.2723 20.6588C25.1547 20.6776 24.957 20.6047 24.7594 20.4753C24.4017 20.2471 24.197 19.8447 24.2206 19.4212L24.8912 6.98353C24.9453 6.32941 24.4912 5.78588 23.8747 5.73176C23.5759 5.70353 23.2888 5.79765 23.0606 5.98824C22.83 6.18118 22.6935 6.44941 22.6676 6.74353L21.5782 17.9953C21.517 18.6282 21.0159 19.0871 20.3288 19.0565C20.1382 19.0447 19.9453 19.0329 19.75 19.0306C19.117 19.0165 18.6088 18.5059 18.597 17.8753L18.3264 3.47765C18.3264 2.84706 17.8323 2.35294 17.2253 2.35294C16.6182 2.35294 16.1241 2.84706 16.1241 3.45412L15.8464 18.9506C15.837 19.3976 15.5782 19.8024 15.1735 19.9929C15.0276 20.0635 14.8864 20.1341 14.7523 20.2094C14.4064 20.4071 13.9853 20.4141 13.6323 20.2282C13.2794 20.0447 13.0417 19.6941 13.0017 19.2988L11.79 6.76C11.7641 6.45176 11.6253 6.18353 11.3994 5.99294C11.1712 5.80235 10.8629 5.71529 10.5876 5.73647C10.2912 5.76235 10.0253 5.90118 9.83468 6.12941C9.64645 6.35529 9.55468 6.64235 9.58057 6.93647L10.7641 23.6353C10.8017 24.1482 10.4982 24.6282 10.0182 24.8141C9.53351 25.0024 8.98763 24.8541 8.66998 24.4494L5.02057 19.8541C4.54292 19.0541 3.69821 18.8306 3.0441 19.2094C2.7241 19.3953 2.49586 19.6918 2.40174 20.0471C2.30763 20.4 2.35468 20.7718 2.54292 21.0894L10.8464 35.4118C11.0347 35.7388 11.3429 35.9671 11.71 36.0565C12.237 36.1835 12.6088 36.6565 12.6088 37.2L12.6088 38.8235C12.6088 39.4729 12.0817 40 11.4323 40C10.7829 40 10.2559 39.4729 10.2559 38.8235L10.2559 38C9.65821 37.6776 9.16174 37.1976 8.81115 36.5929L0.505272 22.2706C0.00409599 21.4094 -0.130022 20.4047 0.128802 19.4424C0.382919 18.4776 1.00174 17.6729 1.86763 17.1718C3.65115 16.1435 5.93351 16.7553 6.95939 18.5341L8.14998 20.0259L7.23468 7.12471C7.15468 6.22588 7.43704 5.32706 8.02998 4.61647C8.62292 3.91059 9.46057 3.47529 10.3806 3.39294C11.3147 3.30824 12.2041 3.59765 12.9147 4.19294C13.2582 4.48235 13.5335 4.82588 13.7382 5.20706L13.7712 3.43529C13.7712 1.54824 15.3217 0 17.2253 0C19.1288 0 20.6794 1.55059 20.6794 3.45647L20.7123 5.21176C20.9194 4.82824 21.197 4.48235 21.5429 4.19059C22.2559 3.59294 23.1617 3.30588 24.0794 3.39059C25.9876 3.55765 27.4017 5.24471 27.2347 7.15059L27.11 9.45177C27.1712 9.39765 27.237 9.34588 27.3006 9.29647C27.9782 8.78823 28.7994 8.59059 29.6959 8.71294C31.5429 8.96941 32.6323 10.6329 32.3359 12.7529L32.3359 12.7529Z" transform="translate(24 20)" id="Shape" fill="#C5D5E6" stroke="none" />
</svg>