<?xml version="1.0" encoding="utf-8"?>
<svg width="30px" height="31px" viewBox="0 0 30 31" version="1.1" xmlns:xlink="http://www.w3.org/1999/xlink" xmlns="http://www.w3.org/2000/svg">
  <desc>Created with Lunacy</desc>
  <g id="paypal-logo">
    <path d="M0 27.3225L5.95227 0L19.3868 0C23.326 0 27.9119 2.90489 26.5469 9.29864C25.3391 14.9468 20.8336 18.2686 15.4463 18.2686L9.81409 18.2686L7.88318 27.3225L0 27.3225ZM12.628 5.56293L10.9395 13.037L13.5085 13.037L14.7747 7.43009L18.6355 7.43009C18.8202 7.43009 18.9771 7.48088 19.1462 7.5102C18.8165 6.35179 17.8135 5.56293 16.4891 5.56293L12.628 5.56293ZM28.323 5.94818C28.9356 7.32239 29.1453 9.04875 28.6933 11.1661C27.4858 16.8136 22.9803 20.1355 17.5933 20.1355L11.9611 20.1355L10.0305 29.1883L3.40735 29.1883L3.08008 30.6818L10.9639 30.6818L12.8945 21.629L18.5263 21.629C23.9127 21.629 28.4188 18.3072 29.6267 12.6597C30.2621 9.68284 29.6008 7.47204 28.323 5.94818ZM19.1454 9.29933C18.6753 11.3277 16.7478 12.9464 14.7852 13.0224L15.7094 8.92365L19.2095 8.92365C19.1883 9.04876 19.1798 9.16944 19.1454 9.29933Z" id="PayPal" fill="#FFFFFF" fill-rule="evenodd" stroke="none" />
  </g>
</svg>