<?xml version="1.0" encoding="utf-8"?>
<svg width="40px" height="38px" viewBox="0 0 40 38" version="1.1" xmlns:xlink="http://www.w3.org/1999/xlink" xmlns="http://www.w3.org/2000/svg">
  <desc>Created with Lunacy</desc>
  <defs>
    <linearGradient x1="0.2622764" y1="0.8273336" x2="1.31910932" y2="-0.171376273" id="gradient_1">
      <stop offset="0" stop-color="#E53656" />
      <stop offset="1" stop-color="#6082D8" />
    </linearGradient>
  </defs>
  <path d="M18 3C16.038 1.50082 13.032 0 10 0C4.347 0 0 4.47466 0 10C0 17.1853 6.12 22.9014 16 31L17.0015 32.5023Q17.0527 32.5791 17.1078 32.6477Q17.1628 32.7163 17.2212 32.7761Q17.2797 32.836 17.3411 32.8867Q17.4025 32.9373 17.4663 32.9784Q17.5301 33.0194 17.5959 33.0505Q17.6616 33.0815 17.7287 33.1024Q17.7959 33.1232 17.8638 33.1337Q17.9318 33.1442 18 33.1442Q18.0682 33.1442 18.1362 33.1337Q18.2041 33.1232 18.2713 33.1024Q18.3384 33.0815 18.4041 33.0505Q18.4699 33.0194 18.5337 32.9784Q18.5975 32.9373 18.6589 32.8867Q18.7203 32.836 18.7788 32.7761Q18.8372 32.7163 18.8923 32.6477Q18.9473 32.5791 18.9985 32.5023L20 31C29.88 22.9014 36 17.1853 36 10C36 4.47466 31.653 0 26 0C22.968 0 19.962 1.50082 18 3C16.038 1.50082 13.032 0 10 0C4.347 0 0 4.47466 0 10C0 17.1853 6.12 22.9014 16 31L17.0015 32.5023Q17.0527 32.5791 17.1078 32.6477Q17.1628 32.7163 17.2212 32.7761Q17.2797 32.836 17.3411 32.8867Q17.4025 32.9373 17.4663 32.9784Q17.5301 33.0194 17.5959 33.0505Q17.6616 33.0815 17.7287 33.1024Q17.7959 33.1232 17.8638 33.1337Q17.9318 33.1442 18 33.1442Q18.0682 33.1442 18.1362 33.1337Q18.2041 33.1232 18.2713 33.1024Q18.3384 33.0815 18.4041 33.0505Q18.4699 33.0194 18.5337 32.9784Q18.5975 32.9373 18.6589 32.8867Q18.7203 32.836 18.7788 32.7761Q18.8372 32.7163 18.8923 32.6477Q18.9473 32.5791 18.9985 32.5023L20 31C29.88 22.9014 36 17.1853 36 10C36 4.47466 31.653 0 26 0C22.968 0 19.962 1.50082 18 3Z" transform="translate(2 2)" id="Лого" fill="url(#gradient_1)" stroke="none" />
</svg>