<?xml version="1.0" encoding="utf-8"?>
<svg width="22px" height="22px" viewBox="0 0 22 22" version="1.1" xmlns:xlink="http://www.w3.org/1999/xlink" xmlns="http://www.w3.org/2000/svg">
  <desc>Created with Lunacy</desc>
  <path d="M18 9C18 13.9627 13.9627 18 9 18C4.03729 18 0 13.9627 0 9C0 4.03729 4.03729 0 9 0C13.9627 0 18 4.03729 18 9ZM9 1.05859C13.3793 1.05859 16.9412 4.62048 16.9412 8.99977C16.9412 13.3791 13.3793 16.9409 9 16.9409C4.62071 16.9409 1.05882 13.3791 1.05882 8.99977C1.05882 4.62048 4.62071 1.05859 9 1.05859ZM7.25718 4.39063L11.8662 9.00074L7.25612 13.6109L6.50753 12.8623L10.3691 9.00074L6.50753 5.14027L7.25718 4.39063Z" transform="matrix(-4.371139E-08 1 -1 -4.371139E-08 20 2)" id="Shape" fill="#C5D5E6" fill-rule="evenodd" stroke="none" />
</svg>