<?xml version="1.0" encoding="utf-8"?>
<svg width="80px" height="22px" viewBox="0 0 80 22" version="1.1" xmlns:xlink="http://www.w3.org/1999/xlink" xmlns="http://www.w3.org/2000/svg">
  <desc>Created with Lunacy</desc>
  <g id="webmoney-paying-logo">
    <g id="Capa_1_1_">
      <g id="Layer_1_copy_32_">
        <path d="M75.7931 18.728L73.6795 16.312L71.2363 18.5648L67.1115 13.9744L68.2587 12.9648L65.3707 9.7312L66.5243 8.72L63.5931 5.4896L68.1675 1.3712L69.6203 2.9616L72.0731 0.7728L73.5227 2.2752L74.4891 1.4096C74.2731 1.2848 74.0571 1.1696 73.8379 1.0656C72.4443 0.384 70.8795 0 69.2315 0C63.4443 0 58.7227 4.72 58.7227 10.5088C58.7227 16.296 63.4443 21.016 69.2315 21.016C71.1115 21.016 72.8827 20.5184 74.4107 19.6464C74.9147 19.3616 75.3739 19.0528 75.7931 18.728ZM75.5016 2.36639L74.252 3.49119L75.3768 4.74079L76.6248 3.61599L75.5016 2.36639ZM73.6784 4.55361L71.9904 2.67841L70.1152 4.36641L71.8032 6.24161L73.6784 4.55361ZM68.0265 3.32642L70.2761 5.82562L67.7769 8.07522L65.5273 5.57602L68.0265 3.32642ZM17.6058 8.98559C17.9674 8.79359 18.5786 8.54239 19.2266 8.54239C20.713 8.54239 21.5162 9.57279 21.5162 11.488C21.5162 13.7312 20.4378 14.824 18.6986 14.824C18.0618 14.824 17.0794 14.6192 16.3594 14.2368L16.3594 5.86719L17.6058 5.56799L17.6058 8.98559ZM75.8496 7.20482L77.096 6.08002L78.2192 7.32962L76.9744 8.45442L75.8496 7.20482ZM29.6827 8.5152L27.2363 14.68L26.4699 14.68L24.0235 8.6608L23.9163 8.6608L23.9163 14.68L22.8379 14.68L22.8379 6.1792L24.2875 6.1792L26.9739 12.88L27.0347 12.88L29.5979 6.1792L31.0843 6.1792L31.0843 14.68L29.7899 14.68L29.7899 8.5152L29.6827 8.5152ZM7.832 14.68L9.776 6.1792L8.3728 6.1792L7.1488 12.5216L7.064 12.5216L5.3968 6.1792L4.3296 6.1792L2.7712 12.5216L2.6864 12.5216L1.344 6.1792L0 6.1792L1.9424 14.68L3.2384 14.68L4.8208 8.696L4.9056 8.696L6.536 14.68L7.832 14.68ZM71.8438 8.136L73.5318 10.0096L75.407 8.3216L73.7158 6.448L71.8438 8.136ZM69.568 12.3424L67.3184 9.84319L69.8176 7.59039L72.0672 10.0896L69.568 12.3424ZM41.7189 9.49917C42.3349 9.49917 42.8005 9.66717 42.8005 10.6144L42.8005 14.68L44.0469 14.68L44.0469 10.3408C44.0469 9.10557 43.5061 8.54237 42.0693 8.54077C40.6901 8.54077 39.5509 9.10397 39.0117 9.42717L39.0117 14.6784L40.2565 14.6784L40.2565 9.93117C40.6277 9.71517 41.2405 9.49917 41.7189 9.49917ZM12.8466 8.54242C11.0482 8.54242 10.125 9.85922 10.125 11.6832C10.125 13.5792 10.9538 14.8256 12.9666 14.8256C13.829 14.8256 14.549 14.5856 15.0882 14.2704L15.0882 13.3632C14.429 13.7552 13.829 13.9856 13.1826 13.9856C11.949 13.9856 11.3602 13.352 11.3602 11.9104L15.2674 11.9104L15.2674 11.4704C15.269 9.51202 14.3458 8.54242 12.8466 8.54242ZM32.4023 11.6832C32.4023 9.58562 33.5543 8.54242 35.1367 8.54242C36.7191 8.54242 37.8711 9.58402 37.8711 11.6832C37.8711 13.7328 36.7799 14.8256 35.1367 14.8256C33.4951 14.8256 32.4023 13.7328 32.4023 11.6832ZM47.8837 8.54242C46.0837 8.54242 45.1621 9.85922 45.1621 11.6832C45.1621 13.5792 45.9893 14.8256 48.0021 14.8256C48.8645 14.8256 49.5813 14.5856 50.1221 14.2704L50.1221 13.3632C49.4645 13.7552 48.8645 13.9856 48.2181 13.9856C46.9845 13.9856 46.3941 13.352 46.3941 11.9104L50.3029 11.9104L50.3029 11.4704C50.3061 9.51202 49.3813 8.54242 47.8837 8.54242ZM54.0848 14.7408L56.2528 8.74402L54.968 8.74402L53.6064 13.16L53.5344 13.16L52 8.74562L50.6816 8.74562L52.9824 14.744C52.6944 15.632 52.192 16.2784 51.376 16.2784L51.376 17.2592C52.7536 17.2592 53.4848 16.3968 54.0848 14.7408ZM11.3848 11.1056C11.516 9.90879 12.0808 9.34399 12.812 9.34399C13.46 9.34399 14.0712 9.84479 14.1304 11.1056L11.3848 11.1056ZM47.8484 9.34399C47.1172 9.34399 46.5524 9.90879 46.418 11.1056L49.1668 11.1056C49.1076 9.84479 48.4932 9.34399 47.8484 9.34399ZM35.1373 13.984C34.2861 13.984 33.6621 13.328 33.6621 11.6832C33.6621 10.064 34.3469 9.3808 35.1373 9.3808C35.9533 9.3808 36.6125 10.064 36.6125 11.6832C36.6125 13.328 35.9885 13.984 35.1373 13.984ZM18.6981 13.984C18.3973 13.984 17.9797 13.9616 17.5957 13.7936L17.5957 9.87201C18.0757 9.60801 18.4245 9.47681 18.9013 9.47681C19.7045 9.47681 20.2581 9.96961 20.2581 11.4896C20.2581 13.4336 19.5861 13.984 18.6981 13.984ZM78.6969 9.79041L79.8201 11.04L78.5721 12.1648L77.4473 10.9152L78.6969 9.79041ZM75.1346 13.968L73.4434 12.096L75.3186 10.4064L77.0098 12.2784L75.1346 13.968ZM69.0977 14.1632L71.3457 16.6624L73.8449 14.4128L71.5953 11.9136L69.0977 14.1632ZM76.9686 14.1936L78.6566 16.0688L76.7814 17.7568L75.0918 15.8816L76.9686 14.1936Z" id="Shape" fill="#FFFFFF" fill-rule="evenodd" stroke="none" />
      </g>
    </g>
  </g>
</svg>