<?xml version="1.0" encoding="utf-8"?>
<svg width="30px" height="30px" viewBox="0 0 30 30" version="1.1" xmlns:xlink="http://www.w3.org/1999/xlink" xmlns="http://www.w3.org/2000/svg">
  <desc>Created with Lunacy</desc>
  <g id="Волонтерство">
    <path d="M4.999 0L25.001 0C27.7619 0 30 2.23813 30 4.999L30 25.001C30 27.7619 27.7619 30 25.001 30L4.999 30C2.23813 30 0 27.7619 0 25.001L0 4.999C0 2.23813 2.23813 0 4.999 0L25.001 0C27.7619 0 30 2.23813 30 4.999L30 25.001C30 27.7619 27.7619 30 25.001 30L4.999 30C2.23813 30 0 27.7619 0 25.001L0 4.999C0 2.23813 2.23813 0 4.999 0Z" id="Rectangle-12-Copy-5" fill="#9C5D9A" stroke="none" />
    <g id="donation" transform="translate(6 7)">
      <g id="Group">
        <path d="M0.331488 0.967204C1.03213 1.21569 1.59786 1.78293 1.84634 2.48358C1.91853 2.68824 2.11076 2.81575 2.31542 2.81575C2.37069 2.81575 2.42695 2.8063 2.48174 2.78686C2.74068 2.69524 2.87665 2.4104 2.78503 2.1514C2.43296 1.15541 1.6596 0.381582 0.664595 0.0284578C0.405135 -0.0626973 0.120815 0.0722847 0.0286682 0.331219C-0.0628954 0.590737 0.0720282 0.875115 0.331488 0.967204C1.03213 1.21569 1.59786 1.78293 1.84634 2.48358C1.91853 2.68824 2.11076 2.81575 2.31542 2.81575C2.37069 2.81575 2.42695 2.8063 2.48174 2.78686C2.74068 2.69524 2.87665 2.4104 2.78503 2.1514C2.43296 1.15541 1.6596 0.381582 0.664595 0.0284578C0.405135 -0.0626973 0.120815 0.0722847 0.0286682 0.331219C-0.0628954 0.590737 0.0720282 0.875115 0.331488 0.967204Z" transform="translate(12.96737 2.163467)" id="Shape" fill="#FFFFFF" stroke="none" />
        <path d="M8.72527 16.8709C8.79997 16.9112 8.88161 16.9316 8.96378 16.9316C9.04595 16.9316 9.12812 16.9112 9.20229 16.8709C14.8699 13.7794 17.9276 8.69341 17.9276 5.47789C17.9276 2.4571 15.4705 4.14658e-16 12.4497 4.14658e-16C10.3282 4.14658e-16 8.3781 1.2425 7.48225 3.16621C7.36571 3.41569 7.47379 3.71203 7.7228 3.82805C7.97228 3.94459 8.26862 3.83604 8.38464 3.58703C9.1182 2.01288 10.7137 0.995995 12.4497 0.995995C14.9213 0.995995 16.9316 3.00637 16.9316 5.47789C16.9316 8.40156 13.9571 13.0473 8.96384 15.8639C3.9705 13.0473 0.995995 8.40162 0.995995 5.47789C0.995995 3.00637 3.00689 0.995995 5.47789 0.995995C6.10185 0.995995 6.70545 1.12146 7.27263 1.36949C7.52462 1.47955 7.81792 1.36499 7.92845 1.113C8.03852 0.861013 7.92349 0.567706 7.6715 0.457176C6.97833 0.15389 6.24027 0 5.47789 0C2.45757 0 0 2.45705 0 5.47789C0 8.69341 3.05819 13.7794 8.72527 16.8709C8.79997 16.9112 8.88161 16.9316 8.96378 16.9316C9.04595 16.9316 9.12812 16.9112 9.20229 16.8709C14.8699 13.7794 17.9276 8.69341 17.9276 5.47789C17.9276 2.4571 15.4705 4.14658e-16 12.4497 4.14658e-16C10.3282 4.14658e-16 8.3781 1.2425 7.48225 3.16621C7.36571 3.41569 7.47379 3.71203 7.7228 3.82805C7.97228 3.94459 8.26862 3.83604 8.38464 3.58703C9.1182 2.01288 10.7137 0.995995 12.4497 0.995995C14.9213 0.995995 16.9316 3.00637 16.9316 5.47789C16.9316 8.40156 13.9571 13.0473 8.96384 15.8639C3.9705 13.0473 0.995995 8.40162 0.995995 5.47789C0.995995 3.00637 3.00689 0.995995 5.47789 0.995995C6.10185 0.995995 6.70545 1.12146 7.27263 1.36949C7.52462 1.47955 7.81792 1.36499 7.92845 1.113C8.03852 0.861013 7.92349 0.567706 7.6715 0.457176C6.97833 0.15389 6.24027 0 5.47789 0C2.45757 0 0 2.45705 0 5.47789C0 8.69341 3.05819 13.7794 8.72527 16.8709Z" transform="translate(0.01600467 0.0002917898)" id="Shape" fill="#FFFFFF" stroke="none" />
      </g>
    </g>
  </g>
</svg>