<?xml version="1.0" encoding="utf-8"?>
<svg width="30px" height="30px" viewBox="0 0 30 30" version="1.1" xmlns:xlink="http://www.w3.org/1999/xlink" xmlns="http://www.w3.org/2000/svg">
  <desc>Created with Lunacy</desc>
  <g id="Зробити">
    <path d="M4.999 0L25.001 0C27.7619 0 30 2.23813 30 4.999L30 25.001C30 27.7619 27.7619 30 25.001 30L4.999 30C2.23813 30 0 27.7619 0 25.001L0 4.999C0 2.23813 2.23813 0 4.999 0L25.001 0C27.7619 0 30 2.23813 30 4.999L30 25.001C30 27.7619 27.7619 30 25.001 30L4.999 30C2.23813 30 0 27.7619 0 25.001L0 4.999C0 2.23813 2.23813 0 4.999 0Z" id="Rectangle-12-Copy-2" fill="#9C5D9A" stroke="none" />
    <path d="M14.5511 5.73882L13.2933 14.2772C13.1683 14.9252 12.8814 15.2089 12.6728 15.4165C12.4705 15.6176 12.3361 15.7511 12.3361 16.4044L12.3361 17.4706C12.3361 17.7628 12.0989 18 11.8067 18C11.5144 18 11.2773 17.7628 11.2773 17.4706L11.2773 16.4044C11.2773 15.3932 11.5716 15.0184 11.9274 14.6658C12.0915 14.5027 12.19 14.4042 12.2493 14.1004L13.504 5.58847C13.523 5.45824 13.558 5.01671 13.2149 4.96906C13.0963 4.95212 13 4.97118 12.9237 5.02941C12.8221 5.10459 12.7501 5.25071 12.7247 5.42965L12.1984 8.94071C12.172 9.12177 12.0523 9.27529 11.885 9.34835C11.7177 9.42141 11.524 9.40129 11.3726 9.29647C11.3196 9.30494 11.2307 9.27212 11.1417 9.21388C10.9808 9.11118 10.8887 8.93012 10.8993 8.73953L11.201 3.14259C11.2254 2.84824 11.021 2.60365 10.7436 2.57929C10.6091 2.56659 10.48 2.60894 10.3773 2.69471C10.2735 2.78153 10.2121 2.90224 10.2004 3.03459L9.7102 8.09788C9.68267 8.38271 9.45714 8.58918 9.14796 8.57541C9.0622 8.57012 8.97537 8.56482 8.88749 8.56376C8.60267 8.55741 8.37396 8.32765 8.36867 8.04388L8.2469 1.56494C8.2469 1.28118 8.02455 1.05882 7.75137 1.05882C7.4782 1.05882 7.25584 1.28118 7.25584 1.55435L7.1309 8.52777C7.12667 8.72894 7.0102 8.91106 6.82808 8.99682C6.76243 9.02859 6.6989 9.06035 6.63855 9.09424C6.4829 9.18318 6.29337 9.18635 6.13455 9.10271C5.97573 9.02012 5.86878 8.86235 5.85078 8.68447L5.30549 3.042C5.29384 2.90329 5.23137 2.78259 5.12973 2.69682C5.02702 2.61106 4.88831 2.57188 4.76443 2.58141C4.63102 2.59306 4.51137 2.65553 4.42561 2.75824C4.3409 2.85988 4.29961 2.98906 4.31125 3.12141L4.84384 10.6359C4.86078 10.8667 4.7242 11.0827 4.5082 11.1664C4.29008 11.2511 4.04443 11.1844 3.90149 11.0022L2.25925 8.93435C2.04431 8.57435 1.6642 8.47376 1.36984 8.64424C1.22584 8.72788 1.12314 8.86129 1.08078 9.02118C1.03843 9.18 1.05961 9.34729 1.14431 9.49023L4.8809 15.9353C4.96561 16.0825 5.10431 16.1852 5.26949 16.2254C5.50667 16.2826 5.67396 16.4954 5.67396 16.74L5.67396 17.4706C5.67396 17.7628 5.43678 18 5.14455 18C4.85231 18 4.61514 17.7628 4.61514 17.4706L4.61514 17.1C4.3462 16.9549 4.12278 16.7389 3.96502 16.4668L0.227373 10.0218C0.0018432 9.63424 -0.0585097 9.18212 0.0579608 8.74906C0.172314 8.31494 0.450784 7.95282 0.840431 7.72729C1.64302 7.26459 2.67008 7.53988 3.13173 8.34035L3.66749 9.01165L3.25561 3.20612C3.21961 2.80165 3.34667 2.39718 3.61349 2.07741C3.88031 1.75976 4.25726 1.56388 4.67126 1.52682C5.09161 1.48871 5.49184 1.61894 5.81161 1.88682C5.9662 2.01706 6.09008 2.17165 6.1822 2.34318L6.19702 1.54588C6.19702 0.696706 6.89478 0 7.75137 0C8.60796 0 9.30573 0.697765 9.30573 1.55541L9.32055 2.34529C9.41373 2.17271 9.53867 2.01706 9.69431 1.88576C10.0151 1.61682 10.4228 1.48765 10.8357 1.52576C11.6944 1.60094 12.3308 2.36012 12.2556 3.21776L12.1995 4.25329C12.227 4.22894 12.2567 4.20565 12.2853 4.18341C12.5902 3.95471 12.9597 3.86576 13.3631 3.92082C14.1943 4.03624 14.6845 4.78482 14.5511 5.73882L14.5511 5.73882L13.2933 14.2772C13.1683 14.9252 12.8814 15.2089 12.6728 15.4165C12.4705 15.6176 12.3361 15.7511 12.3361 16.4044L12.3361 17.4706C12.3361 17.7628 12.0989 18 11.8067 18C11.5144 18 11.2773 17.7628 11.2773 17.4706L11.2773 16.4044C11.2773 15.3932 11.5716 15.0184 11.9274 14.6658C12.0915 14.5027 12.19 14.4042 12.2493 14.1004L13.504 5.58847C13.523 5.45824 13.558 5.01671 13.2149 4.96906C13.0963 4.95212 13 4.97118 12.9237 5.02941C12.8221 5.10459 12.7501 5.25071 12.7247 5.42965L12.1984 8.94071C12.172 9.12177 12.0523 9.27529 11.885 9.34835C11.7177 9.42141 11.524 9.40129 11.3726 9.29647C11.3196 9.30494 11.2307 9.27212 11.1417 9.21388C10.9808 9.11118 10.8887 8.93012 10.8993 8.73953L11.201 3.14259C11.2254 2.84824 11.021 2.60365 10.7436 2.57929C10.6091 2.56659 10.48 2.60894 10.3773 2.69471C10.2735 2.78153 10.2121 2.90224 10.2004 3.03459L9.7102 8.09788C9.68267 8.38271 9.45714 8.58918 9.14796 8.57541C9.0622 8.57012 8.97537 8.56482 8.88749 8.56376C8.60267 8.55741 8.37396 8.32765 8.36867 8.04388L8.2469 1.56494C8.2469 1.28118 8.02455 1.05882 7.75137 1.05882C7.4782 1.05882 7.25584 1.28118 7.25584 1.55435L7.1309 8.52777C7.12667 8.72894 7.0102 8.91106 6.82808 8.99682C6.76243 9.02859 6.6989 9.06035 6.63855 9.09424C6.4829 9.18318 6.29337 9.18635 6.13455 9.10271C5.97573 9.02012 5.86878 8.86235 5.85078 8.68447L5.30549 3.042C5.29384 2.90329 5.23137 2.78259 5.12973 2.69682C5.02702 2.61106 4.88831 2.57188 4.76443 2.58141C4.63102 2.59306 4.51137 2.65553 4.42561 2.75824C4.3409 2.85988 4.29961 2.98906 4.31125 3.12141L4.84384 10.6359C4.86078 10.8667 4.7242 11.0827 4.5082 11.1664C4.29008 11.2511 4.04443 11.1844 3.90149 11.0022L2.25925 8.93435C2.04431 8.57435 1.6642 8.47376 1.36984 8.64424C1.22584 8.72788 1.12314 8.86129 1.08078 9.02118C1.03843 9.18 1.05961 9.34729 1.14431 9.49023L4.8809 15.9353C4.96561 16.0825 5.10431 16.1852 5.26949 16.2254C5.50667 16.2826 5.67396 16.4954 5.67396 16.74L5.67396 17.4706C5.67396 17.7628 5.43678 18 5.14455 18C4.85231 18 4.61514 17.7628 4.61514 17.4706L4.61514 17.1C4.3462 16.9549 4.12278 16.7389 3.96502 16.4668L0.227373 10.0218C0.0018432 9.63424 -0.0585097 9.18212 0.0579608 8.74906C0.172314 8.31494 0.450784 7.95282 0.840431 7.72729C1.64302 7.26459 2.67008 7.53988 3.13173 8.34035L3.66749 9.01165L3.25561 3.20612C3.21961 2.80165 3.34667 2.39718 3.61349 2.07741C3.88031 1.75976 4.25726 1.56388 4.67126 1.52682C5.09161 1.48871 5.49184 1.61894 5.81161 1.88682C5.9662 2.01706 6.09008 2.17165 6.1822 2.34318L6.19702 1.54588C6.19702 0.696706 6.89478 0 7.75137 0C8.60796 0 9.30573 0.697765 9.30573 1.55541L9.32055 2.34529C9.41373 2.17271 9.53867 2.01706 9.69431 1.88576C10.0151 1.61682 10.4228 1.48765 10.8357 1.52576C11.6944 1.60094 12.3308 2.36012 12.2556 3.21776L12.1995 4.25329C12.227 4.22894 12.2567 4.20565 12.2853 4.18341C12.5902 3.95471 12.9597 3.86576 13.3631 3.92082C14.1943 4.03624 14.6845 4.78482 14.5511 5.73882L14.5511 5.73882Z" transform="translate(7 5)" id="Shape" fill="#FFFFFF" stroke="none" />
  </g>
</svg>