<?xml version="1.0" encoding="utf-8"?>
<svg width="40px" height="37px" viewBox="0 0 40 37" version="1.1" xmlns:xlink="http://www.w3.org/1999/xlink" xmlns="http://www.w3.org/2000/svg">
  <desc>Created with Lunacy</desc>
  <path d="M18 3C16.038 1.50082 13.032 0 10 0C4.347 0 0 4.47466 0 10C0 17.1853 6.12 22.9014 16 31L16.0638 31.7231C16.8351 33.1888 19.1649 33.1888 19.9362 31.7231C20.1019 31.4081 20.1552 31.1434 20 31C29.88 22.9014 36 17.1853 36 10C36 4.47466 31.653 0 26 0C22.968 0 19.962 1.50082 18 3C16.038 1.50082 13.032 0 10 0C4.347 0 0 4.47466 0 10C0 17.1853 6.12 22.9014 16 31L16.0638 31.7231C16.8351 33.1888 19.1649 33.1888 19.9362 31.7231C20.1019 31.4081 20.1552 31.1434 20 31C29.88 22.9014 36 17.1853 36 10C36 4.47466 31.653 0 26 0C22.968 0 19.962 1.50082 18 3Z" transform="translate(2 2)" id="Лого" fill="#FFFFFF" stroke="none" />
</svg>