<?xml version="1.0" encoding="utf-8"?>
<svg width="30px" height="30px" viewBox="0 0 30 30" version="1.1" xmlns:xlink="http://www.w3.org/1999/xlink" xmlns="http://www.w3.org/2000/svg">
  <desc>Created with Lunacy</desc>
  <g id="Материально">
    <path d="M4.999 0L25.001 0C27.7619 0 30 2.23813 30 4.999L30 25.001C30 27.7619 27.7619 30 25.001 30L4.999 30C2.23813 30 0 27.7619 0 25.001L0 4.999C0 2.23813 2.23813 0 4.999 0L25.001 0C27.7619 0 30 2.23813 30 4.999L30 25.001C30 27.7619 27.7619 30 25.001 30L4.999 30C2.23813 30 0 27.7619 0 25.001L0 4.999C0 2.23813 2.23813 0 4.999 0Z" id="Rectangle-12-Copy-4" fill="#9C5D9A" stroke="none" />
    <g id="clothes" transform="translate(6 4)">
      <g id="Group">
        <path d="M7.96086 2.87358C6.72259 2.87358 5.6931 1.96324 5.50602 0.776699L4.03848 0.776699L4.03848 11.4613L6.41373 11.4613C6.6282 11.4613 6.80213 11.6352 6.80213 11.8496C6.80213 12.0641 6.62825 12.238 6.41378 12.238L3.65018 12.238C3.43571 12.238 3.26183 12.0641 3.26183 11.8496L3.26183 5.67684L2.4261 6.09471C2.37059 6.12241 2.31125 6.13572 2.25264 6.13572C2.12982 6.13572 2.01005 6.07736 1.93512 5.97126L0.0710984 3.33064C-0.0456653 3.16526 -0.0157365 2.93794 0.139759 2.80834L3.39982 0.0916505C3.46745 0.0345372 3.5547 0 3.65013 0L12.2715 0C12.3668 0 12.454 0.0344337 12.5215 0.0913916L15.782 2.80834C15.9375 2.93794 15.9673 3.16526 15.8506 3.33064L13.9866 5.97126C13.9117 6.07741 13.7919 6.13572 13.6691 6.13572C13.6104 6.13572 13.5511 6.12246 13.4956 6.09471L12.6598 5.67684L12.6598 6.72368C12.6598 6.93815 12.486 7.11203 12.2715 7.11203C12.057 7.11203 11.8831 6.93815 11.8831 6.72368L11.8831 0.776699L10.4157 0.776699C10.2286 1.96324 9.19912 2.87358 7.96086 2.87358ZM7.96086 2.09688C7.15232 2.09688 6.47364 1.53222 6.29722 0.776699L9.6245 0.776699C9.44808 1.53227 8.7694 2.09688 7.96086 2.09688ZM0.912315 3.17556L2.37717 5.25074L3.26178 4.80844L3.26178 1.21771L0.912315 3.17556ZM12.6598 4.80844L13.5444 5.25074L15.0093 3.17556L12.6598 1.21771L12.6598 4.80844Z" transform="translate(0.04789189 0)" id="Shape" fill="#FFFFFF" fill-rule="evenodd" stroke="none" />
        <path d="M0.38835 0C0.173877 0 0 0.173877 0 0.38835L0 14.0724C0 14.2869 0.173877 14.4608 0.38835 14.4608L3.37869 14.4608C3.58478 14.4608 3.75503 14.2998 3.76642 14.094L4.2924 4.63135L4.81838 14.094C4.82983 14.2998 5.00003 14.4608 5.20611 14.4608L8.19645 14.4608C8.41092 14.4608 8.5848 14.2869 8.5848 14.0724L8.5848 0.38835C8.58491 0.173825 8.41103 0 8.19656 0L0.38835 0ZM2.00129 0.776699L2.00129 1.64583L0.776699 1.64583L0.776699 0.776699L2.00129 0.776699ZM2.77799 0.776699L2.77799 1.64583L5.80691 1.64583L5.80691 0.776699L2.77799 0.776699ZM7.80821 1.64583L6.58361 1.64583L6.58361 0.776699L7.80821 0.776699L7.80821 1.64583ZM5.0457 4.18781L5.57359 13.684L7.80826 13.684L7.80826 2.42252L0.776751 2.42252L0.776751 13.684L3.01142 13.684L3.53926 4.18781C3.55065 3.98198 3.72091 3.821 3.92699 3.821L4.65797 3.821C4.86405 3.821 5.03425 3.98203 5.0457 4.18781Z" transform="translate(7.321476 7.563133)" id="Shape" fill="#FFFFFF" fill-rule="evenodd" stroke="none" />
      </g>
    </g>
  </g>
</svg>