<?xml version="1.0" encoding="utf-8"?>
<svg width="626px" height="513px" viewBox="0 0 626 513" version="1.1" xmlns:xlink="http://www.w3.org/1999/xlink" xmlns="http://www.w3.org/2000/svg">
  <desc>Created with Lunacy</desc>
  <defs>
    <linearGradient x1="0.2622764" y1="0.8273336" x2="1.83454525" y2="-0.6469433" id="gradient_1">
      <stop offset="0" stop-color="#E53656" />
      <stop offset="1" stop-color="#6082D8" />
    </linearGradient>
  </defs>
  <g id="Сердце-изометрия" transform="matrix(0.9945219 0.1045285 -0.1045285 0.9945219 66.29297 13.49525)">
    <g id="Heart\" transform="translate(126.7932 90.07993)">
      <path d="M90.8991 66.4523C66.4829 62.8945 40.9989 68.8539 23.2479 84.0333C-8.22453 112.385 -7.67704 159.499 24.4948 187.978C63.8622 220.211 130.72 211.684 232.012 199.377L256.464 196.505C258.703 196.244 260.587 194.754 260.671 193.196L261.597 176.113C265.383 105.794 267.897 59.7715 228.53 27.5385C196.358 -0.940527 146.536 -9.30834 115.064 11.8355C97.3126 24.5726 88.7227 45.4066 90.8991 66.4523C66.4829 62.8945 40.9989 68.8539 23.2479 84.0333C-8.22453 112.385 -7.67704 159.499 24.4948 187.978C63.8622 220.211 130.72 211.684 232.012 199.377L256.464 196.505C258.703 196.244 260.587 194.754 260.671 193.196L261.597 176.113C265.383 105.794 267.897 59.7715 228.53 27.5385C196.358 -0.940527 146.536 -9.30834 115.064 11.8355C97.3126 24.5726 88.7227 45.4066 90.8991 66.4523Z" transform="translate(0.3204378 13.35028)" id="Shape-Copy" fill="#B74256" stroke="none" />
      <path d="M90.8991 66.4523C66.4829 62.8945 40.9989 68.8539 23.2479 84.0333C-8.22453 112.385 -7.67704 159.499 24.4948 187.978C63.8622 220.211 130.72 211.684 232.012 199.377L256.464 196.505C258.703 196.244 260.587 194.754 260.671 193.196L261.597 176.113C265.383 105.794 267.897 59.7715 228.53 27.5385C196.358 -0.940527 146.536 -9.30834 115.064 11.8355C97.3126 24.5726 88.7227 45.4066 90.8991 66.4523C66.4829 62.8945 40.9989 68.8539 23.2479 84.0333C-8.22453 112.385 -7.67704 159.499 24.4948 187.978C63.8622 220.211 130.72 211.684 232.012 199.377L256.464 196.505C258.703 196.244 260.587 194.754 260.671 193.196L261.597 176.113C265.383 105.794 267.897 59.7715 228.53 27.5385C196.358 -0.940527 146.536 -9.30834 115.064 11.8355C97.3126 24.5726 88.7227 45.4066 90.8991 66.4523Z" transform="translate(0.3204378 0.2083629)" id="Shape" fill="url(#gradient_1)" stroke="none" />
    </g>
    <g id="Oval" transform="matrix(0.9848077 -0.1736482 0.1736482 0.9848077 93.29128 342.6105)">
      <path d="M25.6605 51.9914C39.8325 55.2376 51.3211 46.3805 51.3211 32.2086C51.3211 18.0367 39.8325 3.91653 25.6605 0.670355C11.4886 -2.57582 0 6.28126 0 20.4532C0 34.6251 11.4886 48.7453 25.6605 51.9914C39.8325 55.2376 51.3211 46.3805 51.3211 32.2086C51.3211 18.0367 39.8325 3.91653 25.6605 0.670355C11.4886 -2.57582 0 6.28126 0 20.4532C0 34.6251 11.4886 48.7453 25.6605 51.9914Z" transform="matrix(0.8829476 -0.4694716 0.4694716 0.8829476 0.5228567 29.52109)" id="Oval-3-Copy-3" fill="none" stroke="#B74256" stroke-width="10" />
      <path d="M25.6605 51.9914C39.8325 55.2376 51.3211 46.3805 51.3211 32.2086C51.3211 18.0367 39.8325 3.91653 25.6605 0.670355C11.4886 -2.57582 0 6.28126 0 20.4532C0 34.6251 11.4886 48.7453 25.6605 51.9914C39.8325 55.2376 51.3211 46.3805 51.3211 32.2086C51.3211 18.0367 39.8325 3.91653 25.6605 0.670355C11.4886 -2.57582 0 6.28126 0 20.4532C0 34.6251 11.4886 48.7453 25.6605 51.9914Z" transform="matrix(0.9205049 -0.3907311 0.3907311 0.9205049 3.138244 20.11601)" id="Oval-3-Copy-2" fill="none" stroke="#E73453" stroke-width="10" />
    </g>
    <g id="Oval" transform="matrix(0.9563048 -0.2923717 0.2923717 0.9563048 32.19045 234.0755)">
      <path d="M21.1322 42.8165C32.8032 45.4898 42.2644 38.1957 42.2644 26.5247C42.2644 14.8537 32.8032 3.22537 21.1322 0.552057C9.46121 -2.12126 0 5.1728 0 16.8438C0 28.5148 9.46121 40.1431 21.1322 42.8165C32.8032 45.4898 42.2644 38.1957 42.2644 26.5247C42.2644 14.8537 32.8032 3.22537 21.1322 0.552057C9.46121 -2.12126 0 5.1728 0 16.8438C0 28.5148 9.46121 40.1431 21.1322 42.8165Z" transform="matrix(0.8829476 -0.4694716 0.4694716 0.8829476 0.1024456 25.40421)" id="Oval-3-Copy" fill="#B74256" stroke="none" />
      <path d="M21.1322 42.8165C32.8032 45.4898 42.2644 38.1957 42.2644 26.5247C42.2644 14.8537 32.8032 3.22537 21.1322 0.552057C9.46121 -2.12126 0 5.1728 0 16.8438C0 28.5148 9.46121 40.1431 21.1322 42.8165C32.8032 45.4898 42.2644 38.1957 42.2644 26.5247C42.2644 14.8537 32.8032 3.22537 21.1322 0.552057C9.46121 -2.12126 0 5.1728 0 16.8438C0 28.5148 9.46121 40.1431 21.1322 42.8165Z" transform="matrix(0.9205049 -0.3907311 0.3907311 0.9205049 3.575659 16.95733)" id="Oval-3" fill="#E73453" stroke="none" />
    </g>
    <g id="Oval-Copy-2" transform="matrix(0.9563048 -0.2923717 0.2923717 0.9563048 410.8087 106.0347)">
      <path d="M21.1322 42.8165C32.8032 45.4898 42.2644 38.1957 42.2644 26.5247C42.2644 14.8537 32.8032 3.22537 21.1322 0.552057C9.46121 -2.12126 0 5.1728 0 16.8438C0 28.5148 9.46121 40.1431 21.1322 42.8165C32.8032 45.4898 42.2644 38.1957 42.2644 26.5247C42.2644 14.8537 32.8032 3.22537 21.1322 0.552057C9.46121 -2.12126 0 5.1728 0 16.8438C0 28.5148 9.46121 40.1431 21.1322 42.8165Z" transform="matrix(0.8829476 -0.4694716 0.4694716 0.8829476 0.1024456 25.40421)" id="Oval-3-Copy" fill="#B74256" stroke="none" />
      <path d="M21.1322 42.8165C32.8032 45.4898 42.2644 38.1957 42.2644 26.5247C42.2644 14.8537 32.8032 3.22537 21.1322 0.552057C9.46121 -2.12126 0 5.1728 0 16.8438C0 28.5148 9.46121 40.1431 21.1322 42.8165C32.8032 45.4898 42.2644 38.1957 42.2644 26.5247C42.2644 14.8537 32.8032 3.22537 21.1322 0.552057C9.46121 -2.12126 0 5.1728 0 16.8438C0 28.5148 9.46121 40.1431 21.1322 42.8165Z" transform="matrix(0.9205049 -0.3907311 0.3907311 0.9205049 3.575659 16.95733)" id="Oval-3" fill="url(#gradient_1)" stroke="none" />
    </g>
    <g id="Group-3" transform="translate(-5.684342E-13 296.1189)">
      <path d="M19 0L67.5414 0Q68.0281 0 68.5115 0.0221493Q68.9949 0.0442985 69.474 0.0885518Q69.9532 0.132805 70.4271 0.199072Q70.901 0.265339 71.3687 0.353485Q71.8364 0.441631 72.297 0.551475Q72.7576 0.66132 73.2101 0.792639Q73.6626 0.923958 74.106 1.07648Q74.5495 1.22901 74.983 1.40243Q75.4166 1.57585 75.8394 1.76982Q76.2621 1.96378 76.6732 2.17789Q77.0843 2.392 77.4829 2.62582Q77.8815 2.85964 78.2667 3.11269Q78.652 3.36574 79.0232 3.63751Q79.3943 3.90927 79.7506 4.1992Q80.107 4.48913 80.4477 4.79663Q80.7884 5.10413 81.1128 5.42857Q81.4373 5.75301 81.7448 6.09374Q82.0523 6.43446 82.3422 6.79077Q82.6321 7.14708 82.9039 7.51825Q83.1757 7.88941 83.4287 8.27468Q83.6818 8.65995 83.9156 9.05854Q84.1494 9.45713 84.3635 9.86821Q84.5776 10.2793 84.7716 10.7021Q84.9656 11.1248 85.139 11.5584Q85.3124 11.9919 85.4649 12.4354Q85.6175 12.8789 85.7488 13.3313Q85.8801 13.7838 85.9899 14.2444Q86.0998 14.705 86.1879 15.1727Q86.2761 15.6404 86.3423 16.1143Q86.4086 16.5882 86.4529 17.0674Q86.4971 17.5465 86.5193 18.0299Q86.5414 18.5133 86.5414 19L86.5414 23.2644Q86.5414 23.7511 86.5193 24.2345Q86.4971 24.7179 86.4529 25.197Q86.4086 25.6762 86.3423 26.1501Q86.2761 26.624 86.1879 27.0917Q86.0998 27.5594 85.9899 28.02Q85.8801 28.4806 85.7488 28.9331Q85.6175 29.3856 85.4649 29.829Q85.3124 30.2725 85.139 30.7061Q84.9656 31.1396 84.7716 31.5624Q84.5776 31.9851 84.3635 32.3962Q84.1494 32.8073 83.9156 33.2059Q83.6818 33.6045 83.4287 33.9897Q83.1757 34.375 82.9039 34.7462Q82.6321 35.1173 82.3422 35.4736Q82.0523 35.83 81.7448 36.1707Q81.4373 36.5114 81.1128 36.8358Q80.7884 37.1603 80.4477 37.4678Q80.107 37.7753 79.7506 38.0652Q79.3943 38.3551 79.0232 38.6269Q78.652 38.8987 78.2667 39.1517Q77.8815 39.4048 77.4829 39.6386Q77.0843 39.8724 76.6732 40.0865Q76.2621 40.3006 75.8394 40.4946Q75.4166 40.6886 74.983 40.862Q74.5495 41.0354 74.106 41.1879Q73.6626 41.3405 73.2101 41.4718Q72.7576 41.6031 72.297 41.7129Q71.8364 41.8228 71.3687 41.9109Q70.901 41.9991 70.4271 42.0653Q69.9532 42.1316 69.474 42.1759Q68.9949 42.2201 68.5115 42.2423Q68.0281 42.2644 67.5414 42.2644L19 42.2644Q18.5133 42.2644 18.0299 42.2423Q17.5465 42.2201 17.0674 42.1759Q16.5882 42.1316 16.1143 42.0653Q15.6404 41.9991 15.1727 41.9109Q14.705 41.8228 14.2444 41.7129Q13.7838 41.6031 13.3313 41.4718Q12.8789 41.3405 12.4354 41.1879Q11.9919 41.0354 11.5584 40.862Q11.1248 40.6886 10.7021 40.4946Q10.2793 40.3006 9.86821 40.0865Q9.45713 39.8724 9.05854 39.6386Q8.65995 39.4048 8.27468 39.1517Q7.88941 38.8987 7.51825 38.6269Q7.14708 38.3551 6.79077 38.0652Q6.43446 37.7753 6.09374 37.4678Q5.75301 37.1603 5.42857 36.8358Q5.10413 36.5114 4.79663 36.1707Q4.48913 35.83 4.1992 35.4736Q3.90927 35.1173 3.63751 34.7462Q3.36574 34.375 3.11269 33.9897Q2.85964 33.6045 2.62582 33.2059Q2.392 32.8073 2.17789 32.3962Q1.96378 31.9851 1.76982 31.5624Q1.57585 31.1396 1.40243 30.7061Q1.22901 30.2725 1.07648 29.829Q0.923958 29.3856 0.792639 28.9331Q0.66132 28.4806 0.551475 28.02Q0.441631 27.5594 0.353485 27.0917Q0.265339 26.624 0.199072 26.1501Q0.132805 25.6762 0.0885518 25.197Q0.0442985 24.7179 0.0221493 24.2345Q0 23.7511 0 23.2644L0 19Q0 18.5133 0.0221493 18.0299Q0.0442985 17.5465 0.0885518 17.0674Q0.132805 16.5882 0.199072 16.1143Q0.265339 15.6404 0.353485 15.1727Q0.441631 14.705 0.551475 14.2444Q0.66132 13.7838 0.792639 13.3313Q0.923958 12.8789 1.07648 12.4354Q1.22901 11.9919 1.40243 11.5584Q1.57585 11.1248 1.76982 10.7021Q1.96378 10.2793 2.17789 9.86821Q2.392 9.45713 2.62582 9.05854Q2.85964 8.65995 3.11269 8.27468Q3.36574 7.88941 3.63751 7.51825Q3.90927 7.14708 4.1992 6.79077Q4.48913 6.43446 4.79663 6.09374Q5.10413 5.75301 5.42857 5.42857Q5.75301 5.10413 6.09374 4.79663Q6.43446 4.48913 6.79077 4.1992Q7.14708 3.90927 7.51825 3.63751Q7.88941 3.36574 8.27468 3.11269Q8.65995 2.85964 9.05854 2.62582Q9.45713 2.392 9.86821 2.17789Q10.2793 1.96378 10.7021 1.76982Q11.1248 1.57585 11.5584 1.40243Q11.9919 1.22901 12.4354 1.07648Q12.8789 0.923958 13.3313 0.792639Q13.7838 0.66132 14.2444 0.551475Q14.705 0.441631 15.1727 0.353485Q15.6404 0.265339 16.1143 0.199072Q16.5882 0.132805 17.0674 0.0885518Q17.5465 0.0442985 18.0299 0.0221493Q18.5133 0 19 0L67.5414 0Q68.0281 0 68.5115 0.0221493Q68.9949 0.0442985 69.474 0.0885518Q69.9532 0.132805 70.4271 0.199072Q70.901 0.265339 71.3687 0.353485Q71.8364 0.441631 72.297 0.551475Q72.7576 0.66132 73.2101 0.792639Q73.6626 0.923958 74.106 1.07648Q74.5495 1.22901 74.983 1.40243Q75.4166 1.57585 75.8394 1.76982Q76.2621 1.96378 76.6732 2.17789Q77.0843 2.392 77.4829 2.62582Q77.8815 2.85964 78.2667 3.11269Q78.652 3.36574 79.0232 3.63751Q79.3943 3.90927 79.7506 4.1992Q80.107 4.48913 80.4477 4.79663Q80.7884 5.10413 81.1128 5.42857Q81.4373 5.75301 81.7448 6.09374Q82.0523 6.43446 82.3422 6.79077Q82.6321 7.14708 82.9039 7.51825Q83.1757 7.88941 83.4287 8.27468Q83.6818 8.65995 83.9156 9.05854Q84.1494 9.45713 84.3635 9.86821Q84.5776 10.2793 84.7716 10.7021Q84.9656 11.1248 85.139 11.5584Q85.3124 11.9919 85.4649 12.4354Q85.6175 12.8789 85.7488 13.3313Q85.8801 13.7838 85.9899 14.2444Q86.0998 14.705 86.1879 15.1727Q86.2761 15.6404 86.3423 16.1143Q86.4086 16.5882 86.4529 17.0674Q86.4971 17.5465 86.5193 18.0299Q86.5414 18.5133 86.5414 19L86.5414 23.2644Q86.5414 23.7511 86.5193 24.2345Q86.4971 24.7179 86.4529 25.197Q86.4086 25.6762 86.3423 26.1501Q86.2761 26.624 86.1879 27.0917Q86.0998 27.5594 85.9899 28.02Q85.8801 28.4806 85.7488 28.9331Q85.6175 29.3856 85.4649 29.829Q85.3124 30.2725 85.139 30.7061Q84.9656 31.1396 84.7716 31.5624Q84.5776 31.9851 84.3635 32.3962Q84.1494 32.8073 83.9156 33.2059Q83.6818 33.6045 83.4287 33.9897Q83.1757 34.375 82.9039 34.7462Q82.6321 35.1173 82.3422 35.4736Q82.0523 35.83 81.7448 36.1707Q81.4373 36.5114 81.1128 36.8358Q80.7884 37.1603 80.4477 37.4678Q80.107 37.7753 79.7506 38.0652Q79.3943 38.3551 79.0232 38.6269Q78.652 38.8987 78.2667 39.1517Q77.8815 39.4048 77.4829 39.6386Q77.0843 39.8724 76.6732 40.0865Q76.2621 40.3006 75.8394 40.4946Q75.4166 40.6886 74.983 40.862Q74.5495 41.0354 74.106 41.1879Q73.6626 41.3405 73.2101 41.4718Q72.7576 41.6031 72.297 41.7129Q71.8364 41.8228 71.3687 41.9109Q70.901 41.9991 70.4271 42.0653Q69.9532 42.1316 69.474 42.1759Q68.9949 42.2201 68.5115 42.2423Q68.0281 42.2644 67.5414 42.2644L19 42.2644Q18.5133 42.2644 18.0299 42.2423Q17.5465 42.2201 17.0674 42.1759Q16.5882 42.1316 16.1143 42.0653Q15.6404 41.9991 15.1727 41.9109Q14.705 41.8228 14.2444 41.7129Q13.7838 41.6031 13.3313 41.4718Q12.8789 41.3405 12.4354 41.1879Q11.9919 41.0354 11.5584 40.862Q11.1248 40.6886 10.7021 40.4946Q10.2793 40.3006 9.86821 40.0865Q9.45713 39.8724 9.05854 39.6386Q8.65995 39.4048 8.27468 39.1517Q7.88941 38.8987 7.51825 38.6269Q7.14708 38.3551 6.79077 38.0652Q6.43446 37.7753 6.09374 37.4678Q5.75301 37.1603 5.42857 36.8358Q5.10413 36.5114 4.79663 36.1707Q4.48913 35.83 4.1992 35.4736Q3.90927 35.1173 3.63751 34.7462Q3.36574 34.375 3.11269 33.9897Q2.85964 33.6045 2.62582 33.2059Q2.392 32.8073 2.17789 32.3962Q1.96378 31.9851 1.76982 31.5624Q1.57585 31.1396 1.40243 30.7061Q1.22901 30.2725 1.07648 29.829Q0.923958 29.3856 0.792639 28.9331Q0.66132 28.4806 0.551475 28.02Q0.441631 27.5594 0.353485 27.0917Q0.265339 26.624 0.199072 26.1501Q0.132805 25.6762 0.0885518 25.197Q0.0442985 24.7179 0.0221493 24.2345Q0 23.7511 0 23.2644L0 19Q0 18.5133 0.0221493 18.0299Q0.0442985 17.5465 0.0885518 17.0674Q0.132805 16.5882 0.199072 16.1143Q0.265339 15.6404 0.353485 15.1727Q0.441631 14.705 0.551475 14.2444Q0.66132 13.7838 0.792639 13.3313Q0.923958 12.8789 1.07648 12.4354Q1.22901 11.9919 1.40243 11.5584Q1.57585 11.1248 1.76982 10.7021Q1.96378 10.2793 2.17789 9.86821Q2.392 9.45713 2.62582 9.05854Q2.85964 8.65995 3.11269 8.27468Q3.36574 7.88941 3.63751 7.51825Q3.90927 7.14708 4.1992 6.79077Q4.48913 6.43446 4.79663 6.09374Q5.10413 5.75301 5.42857 5.42857Q5.75301 5.10413 6.09374 4.79663Q6.43446 4.48913 6.79077 4.1992Q7.14708 3.90927 7.51825 3.63751Q7.88941 3.36574 8.27468 3.11269Q8.65995 2.85964 9.05854 2.62582Q9.45713 2.392 9.86821 2.17789Q10.2793 1.96378 10.7021 1.76982Q11.1248 1.57585 11.5584 1.40243Q11.9919 1.22901 12.4354 1.07648Q12.8789 0.923958 13.3313 0.792639Q13.7838 0.66132 14.2444 0.551475Q14.705 0.441631 15.1727 0.353485Q15.6404 0.265339 16.1143 0.199072Q16.5882 0.132805 17.0674 0.0885518Q17.5465 0.0442985 18.0299 0.0221493Q18.5133 0 19 0Z" transform="matrix(0.8191521 -0.5735765 0.5735765 0.8191521 0.01572847 57.50676)" id="Rectangle-3-Copy" fill="#B74256" stroke="none" />
      <path d="M19 0L67.5414 0Q68.0281 0 68.5115 0.0221493Q68.9949 0.0442985 69.474 0.0885518Q69.9532 0.132805 70.4271 0.199072Q70.901 0.265339 71.3687 0.353485Q71.8364 0.441631 72.297 0.551475Q72.7576 0.66132 73.2101 0.792639Q73.6626 0.923958 74.106 1.07648Q74.5495 1.22901 74.983 1.40243Q75.4166 1.57585 75.8394 1.76982Q76.2621 1.96378 76.6732 2.17789Q77.0843 2.392 77.4829 2.62582Q77.8815 2.85964 78.2667 3.11269Q78.652 3.36574 79.0232 3.63751Q79.3943 3.90927 79.7506 4.1992Q80.107 4.48913 80.4477 4.79663Q80.7884 5.10413 81.1128 5.42857Q81.4373 5.75301 81.7448 6.09374Q82.0523 6.43446 82.3422 6.79077Q82.6321 7.14708 82.9039 7.51825Q83.1757 7.88941 83.4287 8.27468Q83.6818 8.65995 83.9156 9.05854Q84.1494 9.45713 84.3635 9.86821Q84.5776 10.2793 84.7716 10.7021Q84.9656 11.1248 85.139 11.5584Q85.3124 11.9919 85.4649 12.4354Q85.6175 12.8789 85.7488 13.3313Q85.8801 13.7838 85.9899 14.2444Q86.0998 14.705 86.1879 15.1727Q86.2761 15.6404 86.3423 16.1143Q86.4086 16.5882 86.4529 17.0674Q86.4971 17.5465 86.5193 18.0299Q86.5414 18.5133 86.5414 19L86.5414 23.2644Q86.5414 23.7511 86.5193 24.2345Q86.4971 24.7179 86.4529 25.197Q86.4086 25.6762 86.3423 26.1501Q86.2761 26.624 86.1879 27.0917Q86.0998 27.5594 85.9899 28.02Q85.8801 28.4806 85.7488 28.9331Q85.6175 29.3856 85.4649 29.829Q85.3124 30.2725 85.139 30.7061Q84.9656 31.1396 84.7716 31.5624Q84.5776 31.9851 84.3635 32.3962Q84.1494 32.8073 83.9156 33.2059Q83.6818 33.6045 83.4287 33.9897Q83.1757 34.375 82.9039 34.7462Q82.6321 35.1173 82.3422 35.4736Q82.0523 35.83 81.7448 36.1707Q81.4373 36.5114 81.1128 36.8358Q80.7884 37.1603 80.4477 37.4678Q80.107 37.7753 79.7506 38.0652Q79.3943 38.3551 79.0232 38.6269Q78.652 38.8987 78.2667 39.1517Q77.8815 39.4048 77.4829 39.6386Q77.0843 39.8724 76.6732 40.0865Q76.2621 40.3006 75.8394 40.4946Q75.4166 40.6886 74.983 40.862Q74.5495 41.0354 74.106 41.1879Q73.6626 41.3405 73.2101 41.4718Q72.7576 41.6031 72.297 41.7129Q71.8364 41.8228 71.3687 41.9109Q70.901 41.9991 70.4271 42.0653Q69.9532 42.1316 69.474 42.1759Q68.9949 42.2201 68.5115 42.2423Q68.0281 42.2644 67.5414 42.2644L19 42.2644Q18.5133 42.2644 18.0299 42.2423Q17.5465 42.2201 17.0674 42.1759Q16.5882 42.1316 16.1143 42.0653Q15.6404 41.9991 15.1727 41.9109Q14.705 41.8228 14.2444 41.7129Q13.7838 41.6031 13.3313 41.4718Q12.8789 41.3405 12.4354 41.1879Q11.9919 41.0354 11.5584 40.862Q11.1248 40.6886 10.7021 40.4946Q10.2793 40.3006 9.86821 40.0865Q9.45713 39.8724 9.05854 39.6386Q8.65995 39.4048 8.27468 39.1517Q7.88941 38.8987 7.51825 38.6269Q7.14708 38.3551 6.79077 38.0652Q6.43446 37.7753 6.09374 37.4678Q5.75301 37.1603 5.42857 36.8358Q5.10413 36.5114 4.79663 36.1707Q4.48913 35.83 4.1992 35.4736Q3.90927 35.1173 3.63751 34.7462Q3.36574 34.375 3.11269 33.9897Q2.85964 33.6045 2.62582 33.2059Q2.392 32.8073 2.17789 32.3962Q1.96378 31.9851 1.76982 31.5624Q1.57585 31.1396 1.40243 30.7061Q1.22901 30.2725 1.07648 29.829Q0.923958 29.3856 0.792639 28.9331Q0.66132 28.4806 0.551475 28.02Q0.441631 27.5594 0.353485 27.0917Q0.265339 26.624 0.199072 26.1501Q0.132805 25.6762 0.0885518 25.197Q0.0442985 24.7179 0.0221493 24.2345Q0 23.7511 0 23.2644L0 19Q0 18.5133 0.0221493 18.0299Q0.0442985 17.5465 0.0885518 17.0674Q0.132805 16.5882 0.199072 16.1143Q0.265339 15.6404 0.353485 15.1727Q0.441631 14.705 0.551475 14.2444Q0.66132 13.7838 0.792639 13.3313Q0.923958 12.8789 1.07648 12.4354Q1.22901 11.9919 1.40243 11.5584Q1.57585 11.1248 1.76982 10.7021Q1.96378 10.2793 2.17789 9.86821Q2.392 9.45713 2.62582 9.05854Q2.85964 8.65995 3.11269 8.27468Q3.36574 7.88941 3.63751 7.51825Q3.90927 7.14708 4.1992 6.79077Q4.48913 6.43446 4.79663 6.09374Q5.10413 5.75301 5.42857 5.42857Q5.75301 5.10413 6.09374 4.79663Q6.43446 4.48913 6.79077 4.1992Q7.14708 3.90927 7.51825 3.63751Q7.88941 3.36574 8.27468 3.11269Q8.65995 2.85964 9.05854 2.62582Q9.45713 2.392 9.86821 2.17789Q10.2793 1.96378 10.7021 1.76982Q11.1248 1.57585 11.5584 1.40243Q11.9919 1.22901 12.4354 1.07648Q12.8789 0.923958 13.3313 0.792639Q13.7838 0.66132 14.2444 0.551475Q14.705 0.441631 15.1727 0.353485Q15.6404 0.265339 16.1143 0.199072Q16.5882 0.132805 17.0674 0.0885518Q17.5465 0.0442985 18.0299 0.0221493Q18.5133 0 19 0L67.5414 0Q68.0281 0 68.5115 0.0221493Q68.9949 0.0442985 69.474 0.0885518Q69.9532 0.132805 70.4271 0.199072Q70.901 0.265339 71.3687 0.353485Q71.8364 0.441631 72.297 0.551475Q72.7576 0.66132 73.2101 0.792639Q73.6626 0.923958 74.106 1.07648Q74.5495 1.22901 74.983 1.40243Q75.4166 1.57585 75.8394 1.76982Q76.2621 1.96378 76.6732 2.17789Q77.0843 2.392 77.4829 2.62582Q77.8815 2.85964 78.2667 3.11269Q78.652 3.36574 79.0232 3.63751Q79.3943 3.90927 79.7506 4.1992Q80.107 4.48913 80.4477 4.79663Q80.7884 5.10413 81.1128 5.42857Q81.4373 5.75301 81.7448 6.09374Q82.0523 6.43446 82.3422 6.79077Q82.6321 7.14708 82.9039 7.51825Q83.1757 7.88941 83.4287 8.27468Q83.6818 8.65995 83.9156 9.05854Q84.1494 9.45713 84.3635 9.86821Q84.5776 10.2793 84.7716 10.7021Q84.9656 11.1248 85.139 11.5584Q85.3124 11.9919 85.4649 12.4354Q85.6175 12.8789 85.7488 13.3313Q85.8801 13.7838 85.9899 14.2444Q86.0998 14.705 86.1879 15.1727Q86.2761 15.6404 86.3423 16.1143Q86.4086 16.5882 86.4529 17.0674Q86.4971 17.5465 86.5193 18.0299Q86.5414 18.5133 86.5414 19L86.5414 23.2644Q86.5414 23.7511 86.5193 24.2345Q86.4971 24.7179 86.4529 25.197Q86.4086 25.6762 86.3423 26.1501Q86.2761 26.624 86.1879 27.0917Q86.0998 27.5594 85.9899 28.02Q85.8801 28.4806 85.7488 28.9331Q85.6175 29.3856 85.4649 29.829Q85.3124 30.2725 85.139 30.7061Q84.9656 31.1396 84.7716 31.5624Q84.5776 31.9851 84.3635 32.3962Q84.1494 32.8073 83.9156 33.2059Q83.6818 33.6045 83.4287 33.9897Q83.1757 34.375 82.9039 34.7462Q82.6321 35.1173 82.3422 35.4736Q82.0523 35.83 81.7448 36.1707Q81.4373 36.5114 81.1128 36.8358Q80.7884 37.1603 80.4477 37.4678Q80.107 37.7753 79.7506 38.0652Q79.3943 38.3551 79.0232 38.6269Q78.652 38.8987 78.2667 39.1517Q77.8815 39.4048 77.4829 39.6386Q77.0843 39.8724 76.6732 40.0865Q76.2621 40.3006 75.8394 40.4946Q75.4166 40.6886 74.983 40.862Q74.5495 41.0354 74.106 41.1879Q73.6626 41.3405 73.2101 41.4718Q72.7576 41.6031 72.297 41.7129Q71.8364 41.8228 71.3687 41.9109Q70.901 41.9991 70.4271 42.0653Q69.9532 42.1316 69.474 42.1759Q68.9949 42.2201 68.5115 42.2423Q68.0281 42.2644 67.5414 42.2644L19 42.2644Q18.5133 42.2644 18.0299 42.2423Q17.5465 42.2201 17.0674 42.1759Q16.5882 42.1316 16.1143 42.0653Q15.6404 41.9991 15.1727 41.9109Q14.705 41.8228 14.2444 41.7129Q13.7838 41.6031 13.3313 41.4718Q12.8789 41.3405 12.4354 41.1879Q11.9919 41.0354 11.5584 40.862Q11.1248 40.6886 10.7021 40.4946Q10.2793 40.3006 9.86821 40.0865Q9.45713 39.8724 9.05854 39.6386Q8.65995 39.4048 8.27468 39.1517Q7.88941 38.8987 7.51825 38.6269Q7.14708 38.3551 6.79077 38.0652Q6.43446 37.7753 6.09374 37.4678Q5.75301 37.1603 5.42857 36.8358Q5.10413 36.5114 4.79663 36.1707Q4.48913 35.83 4.1992 35.4736Q3.90927 35.1173 3.63751 34.7462Q3.36574 34.375 3.11269 33.9897Q2.85964 33.6045 2.62582 33.2059Q2.392 32.8073 2.17789 32.3962Q1.96378 31.9851 1.76982 31.5624Q1.57585 31.1396 1.40243 30.7061Q1.22901 30.2725 1.07648 29.829Q0.923958 29.3856 0.792639 28.9331Q0.66132 28.4806 0.551475 28.02Q0.441631 27.5594 0.353485 27.0917Q0.265339 26.624 0.199072 26.1501Q0.132805 25.6762 0.0885518 25.197Q0.0442985 24.7179 0.0221493 24.2345Q0 23.7511 0 23.2644L0 19Q0 18.5133 0.0221493 18.0299Q0.0442985 17.5465 0.0885518 17.0674Q0.132805 16.5882 0.199072 16.1143Q0.265339 15.6404 0.353485 15.1727Q0.441631 14.705 0.551475 14.2444Q0.66132 13.7838 0.792639 13.3313Q0.923958 12.8789 1.07648 12.4354Q1.22901 11.9919 1.40243 11.5584Q1.57585 11.1248 1.76982 10.7021Q1.96378 10.2793 2.17789 9.86821Q2.392 9.45713 2.62582 9.05854Q2.85964 8.65995 3.11269 8.27468Q3.36574 7.88941 3.63751 7.51825Q3.90927 7.14708 4.1992 6.79077Q4.48913 6.43446 4.79663 6.09374Q5.10413 5.75301 5.42857 5.42857Q5.75301 5.10413 6.09374 4.79663Q6.43446 4.48913 6.79077 4.1992Q7.14708 3.90927 7.51825 3.63751Q7.88941 3.36574 8.27468 3.11269Q8.65995 2.85964 9.05854 2.62582Q9.45713 2.392 9.86821 2.17789Q10.2793 1.96378 10.7021 1.76982Q11.1248 1.57585 11.5584 1.40243Q11.9919 1.22901 12.4354 1.07648Q12.8789 0.923958 13.3313 0.792639Q13.7838 0.66132 14.2444 0.551475Q14.705 0.441631 15.1727 0.353485Q15.6404 0.265339 16.1143 0.199072Q16.5882 0.132805 17.0674 0.0885518Q17.5465 0.0442985 18.0299 0.0221493Q18.5133 0 19 0Z" transform="matrix(0.8191521 -0.5735765 0.5735765 0.8191521 1.072339 50.11049)" id="Rectangle-3" fill="#E73453" stroke="none" />
    </g>
    <g id="Group-3-Copy-2" transform="translate(401.5119 179.8918)">
      <path d="M19 0L67.5414 0Q68.0281 0 68.5115 0.0221493Q68.9949 0.0442985 69.474 0.0885518Q69.9532 0.132805 70.4271 0.199072Q70.901 0.265339 71.3687 0.353485Q71.8364 0.441631 72.297 0.551475Q72.7576 0.66132 73.2101 0.792639Q73.6626 0.923958 74.106 1.07648Q74.5495 1.22901 74.983 1.40243Q75.4166 1.57585 75.8394 1.76982Q76.2621 1.96378 76.6732 2.17789Q77.0843 2.392 77.4829 2.62582Q77.8815 2.85964 78.2667 3.11269Q78.652 3.36574 79.0232 3.63751Q79.3943 3.90927 79.7506 4.1992Q80.107 4.48913 80.4477 4.79663Q80.7884 5.10413 81.1128 5.42857Q81.4373 5.75301 81.7448 6.09374Q82.0523 6.43446 82.3422 6.79077Q82.6321 7.14708 82.9039 7.51825Q83.1757 7.88941 83.4287 8.27468Q83.6818 8.65995 83.9156 9.05854Q84.1494 9.45713 84.3635 9.86821Q84.5776 10.2793 84.7716 10.7021Q84.9656 11.1248 85.139 11.5584Q85.3124 11.9919 85.4649 12.4354Q85.6175 12.8789 85.7488 13.3313Q85.8801 13.7838 85.9899 14.2444Q86.0998 14.705 86.1879 15.1727Q86.2761 15.6404 86.3423 16.1143Q86.4086 16.5882 86.4529 17.0674Q86.4971 17.5465 86.5193 18.0299Q86.5414 18.5133 86.5414 19L86.5414 23.2644Q86.5414 23.7511 86.5193 24.2345Q86.4971 24.7179 86.4529 25.197Q86.4086 25.6762 86.3423 26.1501Q86.2761 26.624 86.1879 27.0917Q86.0998 27.5594 85.9899 28.02Q85.8801 28.4806 85.7488 28.9331Q85.6175 29.3856 85.4649 29.829Q85.3124 30.2725 85.139 30.7061Q84.9656 31.1396 84.7716 31.5624Q84.5776 31.9851 84.3635 32.3962Q84.1494 32.8073 83.9156 33.2059Q83.6818 33.6045 83.4287 33.9897Q83.1757 34.375 82.9039 34.7462Q82.6321 35.1173 82.3422 35.4736Q82.0523 35.83 81.7448 36.1707Q81.4373 36.5114 81.1128 36.8358Q80.7884 37.1603 80.4477 37.4678Q80.107 37.7753 79.7506 38.0652Q79.3943 38.3551 79.0232 38.6269Q78.652 38.8987 78.2667 39.1517Q77.8815 39.4048 77.4829 39.6386Q77.0843 39.8724 76.6732 40.0865Q76.2621 40.3006 75.8394 40.4946Q75.4166 40.6886 74.983 40.862Q74.5495 41.0354 74.106 41.1879Q73.6626 41.3405 73.2101 41.4718Q72.7576 41.6031 72.297 41.7129Q71.8364 41.8228 71.3687 41.9109Q70.901 41.9991 70.4271 42.0653Q69.9532 42.1316 69.474 42.1759Q68.9949 42.2201 68.5115 42.2423Q68.0281 42.2644 67.5414 42.2644L19 42.2644Q18.5133 42.2644 18.0299 42.2423Q17.5465 42.2201 17.0674 42.1759Q16.5882 42.1316 16.1143 42.0653Q15.6404 41.9991 15.1727 41.9109Q14.705 41.8228 14.2444 41.7129Q13.7838 41.6031 13.3313 41.4718Q12.8789 41.3405 12.4354 41.1879Q11.9919 41.0354 11.5584 40.862Q11.1248 40.6886 10.7021 40.4946Q10.2793 40.3006 9.86821 40.0865Q9.45713 39.8724 9.05854 39.6386Q8.65995 39.4048 8.27468 39.1517Q7.88941 38.8987 7.51825 38.6269Q7.14708 38.3551 6.79077 38.0652Q6.43446 37.7753 6.09374 37.4678Q5.75301 37.1603 5.42857 36.8358Q5.10413 36.5114 4.79663 36.1707Q4.48913 35.83 4.1992 35.4736Q3.90927 35.1173 3.63751 34.7462Q3.36574 34.375 3.11269 33.9897Q2.85964 33.6045 2.62582 33.2059Q2.392 32.8073 2.17789 32.3962Q1.96378 31.9851 1.76982 31.5624Q1.57585 31.1396 1.40243 30.7061Q1.22901 30.2725 1.07648 29.829Q0.923958 29.3856 0.792639 28.9331Q0.66132 28.4806 0.551475 28.02Q0.441631 27.5594 0.353485 27.0917Q0.265339 26.624 0.199072 26.1501Q0.132805 25.6762 0.0885518 25.197Q0.0442985 24.7179 0.0221493 24.2345Q0 23.7511 0 23.2644L0 19Q0 18.5133 0.0221493 18.0299Q0.0442985 17.5465 0.0885518 17.0674Q0.132805 16.5882 0.199072 16.1143Q0.265339 15.6404 0.353485 15.1727Q0.441631 14.705 0.551475 14.2444Q0.66132 13.7838 0.792639 13.3313Q0.923958 12.8789 1.07648 12.4354Q1.22901 11.9919 1.40243 11.5584Q1.57585 11.1248 1.76982 10.7021Q1.96378 10.2793 2.17789 9.86821Q2.392 9.45713 2.62582 9.05854Q2.85964 8.65995 3.11269 8.27468Q3.36574 7.88941 3.63751 7.51825Q3.90927 7.14708 4.1992 6.79077Q4.48913 6.43446 4.79663 6.09374Q5.10413 5.75301 5.42857 5.42857Q5.75301 5.10413 6.09374 4.79663Q6.43446 4.48913 6.79077 4.1992Q7.14708 3.90927 7.51825 3.63751Q7.88941 3.36574 8.27468 3.11269Q8.65995 2.85964 9.05854 2.62582Q9.45713 2.392 9.86821 2.17789Q10.2793 1.96378 10.7021 1.76982Q11.1248 1.57585 11.5584 1.40243Q11.9919 1.22901 12.4354 1.07648Q12.8789 0.923958 13.3313 0.792639Q13.7838 0.66132 14.2444 0.551475Q14.705 0.441631 15.1727 0.353485Q15.6404 0.265339 16.1143 0.199072Q16.5882 0.132805 17.0674 0.0885518Q17.5465 0.0442985 18.0299 0.0221493Q18.5133 0 19 0L67.5414 0Q68.0281 0 68.5115 0.0221493Q68.9949 0.0442985 69.474 0.0885518Q69.9532 0.132805 70.4271 0.199072Q70.901 0.265339 71.3687 0.353485Q71.8364 0.441631 72.297 0.551475Q72.7576 0.66132 73.2101 0.792639Q73.6626 0.923958 74.106 1.07648Q74.5495 1.22901 74.983 1.40243Q75.4166 1.57585 75.8394 1.76982Q76.2621 1.96378 76.6732 2.17789Q77.0843 2.392 77.4829 2.62582Q77.8815 2.85964 78.2667 3.11269Q78.652 3.36574 79.0232 3.63751Q79.3943 3.90927 79.7506 4.1992Q80.107 4.48913 80.4477 4.79663Q80.7884 5.10413 81.1128 5.42857Q81.4373 5.75301 81.7448 6.09374Q82.0523 6.43446 82.3422 6.79077Q82.6321 7.14708 82.9039 7.51825Q83.1757 7.88941 83.4287 8.27468Q83.6818 8.65995 83.9156 9.05854Q84.1494 9.45713 84.3635 9.86821Q84.5776 10.2793 84.7716 10.7021Q84.9656 11.1248 85.139 11.5584Q85.3124 11.9919 85.4649 12.4354Q85.6175 12.8789 85.7488 13.3313Q85.8801 13.7838 85.9899 14.2444Q86.0998 14.705 86.1879 15.1727Q86.2761 15.6404 86.3423 16.1143Q86.4086 16.5882 86.4529 17.0674Q86.4971 17.5465 86.5193 18.0299Q86.5414 18.5133 86.5414 19L86.5414 23.2644Q86.5414 23.7511 86.5193 24.2345Q86.4971 24.7179 86.4529 25.197Q86.4086 25.6762 86.3423 26.1501Q86.2761 26.624 86.1879 27.0917Q86.0998 27.5594 85.9899 28.02Q85.8801 28.4806 85.7488 28.9331Q85.6175 29.3856 85.4649 29.829Q85.3124 30.2725 85.139 30.7061Q84.9656 31.1396 84.7716 31.5624Q84.5776 31.9851 84.3635 32.3962Q84.1494 32.8073 83.9156 33.2059Q83.6818 33.6045 83.4287 33.9897Q83.1757 34.375 82.9039 34.7462Q82.6321 35.1173 82.3422 35.4736Q82.0523 35.83 81.7448 36.1707Q81.4373 36.5114 81.1128 36.8358Q80.7884 37.1603 80.4477 37.4678Q80.107 37.7753 79.7506 38.0652Q79.3943 38.3551 79.0232 38.6269Q78.652 38.8987 78.2667 39.1517Q77.8815 39.4048 77.4829 39.6386Q77.0843 39.8724 76.6732 40.0865Q76.2621 40.3006 75.8394 40.4946Q75.4166 40.6886 74.983 40.862Q74.5495 41.0354 74.106 41.1879Q73.6626 41.3405 73.2101 41.4718Q72.7576 41.6031 72.297 41.7129Q71.8364 41.8228 71.3687 41.9109Q70.901 41.9991 70.4271 42.0653Q69.9532 42.1316 69.474 42.1759Q68.9949 42.2201 68.5115 42.2423Q68.0281 42.2644 67.5414 42.2644L19 42.2644Q18.5133 42.2644 18.0299 42.2423Q17.5465 42.2201 17.0674 42.1759Q16.5882 42.1316 16.1143 42.0653Q15.6404 41.9991 15.1727 41.9109Q14.705 41.8228 14.2444 41.7129Q13.7838 41.6031 13.3313 41.4718Q12.8789 41.3405 12.4354 41.1879Q11.9919 41.0354 11.5584 40.862Q11.1248 40.6886 10.7021 40.4946Q10.2793 40.3006 9.86821 40.0865Q9.45713 39.8724 9.05854 39.6386Q8.65995 39.4048 8.27468 39.1517Q7.88941 38.8987 7.51825 38.6269Q7.14708 38.3551 6.79077 38.0652Q6.43446 37.7753 6.09374 37.4678Q5.75301 37.1603 5.42857 36.8358Q5.10413 36.5114 4.79663 36.1707Q4.48913 35.83 4.1992 35.4736Q3.90927 35.1173 3.63751 34.7462Q3.36574 34.375 3.11269 33.9897Q2.85964 33.6045 2.62582 33.2059Q2.392 32.8073 2.17789 32.3962Q1.96378 31.9851 1.76982 31.5624Q1.57585 31.1396 1.40243 30.7061Q1.22901 30.2725 1.07648 29.829Q0.923958 29.3856 0.792639 28.9331Q0.66132 28.4806 0.551475 28.02Q0.441631 27.5594 0.353485 27.0917Q0.265339 26.624 0.199072 26.1501Q0.132805 25.6762 0.0885518 25.197Q0.0442985 24.7179 0.0221493 24.2345Q0 23.7511 0 23.2644L0 19Q0 18.5133 0.0221493 18.0299Q0.0442985 17.5465 0.0885518 17.0674Q0.132805 16.5882 0.199072 16.1143Q0.265339 15.6404 0.353485 15.1727Q0.441631 14.705 0.551475 14.2444Q0.66132 13.7838 0.792639 13.3313Q0.923958 12.8789 1.07648 12.4354Q1.22901 11.9919 1.40243 11.5584Q1.57585 11.1248 1.76982 10.7021Q1.96378 10.2793 2.17789 9.86821Q2.392 9.45713 2.62582 9.05854Q2.85964 8.65995 3.11269 8.27468Q3.36574 7.88941 3.63751 7.51825Q3.90927 7.14708 4.1992 6.79077Q4.48913 6.43446 4.79663 6.09374Q5.10413 5.75301 5.42857 5.42857Q5.75301 5.10413 6.09374 4.79663Q6.43446 4.48913 6.79077 4.1992Q7.14708 3.90927 7.51825 3.63751Q7.88941 3.36574 8.27468 3.11269Q8.65995 2.85964 9.05854 2.62582Q9.45713 2.392 9.86821 2.17789Q10.2793 1.96378 10.7021 1.76982Q11.1248 1.57585 11.5584 1.40243Q11.9919 1.22901 12.4354 1.07648Q12.8789 0.923958 13.3313 0.792639Q13.7838 0.66132 14.2444 0.551475Q14.705 0.441631 15.1727 0.353485Q15.6404 0.265339 16.1143 0.199072Q16.5882 0.132805 17.0674 0.0885518Q17.5465 0.0442985 18.0299 0.0221493Q18.5133 0 19 0Z" transform="matrix(0.8191521 -0.5735765 0.5735765 0.8191521 0.01572847 57.50676)" id="Rectangle-3-Copy" fill="#B74256" stroke="none" />
      <path d="M19 0L67.5414 0Q68.0281 0 68.5115 0.0221493Q68.9949 0.0442985 69.474 0.0885518Q69.9532 0.132805 70.4271 0.199072Q70.901 0.265339 71.3687 0.353485Q71.8364 0.441631 72.297 0.551475Q72.7576 0.66132 73.2101 0.792639Q73.6626 0.923958 74.106 1.07648Q74.5495 1.22901 74.983 1.40243Q75.4166 1.57585 75.8394 1.76982Q76.2621 1.96378 76.6732 2.17789Q77.0843 2.392 77.4829 2.62582Q77.8815 2.85964 78.2667 3.11269Q78.652 3.36574 79.0232 3.63751Q79.3943 3.90927 79.7506 4.1992Q80.107 4.48913 80.4477 4.79663Q80.7884 5.10413 81.1128 5.42857Q81.4373 5.75301 81.7448 6.09374Q82.0523 6.43446 82.3422 6.79077Q82.6321 7.14708 82.9039 7.51825Q83.1757 7.88941 83.4287 8.27468Q83.6818 8.65995 83.9156 9.05854Q84.1494 9.45713 84.3635 9.86821Q84.5776 10.2793 84.7716 10.7021Q84.9656 11.1248 85.139 11.5584Q85.3124 11.9919 85.4649 12.4354Q85.6175 12.8789 85.7488 13.3313Q85.8801 13.7838 85.9899 14.2444Q86.0998 14.705 86.1879 15.1727Q86.2761 15.6404 86.3423 16.1143Q86.4086 16.5882 86.4529 17.0674Q86.4971 17.5465 86.5193 18.0299Q86.5414 18.5133 86.5414 19L86.5414 23.2644Q86.5414 23.7511 86.5193 24.2345Q86.4971 24.7179 86.4529 25.197Q86.4086 25.6762 86.3423 26.1501Q86.2761 26.624 86.1879 27.0917Q86.0998 27.5594 85.9899 28.02Q85.8801 28.4806 85.7488 28.9331Q85.6175 29.3856 85.4649 29.829Q85.3124 30.2725 85.139 30.7061Q84.9656 31.1396 84.7716 31.5624Q84.5776 31.9851 84.3635 32.3962Q84.1494 32.8073 83.9156 33.2059Q83.6818 33.6045 83.4287 33.9897Q83.1757 34.375 82.9039 34.7462Q82.6321 35.1173 82.3422 35.4736Q82.0523 35.83 81.7448 36.1707Q81.4373 36.5114 81.1128 36.8358Q80.7884 37.1603 80.4477 37.4678Q80.107 37.7753 79.7506 38.0652Q79.3943 38.3551 79.0232 38.6269Q78.652 38.8987 78.2667 39.1517Q77.8815 39.4048 77.4829 39.6386Q77.0843 39.8724 76.6732 40.0865Q76.2621 40.3006 75.8394 40.4946Q75.4166 40.6886 74.983 40.862Q74.5495 41.0354 74.106 41.1879Q73.6626 41.3405 73.2101 41.4718Q72.7576 41.6031 72.297 41.7129Q71.8364 41.8228 71.3687 41.9109Q70.901 41.9991 70.4271 42.0653Q69.9532 42.1316 69.474 42.1759Q68.9949 42.2201 68.5115 42.2423Q68.0281 42.2644 67.5414 42.2644L19 42.2644Q18.5133 42.2644 18.0299 42.2423Q17.5465 42.2201 17.0674 42.1759Q16.5882 42.1316 16.1143 42.0653Q15.6404 41.9991 15.1727 41.9109Q14.705 41.8228 14.2444 41.7129Q13.7838 41.6031 13.3313 41.4718Q12.8789 41.3405 12.4354 41.1879Q11.9919 41.0354 11.5584 40.862Q11.1248 40.6886 10.7021 40.4946Q10.2793 40.3006 9.86821 40.0865Q9.45713 39.8724 9.05854 39.6386Q8.65995 39.4048 8.27468 39.1517Q7.88941 38.8987 7.51825 38.6269Q7.14708 38.3551 6.79077 38.0652Q6.43446 37.7753 6.09374 37.4678Q5.75301 37.1603 5.42857 36.8358Q5.10413 36.5114 4.79663 36.1707Q4.48913 35.83 4.1992 35.4736Q3.90927 35.1173 3.63751 34.7462Q3.36574 34.375 3.11269 33.9897Q2.85964 33.6045 2.62582 33.2059Q2.392 32.8073 2.17789 32.3962Q1.96378 31.9851 1.76982 31.5624Q1.57585 31.1396 1.40243 30.7061Q1.22901 30.2725 1.07648 29.829Q0.923958 29.3856 0.792639 28.9331Q0.66132 28.4806 0.551475 28.02Q0.441631 27.5594 0.353485 27.0917Q0.265339 26.624 0.199072 26.1501Q0.132805 25.6762 0.0885518 25.197Q0.0442985 24.7179 0.0221493 24.2345Q0 23.7511 0 23.2644L0 19Q0 18.5133 0.0221493 18.0299Q0.0442985 17.5465 0.0885518 17.0674Q0.132805 16.5882 0.199072 16.1143Q0.265339 15.6404 0.353485 15.1727Q0.441631 14.705 0.551475 14.2444Q0.66132 13.7838 0.792639 13.3313Q0.923958 12.8789 1.07648 12.4354Q1.22901 11.9919 1.40243 11.5584Q1.57585 11.1248 1.76982 10.7021Q1.96378 10.2793 2.17789 9.86821Q2.392 9.45713 2.62582 9.05854Q2.85964 8.65995 3.11269 8.27468Q3.36574 7.88941 3.63751 7.51825Q3.90927 7.14708 4.1992 6.79077Q4.48913 6.43446 4.79663 6.09374Q5.10413 5.75301 5.42857 5.42857Q5.75301 5.10413 6.09374 4.79663Q6.43446 4.48913 6.79077 4.1992Q7.14708 3.90927 7.51825 3.63751Q7.88941 3.36574 8.27468 3.11269Q8.65995 2.85964 9.05854 2.62582Q9.45713 2.392 9.86821 2.17789Q10.2793 1.96378 10.7021 1.76982Q11.1248 1.57585 11.5584 1.40243Q11.9919 1.22901 12.4354 1.07648Q12.8789 0.923958 13.3313 0.792639Q13.7838 0.66132 14.2444 0.551475Q14.705 0.441631 15.1727 0.353485Q15.6404 0.265339 16.1143 0.199072Q16.5882 0.132805 17.0674 0.0885518Q17.5465 0.0442985 18.0299 0.0221493Q18.5133 0 19 0L67.5414 0Q68.0281 0 68.5115 0.0221493Q68.9949 0.0442985 69.474 0.0885518Q69.9532 0.132805 70.4271 0.199072Q70.901 0.265339 71.3687 0.353485Q71.8364 0.441631 72.297 0.551475Q72.7576 0.66132 73.2101 0.792639Q73.6626 0.923958 74.106 1.07648Q74.5495 1.22901 74.983 1.40243Q75.4166 1.57585 75.8394 1.76982Q76.2621 1.96378 76.6732 2.17789Q77.0843 2.392 77.4829 2.62582Q77.8815 2.85964 78.2667 3.11269Q78.652 3.36574 79.0232 3.63751Q79.3943 3.90927 79.7506 4.1992Q80.107 4.48913 80.4477 4.79663Q80.7884 5.10413 81.1128 5.42857Q81.4373 5.75301 81.7448 6.09374Q82.0523 6.43446 82.3422 6.79077Q82.6321 7.14708 82.9039 7.51825Q83.1757 7.88941 83.4287 8.27468Q83.6818 8.65995 83.9156 9.05854Q84.1494 9.45713 84.3635 9.86821Q84.5776 10.2793 84.7716 10.7021Q84.9656 11.1248 85.139 11.5584Q85.3124 11.9919 85.4649 12.4354Q85.6175 12.8789 85.7488 13.3313Q85.8801 13.7838 85.9899 14.2444Q86.0998 14.705 86.1879 15.1727Q86.2761 15.6404 86.3423 16.1143Q86.4086 16.5882 86.4529 17.0674Q86.4971 17.5465 86.5193 18.0299Q86.5414 18.5133 86.5414 19L86.5414 23.2644Q86.5414 23.7511 86.5193 24.2345Q86.4971 24.7179 86.4529 25.197Q86.4086 25.6762 86.3423 26.1501Q86.2761 26.624 86.1879 27.0917Q86.0998 27.5594 85.9899 28.02Q85.8801 28.4806 85.7488 28.9331Q85.6175 29.3856 85.4649 29.829Q85.3124 30.2725 85.139 30.7061Q84.9656 31.1396 84.7716 31.5624Q84.5776 31.9851 84.3635 32.3962Q84.1494 32.8073 83.9156 33.2059Q83.6818 33.6045 83.4287 33.9897Q83.1757 34.375 82.9039 34.7462Q82.6321 35.1173 82.3422 35.4736Q82.0523 35.83 81.7448 36.1707Q81.4373 36.5114 81.1128 36.8358Q80.7884 37.1603 80.4477 37.4678Q80.107 37.7753 79.7506 38.0652Q79.3943 38.3551 79.0232 38.6269Q78.652 38.8987 78.2667 39.1517Q77.8815 39.4048 77.4829 39.6386Q77.0843 39.8724 76.6732 40.0865Q76.2621 40.3006 75.8394 40.4946Q75.4166 40.6886 74.983 40.862Q74.5495 41.0354 74.106 41.1879Q73.6626 41.3405 73.2101 41.4718Q72.7576 41.6031 72.297 41.7129Q71.8364 41.8228 71.3687 41.9109Q70.901 41.9991 70.4271 42.0653Q69.9532 42.1316 69.474 42.1759Q68.9949 42.2201 68.5115 42.2423Q68.0281 42.2644 67.5414 42.2644L19 42.2644Q18.5133 42.2644 18.0299 42.2423Q17.5465 42.2201 17.0674 42.1759Q16.5882 42.1316 16.1143 42.0653Q15.6404 41.9991 15.1727 41.9109Q14.705 41.8228 14.2444 41.7129Q13.7838 41.6031 13.3313 41.4718Q12.8789 41.3405 12.4354 41.1879Q11.9919 41.0354 11.5584 40.862Q11.1248 40.6886 10.7021 40.4946Q10.2793 40.3006 9.86821 40.0865Q9.45713 39.8724 9.05854 39.6386Q8.65995 39.4048 8.27468 39.1517Q7.88941 38.8987 7.51825 38.6269Q7.14708 38.3551 6.79077 38.0652Q6.43446 37.7753 6.09374 37.4678Q5.75301 37.1603 5.42857 36.8358Q5.10413 36.5114 4.79663 36.1707Q4.48913 35.83 4.1992 35.4736Q3.90927 35.1173 3.63751 34.7462Q3.36574 34.375 3.11269 33.9897Q2.85964 33.6045 2.62582 33.2059Q2.392 32.8073 2.17789 32.3962Q1.96378 31.9851 1.76982 31.5624Q1.57585 31.1396 1.40243 30.7061Q1.22901 30.2725 1.07648 29.829Q0.923958 29.3856 0.792639 28.9331Q0.66132 28.4806 0.551475 28.02Q0.441631 27.5594 0.353485 27.0917Q0.265339 26.624 0.199072 26.1501Q0.132805 25.6762 0.0885518 25.197Q0.0442985 24.7179 0.0221493 24.2345Q0 23.7511 0 23.2644L0 19Q0 18.5133 0.0221493 18.0299Q0.0442985 17.5465 0.0885518 17.0674Q0.132805 16.5882 0.199072 16.1143Q0.265339 15.6404 0.353485 15.1727Q0.441631 14.705 0.551475 14.2444Q0.66132 13.7838 0.792639 13.3313Q0.923958 12.8789 1.07648 12.4354Q1.22901 11.9919 1.40243 11.5584Q1.57585 11.1248 1.76982 10.7021Q1.96378 10.2793 2.17789 9.86821Q2.392 9.45713 2.62582 9.05854Q2.85964 8.65995 3.11269 8.27468Q3.36574 7.88941 3.63751 7.51825Q3.90927 7.14708 4.1992 6.79077Q4.48913 6.43446 4.79663 6.09374Q5.10413 5.75301 5.42857 5.42857Q5.75301 5.10413 6.09374 4.79663Q6.43446 4.48913 6.79077 4.1992Q7.14708 3.90927 7.51825 3.63751Q7.88941 3.36574 8.27468 3.11269Q8.65995 2.85964 9.05854 2.62582Q9.45713 2.392 9.86821 2.17789Q10.2793 1.96378 10.7021 1.76982Q11.1248 1.57585 11.5584 1.40243Q11.9919 1.22901 12.4354 1.07648Q12.8789 0.923958 13.3313 0.792639Q13.7838 0.66132 14.2444 0.551475Q14.705 0.441631 15.1727 0.353485Q15.6404 0.265339 16.1143 0.199072Q16.5882 0.132805 17.0674 0.0885518Q17.5465 0.0442985 18.0299 0.0221493Q18.5133 0 19 0Z" transform="matrix(0.8191521 -0.5735765 0.5735765 0.8191521 1.072339 50.11049)" id="Rectangle-3" fill="url(#gradient_1)" stroke="none" />
    </g>
    <g id="Group-3-Copy" transform="translate(233.5108 324.6474)">
      <path d="M12.1 0L77.4603 0Q77.7702 0 78.0781 0.0141056Q78.3859 0.0282112 78.6911 0.0563935Q78.9962 0.0845759 79.298 0.126778Q79.5998 0.168979 79.8977 0.225114Q80.1956 0.281249 80.4889 0.351203Q80.7822 0.421156 81.0703 0.504786Q81.3585 0.588415 81.6409 0.68555Q81.9234 0.782685 82.1995 0.893127Q82.4756 1.00357 82.7448 1.12709Q83.014 1.25062 83.2758 1.38697Q83.5376 1.52333 83.7915 1.67223Q84.0453 1.82114 84.2906 1.98229Q84.536 2.14344 84.7724 2.31652Q85.0088 2.48959 85.2357 2.67423Q85.4626 2.85887 85.6796 3.0547Q85.8966 3.25052 86.1032 3.45714Q86.3098 3.66376 86.5056 3.88075Q86.7014 4.09773 86.8861 4.32465Q87.0707 4.55156 87.2438 4.78794Q87.4169 5.02431 87.578 5.26967Q87.7392 5.51502 87.8881 5.76886Q88.037 6.0227 88.1733 6.28449Q88.3097 6.54629 88.4332 6.81552Q88.5567 7.08474 88.6672 7.36085Q88.7776 7.63696 88.8748 7.91938Q88.9719 8.2018 89.0555 8.48996Q89.1392 8.77812 89.2091 9.07143Q89.2791 9.36474 89.3352 9.66261Q89.3913 9.96047 89.4335 10.2623Q89.4757 10.5641 89.5039 10.8692Q89.5321 11.1744 89.5462 11.4822Q89.5603 11.7901 89.5603 12.1L89.5603 12.0511Q89.5603 12.361 89.5462 12.6689Q89.5321 12.9767 89.5039 13.2819Q89.4757 13.587 89.4335 13.8888Q89.3913 14.1906 89.3352 14.4885Q89.2791 14.7864 89.2091 15.0797Q89.1392 15.373 89.0555 15.6611Q88.9719 15.9493 88.8748 16.2317Q88.7776 16.5141 88.6672 16.7902Q88.5567 17.0663 88.4332 17.3356Q88.3097 17.6048 88.1733 17.8666Q88.037 18.1284 87.8881 18.3822Q87.7392 18.6361 87.578 18.8814Q87.4169 19.1268 87.2438 19.3632Q87.0707 19.5995 86.8861 19.8264Q86.7014 20.0534 86.5056 20.2703Q86.3098 20.4873 86.1032 20.6939Q85.8966 20.9006 85.6796 21.0964Q85.4626 21.2922 85.2357 21.4769Q85.0088 21.6615 84.7724 21.8346Q84.536 22.0076 84.2906 22.1688Q84.0453 22.33 83.7915 22.4789Q83.5376 22.6278 83.2758 22.7641Q83.014 22.9005 82.7448 23.024Q82.4756 23.1475 82.1995 23.258Q81.9234 23.3684 81.6409 23.4655Q81.3585 23.5627 81.0704 23.6463Q80.7822 23.7299 80.4889 23.7999Q80.1956 23.8698 79.8977 23.926Q79.5998 23.9821 79.298 24.0243Q78.9962 24.0665 78.6911 24.0947Q78.3859 24.1229 78.0781 24.137Q77.7702 24.1511 77.4603 24.1511L12.1 24.1511Q11.7901 24.1511 11.4822 24.137Q11.1744 24.1229 10.8692 24.0947Q10.5641 24.0665 10.2623 24.0243Q9.96047 23.9821 9.66261 23.926Q9.36474 23.8698 9.07143 23.7999Q8.77812 23.7299 8.48996 23.6463Q8.2018 23.5627 7.91938 23.4655Q7.63696 23.3684 7.36085 23.258Q7.08475 23.1475 6.81552 23.024Q6.54629 22.9005 6.28449 22.7641Q6.0227 22.6278 5.76886 22.4789Q5.51502 22.33 5.26967 22.1688Q5.02431 22.0076 4.78794 21.8346Q4.55156 21.6615 4.32465 21.4769Q4.09773 21.2922 3.88075 21.0964Q3.66376 20.9006 3.45714 20.6939Q3.25052 20.4873 3.0547 20.2703Q2.85887 20.0534 2.67423 19.8264Q2.48959 19.5995 2.31652 19.3632Q2.14344 19.1268 1.98229 18.8814Q1.82114 18.6361 1.67223 18.3822Q1.52333 18.1284 1.38697 17.8666Q1.25062 17.6048 1.12709 17.3356Q1.00357 17.0663 0.893127 16.7902Q0.782685 16.5141 0.68555 16.2317Q0.588415 15.9493 0.504786 15.6611Q0.421156 15.373 0.351203 15.0797Q0.281249 14.7864 0.225114 14.4885Q0.168979 14.1906 0.126778 13.8888Q0.0845759 13.587 0.0563935 13.2819Q0.0282112 12.9767 0.0141056 12.6689Q0 12.361 0 12.0511L0 12.1Q0 11.7901 0.0141056 11.4822Q0.0282112 11.1744 0.0563935 10.8692Q0.0845759 10.5641 0.126778 10.2623Q0.168979 9.96047 0.225114 9.66261Q0.281249 9.36474 0.351203 9.07143Q0.421156 8.77812 0.504786 8.48996Q0.588415 8.2018 0.68555 7.91938Q0.782685 7.63696 0.893127 7.36085Q1.00357 7.08475 1.12709 6.81552Q1.25062 6.54629 1.38697 6.28449Q1.52333 6.0227 1.67223 5.76886Q1.82114 5.51502 1.98229 5.26967Q2.14344 5.02431 2.31652 4.78794Q2.48959 4.55156 2.67423 4.32465Q2.85887 4.09773 3.0547 3.88075Q3.25052 3.66376 3.45714 3.45714Q3.66376 3.25052 3.88075 3.0547Q4.09773 2.85887 4.32465 2.67423Q4.55156 2.48959 4.78794 2.31652Q5.02431 2.14344 5.26967 1.98229Q5.51502 1.82114 5.76886 1.67223Q6.0227 1.52333 6.28449 1.38697Q6.54629 1.25062 6.81552 1.12709Q7.08474 1.00357 7.36085 0.893127Q7.63696 0.782685 7.91938 0.68555Q8.2018 0.588415 8.48996 0.504786Q8.77812 0.421156 9.07143 0.351203Q9.36474 0.281249 9.66261 0.225114Q9.96047 0.168979 10.2623 0.126778Q10.5641 0.0845759 10.8692 0.0563935Q11.1744 0.0282112 11.4822 0.0141056Q11.7901 0 12.1 0L77.4603 0Q77.7702 0 78.0781 0.0141056Q78.3859 0.0282112 78.6911 0.0563935Q78.9962 0.0845759 79.298 0.126778Q79.5998 0.168979 79.8977 0.225114Q80.1956 0.281249 80.4889 0.351203Q80.7822 0.421156 81.0703 0.504786Q81.3585 0.588415 81.6409 0.68555Q81.9234 0.782685 82.1995 0.893127Q82.4756 1.00357 82.7448 1.12709Q83.014 1.25062 83.2758 1.38697Q83.5376 1.52333 83.7915 1.67223Q84.0453 1.82114 84.2906 1.98229Q84.536 2.14344 84.7724 2.31652Q85.0088 2.48959 85.2357 2.67423Q85.4626 2.85887 85.6796 3.0547Q85.8966 3.25052 86.1032 3.45714Q86.3098 3.66376 86.5056 3.88075Q86.7014 4.09773 86.8861 4.32465Q87.0707 4.55156 87.2438 4.78794Q87.4169 5.02431 87.578 5.26967Q87.7392 5.51502 87.8881 5.76886Q88.037 6.0227 88.1733 6.28449Q88.3097 6.54629 88.4332 6.81552Q88.5567 7.08474 88.6672 7.36085Q88.7776 7.63696 88.8748 7.91938Q88.9719 8.2018 89.0555 8.48996Q89.1392 8.77812 89.2091 9.07143Q89.2791 9.36474 89.3352 9.66261Q89.3913 9.96047 89.4335 10.2623Q89.4757 10.5641 89.5039 10.8692Q89.5321 11.1744 89.5462 11.4822Q89.5603 11.7901 89.5603 12.1L89.5603 12.0511Q89.5603 12.361 89.5462 12.6689Q89.5321 12.9767 89.5039 13.2819Q89.4757 13.587 89.4335 13.8888Q89.3913 14.1906 89.3352 14.4885Q89.2791 14.7864 89.2091 15.0797Q89.1392 15.373 89.0555 15.6611Q88.9719 15.9493 88.8748 16.2317Q88.7776 16.5141 88.6672 16.7902Q88.5567 17.0663 88.4332 17.3356Q88.3097 17.6048 88.1733 17.8666Q88.037 18.1284 87.8881 18.3822Q87.7392 18.6361 87.578 18.8814Q87.4169 19.1268 87.2438 19.3632Q87.0707 19.5995 86.8861 19.8264Q86.7014 20.0534 86.5056 20.2703Q86.3098 20.4873 86.1032 20.6939Q85.8966 20.9006 85.6796 21.0964Q85.4626 21.2922 85.2357 21.4769Q85.0088 21.6615 84.7724 21.8346Q84.536 22.0076 84.2906 22.1688Q84.0453 22.33 83.7915 22.4789Q83.5376 22.6278 83.2758 22.7641Q83.014 22.9005 82.7448 23.024Q82.4756 23.1475 82.1995 23.258Q81.9234 23.3684 81.6409 23.4655Q81.3585 23.5627 81.0704 23.6463Q80.7822 23.7299 80.4889 23.7999Q80.1956 23.8698 79.8977 23.926Q79.5998 23.9821 79.298 24.0243Q78.9962 24.0665 78.6911 24.0947Q78.3859 24.1229 78.0781 24.137Q77.7702 24.1511 77.4603 24.1511L12.1 24.1511Q11.7901 24.1511 11.4822 24.137Q11.1744 24.1229 10.8692 24.0947Q10.5641 24.0665 10.2623 24.0243Q9.96047 23.9821 9.66261 23.926Q9.36474 23.8698 9.07143 23.7999Q8.77812 23.7299 8.48996 23.6463Q8.2018 23.5627 7.91938 23.4655Q7.63696 23.3684 7.36085 23.258Q7.08475 23.1475 6.81552 23.024Q6.54629 22.9005 6.28449 22.7641Q6.0227 22.6278 5.76886 22.4789Q5.51502 22.33 5.26967 22.1688Q5.02431 22.0076 4.78794 21.8346Q4.55156 21.6615 4.32465 21.4769Q4.09773 21.2922 3.88075 21.0964Q3.66376 20.9006 3.45714 20.6939Q3.25052 20.4873 3.0547 20.2703Q2.85887 20.0534 2.67423 19.8264Q2.48959 19.5995 2.31652 19.3632Q2.14344 19.1268 1.98229 18.8814Q1.82114 18.6361 1.67223 18.3822Q1.52333 18.1284 1.38697 17.8666Q1.25062 17.6048 1.12709 17.3356Q1.00357 17.0663 0.893127 16.7902Q0.782685 16.5141 0.68555 16.2317Q0.588415 15.9493 0.504786 15.6611Q0.421156 15.373 0.351203 15.0797Q0.281249 14.7864 0.225114 14.4885Q0.168979 14.1906 0.126778 13.8888Q0.0845759 13.587 0.0563935 13.2819Q0.0282112 12.9767 0.0141056 12.6689Q0 12.361 0 12.0511L0 12.1Q0 11.7901 0.0141056 11.4822Q0.0282112 11.1744 0.0563935 10.8692Q0.0845759 10.5641 0.126778 10.2623Q0.168979 9.96047 0.225114 9.66261Q0.281249 9.36474 0.351203 9.07143Q0.421156 8.77812 0.504786 8.48996Q0.588415 8.2018 0.68555 7.91938Q0.782685 7.63696 0.893127 7.36085Q1.00357 7.08475 1.12709 6.81552Q1.25062 6.54629 1.38697 6.28449Q1.52333 6.0227 1.67223 5.76886Q1.82114 5.51502 1.98229 5.26967Q2.14344 5.02431 2.31652 4.78794Q2.48959 4.55156 2.67423 4.32465Q2.85887 4.09773 3.0547 3.88075Q3.25052 3.66376 3.45714 3.45714Q3.66376 3.25052 3.88075 3.0547Q4.09773 2.85887 4.32465 2.67423Q4.55156 2.48959 4.78794 2.31652Q5.02431 2.14344 5.26967 1.98229Q5.51502 1.82114 5.76886 1.67223Q6.0227 1.52333 6.28449 1.38697Q6.54629 1.25062 6.81552 1.12709Q7.08474 1.00357 7.36085 0.893127Q7.63696 0.782685 7.91938 0.68555Q8.2018 0.588415 8.48996 0.504786Q8.77812 0.421156 9.07143 0.351203Q9.36474 0.281249 9.66261 0.225114Q9.96047 0.168979 10.2623 0.126778Q10.5641 0.0845759 10.8692 0.0563935Q11.1744 0.0282112 11.4822 0.0141056Q11.7901 0 12.1 0Z" transform="matrix(0.8191521 -0.5735765 0.5735765 0.8191521 0.2770182 57.94851)" id="Rectangle-3-Copy" fill="#B74256" stroke="none" />
      <path d="M12.1 0L77.4603 0Q77.7702 0 78.0781 0.0141056Q78.3859 0.0282112 78.6911 0.0563935Q78.9962 0.0845759 79.298 0.126778Q79.5998 0.168979 79.8977 0.225114Q80.1956 0.281249 80.4889 0.351203Q80.7822 0.421156 81.0703 0.504786Q81.3585 0.588415 81.6409 0.68555Q81.9234 0.782685 82.1995 0.893127Q82.4756 1.00357 82.7448 1.12709Q83.014 1.25062 83.2758 1.38697Q83.5376 1.52333 83.7915 1.67223Q84.0453 1.82114 84.2906 1.98229Q84.536 2.14344 84.7724 2.31652Q85.0088 2.48959 85.2357 2.67423Q85.4626 2.85887 85.6796 3.0547Q85.8966 3.25052 86.1032 3.45714Q86.3098 3.66376 86.5056 3.88075Q86.7014 4.09773 86.8861 4.32465Q87.0707 4.55156 87.2438 4.78794Q87.4169 5.02431 87.578 5.26967Q87.7392 5.51502 87.8881 5.76886Q88.037 6.0227 88.1733 6.28449Q88.3097 6.54629 88.4332 6.81552Q88.5567 7.08474 88.6672 7.36085Q88.7776 7.63696 88.8748 7.91938Q88.9719 8.2018 89.0555 8.48996Q89.1392 8.77812 89.2091 9.07143Q89.2791 9.36474 89.3352 9.66261Q89.3913 9.96047 89.4335 10.2623Q89.4757 10.5641 89.5039 10.8692Q89.5321 11.1744 89.5462 11.4822Q89.5603 11.7901 89.5603 12.1L89.5603 12.0511Q89.5603 12.361 89.5462 12.6689Q89.5321 12.9767 89.5039 13.2819Q89.4757 13.587 89.4335 13.8888Q89.3913 14.1906 89.3352 14.4885Q89.2791 14.7864 89.2091 15.0797Q89.1392 15.373 89.0555 15.6611Q88.9719 15.9493 88.8748 16.2317Q88.7776 16.5141 88.6672 16.7902Q88.5567 17.0663 88.4332 17.3356Q88.3097 17.6048 88.1733 17.8666Q88.037 18.1284 87.8881 18.3822Q87.7392 18.6361 87.578 18.8814Q87.4169 19.1268 87.2438 19.3632Q87.0707 19.5995 86.8861 19.8264Q86.7014 20.0534 86.5056 20.2703Q86.3098 20.4873 86.1032 20.6939Q85.8966 20.9006 85.6796 21.0964Q85.4626 21.2922 85.2357 21.4769Q85.0088 21.6615 84.7724 21.8346Q84.536 22.0076 84.2906 22.1688Q84.0453 22.33 83.7915 22.4789Q83.5376 22.6278 83.2758 22.7641Q83.014 22.9005 82.7448 23.024Q82.4756 23.1475 82.1995 23.258Q81.9234 23.3684 81.6409 23.4655Q81.3585 23.5627 81.0704 23.6463Q80.7822 23.7299 80.4889 23.7999Q80.1956 23.8698 79.8977 23.926Q79.5998 23.9821 79.298 24.0243Q78.9962 24.0665 78.6911 24.0947Q78.3859 24.1229 78.0781 24.137Q77.7702 24.1511 77.4603 24.1511L12.1 24.1511Q11.7901 24.1511 11.4822 24.137Q11.1744 24.1229 10.8692 24.0947Q10.5641 24.0665 10.2623 24.0243Q9.96047 23.9821 9.66261 23.926Q9.36474 23.8698 9.07143 23.7999Q8.77812 23.7299 8.48996 23.6463Q8.2018 23.5627 7.91938 23.4655Q7.63696 23.3684 7.36085 23.258Q7.08475 23.1475 6.81552 23.024Q6.54629 22.9005 6.28449 22.7641Q6.0227 22.6278 5.76886 22.4789Q5.51502 22.33 5.26967 22.1688Q5.02431 22.0076 4.78794 21.8346Q4.55156 21.6615 4.32465 21.4769Q4.09773 21.2922 3.88075 21.0964Q3.66376 20.9006 3.45714 20.6939Q3.25052 20.4873 3.0547 20.2703Q2.85887 20.0534 2.67423 19.8264Q2.48959 19.5995 2.31652 19.3632Q2.14344 19.1268 1.98229 18.8814Q1.82114 18.6361 1.67223 18.3822Q1.52333 18.1284 1.38697 17.8666Q1.25062 17.6048 1.12709 17.3356Q1.00357 17.0663 0.893127 16.7902Q0.782685 16.5141 0.68555 16.2317Q0.588415 15.9493 0.504786 15.6611Q0.421156 15.373 0.351203 15.0797Q0.281249 14.7864 0.225114 14.4885Q0.168979 14.1906 0.126778 13.8888Q0.0845759 13.587 0.0563935 13.2819Q0.0282112 12.9767 0.0141056 12.6689Q0 12.361 0 12.0511L0 12.1Q0 11.7901 0.0141056 11.4822Q0.0282112 11.1744 0.0563935 10.8692Q0.0845759 10.5641 0.126778 10.2623Q0.168979 9.96047 0.225114 9.66261Q0.281249 9.36474 0.351203 9.07143Q0.421156 8.77812 0.504786 8.48996Q0.588415 8.2018 0.68555 7.91938Q0.782685 7.63696 0.893127 7.36085Q1.00357 7.08475 1.12709 6.81552Q1.25062 6.54629 1.38697 6.28449Q1.52333 6.0227 1.67223 5.76886Q1.82114 5.51502 1.98229 5.26967Q2.14344 5.02431 2.31652 4.78794Q2.48959 4.55156 2.67423 4.32465Q2.85887 4.09773 3.0547 3.88075Q3.25052 3.66376 3.45714 3.45714Q3.66376 3.25052 3.88075 3.0547Q4.09773 2.85887 4.32465 2.67423Q4.55156 2.48959 4.78794 2.31652Q5.02431 2.14344 5.26967 1.98229Q5.51502 1.82114 5.76886 1.67223Q6.0227 1.52333 6.28449 1.38697Q6.54629 1.25062 6.81552 1.12709Q7.08474 1.00357 7.36085 0.893127Q7.63696 0.782685 7.91938 0.68555Q8.2018 0.588415 8.48996 0.504786Q8.77812 0.421156 9.07143 0.351203Q9.36474 0.281249 9.66261 0.225114Q9.96047 0.168979 10.2623 0.126778Q10.5641 0.0845759 10.8692 0.0563935Q11.1744 0.0282112 11.4822 0.0141056Q11.7901 0 12.1 0L77.4603 0Q77.7702 0 78.0781 0.0141056Q78.3859 0.0282112 78.6911 0.0563935Q78.9962 0.0845759 79.298 0.126778Q79.5998 0.168979 79.8977 0.225114Q80.1956 0.281249 80.4889 0.351203Q80.7822 0.421156 81.0703 0.504786Q81.3585 0.588415 81.6409 0.68555Q81.9234 0.782685 82.1995 0.893127Q82.4756 1.00357 82.7448 1.12709Q83.014 1.25062 83.2758 1.38697Q83.5376 1.52333 83.7915 1.67223Q84.0453 1.82114 84.2906 1.98229Q84.536 2.14344 84.7724 2.31652Q85.0088 2.48959 85.2357 2.67423Q85.4626 2.85887 85.6796 3.0547Q85.8966 3.25052 86.1032 3.45714Q86.3098 3.66376 86.5056 3.88075Q86.7014 4.09773 86.8861 4.32465Q87.0707 4.55156 87.2438 4.78794Q87.4169 5.02431 87.578 5.26967Q87.7392 5.51502 87.8881 5.76886Q88.037 6.0227 88.1733 6.28449Q88.3097 6.54629 88.4332 6.81552Q88.5567 7.08474 88.6672 7.36085Q88.7776 7.63696 88.8748 7.91938Q88.9719 8.2018 89.0555 8.48996Q89.1392 8.77812 89.2091 9.07143Q89.2791 9.36474 89.3352 9.66261Q89.3913 9.96047 89.4335 10.2623Q89.4757 10.5641 89.5039 10.8692Q89.5321 11.1744 89.5462 11.4822Q89.5603 11.7901 89.5603 12.1L89.5603 12.0511Q89.5603 12.361 89.5462 12.6689Q89.5321 12.9767 89.5039 13.2819Q89.4757 13.587 89.4335 13.8888Q89.3913 14.1906 89.3352 14.4885Q89.2791 14.7864 89.2091 15.0797Q89.1392 15.373 89.0555 15.6611Q88.9719 15.9493 88.8748 16.2317Q88.7776 16.5141 88.6672 16.7902Q88.5567 17.0663 88.4332 17.3356Q88.3097 17.6048 88.1733 17.8666Q88.037 18.1284 87.8881 18.3822Q87.7392 18.6361 87.578 18.8814Q87.4169 19.1268 87.2438 19.3632Q87.0707 19.5995 86.8861 19.8264Q86.7014 20.0534 86.5056 20.2703Q86.3098 20.4873 86.1032 20.6939Q85.8966 20.9006 85.6796 21.0964Q85.4626 21.2922 85.2357 21.4769Q85.0088 21.6615 84.7724 21.8346Q84.536 22.0076 84.2906 22.1688Q84.0453 22.33 83.7915 22.4789Q83.5376 22.6278 83.2758 22.7641Q83.014 22.9005 82.7448 23.024Q82.4756 23.1475 82.1995 23.258Q81.9234 23.3684 81.6409 23.4655Q81.3585 23.5627 81.0704 23.6463Q80.7822 23.7299 80.4889 23.7999Q80.1956 23.8698 79.8977 23.926Q79.5998 23.9821 79.298 24.0243Q78.9962 24.0665 78.6911 24.0947Q78.3859 24.1229 78.0781 24.137Q77.7702 24.1511 77.4603 24.1511L12.1 24.1511Q11.7901 24.1511 11.4822 24.137Q11.1744 24.1229 10.8692 24.0947Q10.5641 24.0665 10.2623 24.0243Q9.96047 23.9821 9.66261 23.926Q9.36474 23.8698 9.07143 23.7999Q8.77812 23.7299 8.48996 23.6463Q8.2018 23.5627 7.91938 23.4655Q7.63696 23.3684 7.36085 23.258Q7.08475 23.1475 6.81552 23.024Q6.54629 22.9005 6.28449 22.7641Q6.0227 22.6278 5.76886 22.4789Q5.51502 22.33 5.26967 22.1688Q5.02431 22.0076 4.78794 21.8346Q4.55156 21.6615 4.32465 21.4769Q4.09773 21.2922 3.88075 21.0964Q3.66376 20.9006 3.45714 20.6939Q3.25052 20.4873 3.0547 20.2703Q2.85887 20.0534 2.67423 19.8264Q2.48959 19.5995 2.31652 19.3632Q2.14344 19.1268 1.98229 18.8814Q1.82114 18.6361 1.67223 18.3822Q1.52333 18.1284 1.38697 17.8666Q1.25062 17.6048 1.12709 17.3356Q1.00357 17.0663 0.893127 16.7902Q0.782685 16.5141 0.68555 16.2317Q0.588415 15.9493 0.504786 15.6611Q0.421156 15.373 0.351203 15.0797Q0.281249 14.7864 0.225114 14.4885Q0.168979 14.1906 0.126778 13.8888Q0.0845759 13.587 0.0563935 13.2819Q0.0282112 12.9767 0.0141056 12.6689Q0 12.361 0 12.0511L0 12.1Q0 11.7901 0.0141056 11.4822Q0.0282112 11.1744 0.0563935 10.8692Q0.0845759 10.5641 0.126778 10.2623Q0.168979 9.96047 0.225114 9.66261Q0.281249 9.36474 0.351203 9.07143Q0.421156 8.77812 0.504786 8.48996Q0.588415 8.2018 0.68555 7.91938Q0.782685 7.63696 0.893127 7.36085Q1.00357 7.08475 1.12709 6.81552Q1.25062 6.54629 1.38697 6.28449Q1.52333 6.0227 1.67223 5.76886Q1.82114 5.51502 1.98229 5.26967Q2.14344 5.02431 2.31652 4.78794Q2.48959 4.55156 2.67423 4.32465Q2.85887 4.09773 3.0547 3.88075Q3.25052 3.66376 3.45714 3.45714Q3.66376 3.25052 3.88075 3.0547Q4.09773 2.85887 4.32465 2.67423Q4.55156 2.48959 4.78794 2.31652Q5.02431 2.14344 5.26967 1.98229Q5.51502 1.82114 5.76886 1.67223Q6.0227 1.52333 6.28449 1.38697Q6.54629 1.25062 6.81552 1.12709Q7.08474 1.00357 7.36085 0.893127Q7.63696 0.782685 7.91938 0.68555Q8.2018 0.588415 8.48996 0.504786Q8.77812 0.421156 9.07143 0.351203Q9.36474 0.281249 9.66261 0.225114Q9.96047 0.168979 10.2623 0.126778Q10.5641 0.0845759 10.8692 0.0563935Q11.1744 0.0282112 11.4822 0.0141056Q11.7901 0 12.1 0Z" transform="matrix(0.8191521 -0.5735765 0.5735765 0.8191521 1.333628 51.60885)" id="Rectangle-3" fill="#E73453" stroke="none" />
    </g>
    <g id="Group-2" transform="translate(450.1159 2.11322)">
      <path d="M13.2 0L81.8949 0Q82.233 0 82.5689 0.0153879Q82.9047 0.0307758 83.2376 0.0615202Q83.5705 0.0922646 83.8997 0.138303Q84.229 0.184341 84.5539 0.245579Q84.8789 0.306817 85.1988 0.38313Q85.5188 0.459443 85.8332 0.550675Q86.1475 0.641908 86.4556 0.747873Q86.7637 0.853839 87.0649 0.974321Q87.3661 1.0948 87.6598 1.22956Q87.9535 1.36431 88.2391 1.51306Q88.5247 1.66181 88.8016 1.82425Q89.0785 1.98669 89.3462 2.1625Q89.6139 2.3383 89.8717 2.52711Q90.1296 2.71592 90.3771 2.91734Q90.6247 3.11876 90.8614 3.3324Q91.0981 3.54603 91.3235 3.77143Q91.5489 3.99683 91.7625 4.23354Q91.9762 4.47026 92.1776 4.7178Q92.379 4.96534 92.5678 5.2232Q92.7566 5.48107 92.9324 5.74873Q93.1082 6.01639 93.2707 6.2933Q93.4331 6.57021 93.5819 6.85581Q93.7306 7.14141 93.8654 7.43511Q94.0001 7.72881 94.1206 8.03002Q94.2411 8.33122 94.3471 8.63932Q94.453 8.94742 94.5443 9.26177Q94.6355 9.57613 94.7118 9.89611Q94.7881 10.2161 94.8493 10.541Q94.9106 10.866 94.9566 11.1952Q95.0027 11.5245 95.0334 11.8573Q95.0641 12.1902 95.0795 12.5261Q95.0949 12.8619 95.0949 13.2L95.0949 13.2153Q95.0949 13.5534 95.0795 13.8892Q95.0642 14.225 95.0334 14.5579Q95.0027 14.8908 94.9566 15.22Q94.9106 15.5493 94.8493 15.8742Q94.7881 16.1992 94.7118 16.5192Q94.6355 16.8391 94.5443 17.1535Q94.453 17.4678 94.3471 17.7759Q94.2411 18.084 94.1206 18.3852Q94.0001 18.6864 93.8654 18.9801Q93.7306 19.2738 93.5819 19.5594Q93.4331 19.845 93.2707 20.122Q93.1082 20.3989 92.9324 20.6665Q92.7566 20.9342 92.5678 21.1921Q92.379 21.4499 92.1776 21.6975Q91.9762 21.945 91.7625 22.1817Q91.5489 22.4184 91.3235 22.6438Q91.0981 22.8692 90.8614 23.0829Q90.6247 23.2965 90.3771 23.4979Q90.1296 23.6993 89.8717 23.8881Q89.6139 24.077 89.3462 24.2528Q89.0785 24.4286 88.8016 24.591Q88.5247 24.7534 88.2391 24.9022Q87.9535 25.0509 87.6598 25.1857Q87.3661 25.3205 87.0649 25.4409Q86.7637 25.5614 86.4556 25.6674Q86.1475 25.7733 85.8332 25.8646Q85.5188 25.9558 85.1988 26.0321Q84.8789 26.1084 84.5539 26.1697Q84.229 26.2309 83.8997 26.277Q83.5705 26.323 83.2376 26.3537Q82.9047 26.3845 82.5689 26.3999Q82.233 26.4153 81.8949 26.4153L13.2 26.4153Q12.8619 26.4153 12.5261 26.3999Q12.1902 26.3845 11.8573 26.3537Q11.5245 26.323 11.1952 26.277Q10.866 26.2309 10.541 26.1697Q10.2161 26.1084 9.89611 26.0321Q9.57613 25.9558 9.26177 25.8646Q8.94742 25.7733 8.63932 25.6674Q8.33122 25.5614 8.03002 25.4409Q7.72881 25.3205 7.43511 25.1857Q7.14141 25.0509 6.85581 24.9022Q6.57021 24.7534 6.2933 24.591Q6.01639 24.4286 5.74873 24.2528Q5.48107 24.077 5.2232 23.8881Q4.96534 23.6993 4.7178 23.4979Q4.47026 23.2965 4.23354 23.0829Q3.99683 22.8692 3.77143 22.6438Q3.54603 22.4184 3.3324 22.1817Q3.11876 21.945 2.91734 21.6975Q2.71592 21.4499 2.52711 21.1921Q2.3383 20.9342 2.1625 20.6665Q1.98669 20.3989 1.82425 20.122Q1.66181 19.845 1.51306 19.5594Q1.36431 19.2738 1.22956 18.9801Q1.0948 18.6864 0.974321 18.3852Q0.853839 18.084 0.747873 17.7759Q0.641908 17.4678 0.550675 17.1535Q0.459443 16.8391 0.38313 16.5192Q0.306817 16.1992 0.245579 15.8742Q0.184341 15.5493 0.138303 15.22Q0.0922646 14.8908 0.0615202 14.5579Q0.0307758 14.225 0.0153879 13.8892Q0 13.5534 0 13.2153L0 13.2Q0 12.8619 0.0153879 12.5261Q0.0307758 12.1902 0.0615202 11.8573Q0.0922646 11.5245 0.138303 11.1952Q0.184341 10.866 0.245579 10.541Q0.306817 10.2161 0.38313 9.89611Q0.459443 9.57613 0.550675 9.26177Q0.641908 8.94742 0.747873 8.63932Q0.853839 8.33122 0.974321 8.03002Q1.0948 7.72881 1.22956 7.43511Q1.36431 7.14141 1.51306 6.85581Q1.66181 6.57021 1.82425 6.2933Q1.98669 6.01639 2.1625 5.74873Q2.3383 5.48107 2.52711 5.2232Q2.71592 4.96534 2.91734 4.7178Q3.11876 4.47026 3.3324 4.23354Q3.54603 3.99683 3.77143 3.77143Q3.99683 3.54603 4.23354 3.3324Q4.47026 3.11876 4.7178 2.91734Q4.96534 2.71592 5.2232 2.52711Q5.48107 2.3383 5.74873 2.1625Q6.01639 1.98669 6.2933 1.82425Q6.57021 1.66181 6.85581 1.51306Q7.14141 1.36431 7.43511 1.22956Q7.72881 1.0948 8.03002 0.974321Q8.33122 0.853839 8.63932 0.747873Q8.94742 0.641908 9.26177 0.550675Q9.57613 0.459443 9.89611 0.38313Q10.2161 0.306817 10.541 0.245579Q10.866 0.184341 11.1952 0.138303Q11.5245 0.0922646 11.8573 0.0615202Q12.1902 0.0307758 12.5261 0.0153879Q12.8619 0 13.2 0L81.8949 0Q82.233 0 82.5689 0.0153879Q82.9047 0.0307758 83.2376 0.0615202Q83.5705 0.0922646 83.8997 0.138303Q84.229 0.184341 84.5539 0.245579Q84.8789 0.306817 85.1988 0.38313Q85.5188 0.459443 85.8332 0.550675Q86.1475 0.641908 86.4556 0.747873Q86.7637 0.853839 87.0649 0.974321Q87.3661 1.0948 87.6598 1.22956Q87.9535 1.36431 88.2391 1.51306Q88.5247 1.66181 88.8016 1.82425Q89.0785 1.98669 89.3462 2.1625Q89.6139 2.3383 89.8717 2.52711Q90.1296 2.71592 90.3771 2.91734Q90.6247 3.11876 90.8614 3.3324Q91.0981 3.54603 91.3235 3.77143Q91.5489 3.99683 91.7625 4.23354Q91.9762 4.47026 92.1776 4.7178Q92.379 4.96534 92.5678 5.2232Q92.7566 5.48107 92.9324 5.74873Q93.1082 6.01639 93.2707 6.2933Q93.4331 6.57021 93.5819 6.85581Q93.7306 7.14141 93.8654 7.43511Q94.0001 7.72881 94.1206 8.03002Q94.2411 8.33122 94.3471 8.63932Q94.453 8.94742 94.5443 9.26177Q94.6355 9.57613 94.7118 9.89611Q94.7881 10.2161 94.8493 10.541Q94.9106 10.866 94.9566 11.1952Q95.0027 11.5245 95.0334 11.8573Q95.0641 12.1902 95.0795 12.5261Q95.0949 12.8619 95.0949 13.2L95.0949 13.2153Q95.0949 13.5534 95.0795 13.8892Q95.0642 14.225 95.0334 14.5579Q95.0027 14.8908 94.9566 15.22Q94.9106 15.5493 94.8493 15.8742Q94.7881 16.1992 94.7118 16.5192Q94.6355 16.8391 94.5443 17.1535Q94.453 17.4678 94.3471 17.7759Q94.2411 18.084 94.1206 18.3852Q94.0001 18.6864 93.8654 18.9801Q93.7306 19.2738 93.5819 19.5594Q93.4331 19.845 93.2707 20.122Q93.1082 20.3989 92.9324 20.6665Q92.7566 20.9342 92.5678 21.1921Q92.379 21.4499 92.1776 21.6975Q91.9762 21.945 91.7625 22.1817Q91.5489 22.4184 91.3235 22.6438Q91.0981 22.8692 90.8614 23.0829Q90.6247 23.2965 90.3771 23.4979Q90.1296 23.6993 89.8717 23.8881Q89.6139 24.077 89.3462 24.2528Q89.0785 24.4286 88.8016 24.591Q88.5247 24.7534 88.2391 24.9022Q87.9535 25.0509 87.6598 25.1857Q87.3661 25.3205 87.0649 25.4409Q86.7637 25.5614 86.4556 25.6674Q86.1475 25.7733 85.8332 25.8646Q85.5188 25.9558 85.1988 26.0321Q84.8789 26.1084 84.5539 26.1697Q84.229 26.2309 83.8997 26.277Q83.5705 26.323 83.2376 26.3537Q82.9047 26.3845 82.5689 26.3999Q82.233 26.4153 81.8949 26.4153L13.2 26.4153Q12.8619 26.4153 12.5261 26.3999Q12.1902 26.3845 11.8573 26.3537Q11.5245 26.323 11.1952 26.277Q10.866 26.2309 10.541 26.1697Q10.2161 26.1084 9.89611 26.0321Q9.57613 25.9558 9.26177 25.8646Q8.94742 25.7733 8.63932 25.6674Q8.33122 25.5614 8.03002 25.4409Q7.72881 25.3205 7.43511 25.1857Q7.14141 25.0509 6.85581 24.9022Q6.57021 24.7534 6.2933 24.591Q6.01639 24.4286 5.74873 24.2528Q5.48107 24.077 5.2232 23.8881Q4.96534 23.6993 4.7178 23.4979Q4.47026 23.2965 4.23354 23.0829Q3.99683 22.8692 3.77143 22.6438Q3.54603 22.4184 3.3324 22.1817Q3.11876 21.945 2.91734 21.6975Q2.71592 21.4499 2.52711 21.1921Q2.3383 20.9342 2.1625 20.6665Q1.98669 20.3989 1.82425 20.122Q1.66181 19.845 1.51306 19.5594Q1.36431 19.2738 1.22956 18.9801Q1.0948 18.6864 0.974321 18.3852Q0.853839 18.084 0.747873 17.7759Q0.641908 17.4678 0.550675 17.1535Q0.459443 16.8391 0.38313 16.5192Q0.306817 16.1992 0.245579 15.8742Q0.184341 15.5493 0.138303 15.22Q0.0922646 14.8908 0.0615202 14.5579Q0.0307758 14.225 0.0153879 13.8892Q0 13.5534 0 13.2153L0 13.2Q0 12.8619 0.0153879 12.5261Q0.0307758 12.1902 0.0615202 11.8573Q0.0922646 11.5245 0.138303 11.1952Q0.184341 10.866 0.245579 10.541Q0.306817 10.2161 0.38313 9.89611Q0.459443 9.57613 0.550675 9.26177Q0.641908 8.94742 0.747873 8.63932Q0.853839 8.33122 0.974321 8.03002Q1.0948 7.72881 1.22956 7.43511Q1.36431 7.14141 1.51306 6.85581Q1.66181 6.57021 1.82425 6.2933Q1.98669 6.01639 2.1625 5.74873Q2.3383 5.48107 2.52711 5.2232Q2.71592 4.96534 2.91734 4.7178Q3.11876 4.47026 3.3324 4.23354Q3.54603 3.99683 3.77143 3.77143Q3.99683 3.54603 4.23354 3.3324Q4.47026 3.11876 4.7178 2.91734Q4.96534 2.71592 5.2232 2.52711Q5.48107 2.3383 5.74873 2.1625Q6.01639 1.98669 6.2933 1.82425Q6.57021 1.66181 6.85581 1.51306Q7.14141 1.36431 7.43511 1.22956Q7.72881 1.0948 8.03002 0.974321Q8.33122 0.853839 8.63932 0.747873Q8.94742 0.641908 9.26177 0.550675Q9.57613 0.459443 9.89611 0.38313Q10.2161 0.306817 10.541 0.245579Q10.866 0.184341 11.1952 0.138303Q11.5245 0.0922646 11.8573 0.0615202Q12.1902 0.0307758 12.5261 0.0153879Q12.8619 0 13.2 0Z" transform="matrix(0.8191521 -0.5735765 0.5735765 0.8191521 0.5370803 61.96455)" id="Rectangle-3-Copy-3" fill="#B74256" stroke="none" />
      <path d="M13.2 0L81.8949 0Q82.233 0 82.5689 0.0153879Q82.9047 0.0307758 83.2376 0.0615202Q83.5705 0.0922646 83.8997 0.138303Q84.229 0.184341 84.5539 0.245579Q84.8789 0.306817 85.1988 0.38313Q85.5188 0.459443 85.8332 0.550675Q86.1475 0.641908 86.4556 0.747873Q86.7637 0.853839 87.0649 0.974321Q87.3661 1.0948 87.6598 1.22956Q87.9535 1.36431 88.2391 1.51306Q88.5247 1.66181 88.8016 1.82425Q89.0785 1.98669 89.3462 2.1625Q89.6139 2.3383 89.8717 2.52711Q90.1296 2.71592 90.3771 2.91734Q90.6247 3.11876 90.8614 3.3324Q91.0981 3.54603 91.3235 3.77143Q91.5489 3.99683 91.7625 4.23354Q91.9762 4.47026 92.1776 4.7178Q92.379 4.96534 92.5678 5.2232Q92.7566 5.48107 92.9324 5.74873Q93.1082 6.01639 93.2707 6.2933Q93.4331 6.57021 93.5819 6.85581Q93.7306 7.14141 93.8654 7.43511Q94.0001 7.72881 94.1206 8.03002Q94.2411 8.33122 94.3471 8.63932Q94.453 8.94742 94.5443 9.26177Q94.6355 9.57613 94.7118 9.89611Q94.7881 10.2161 94.8493 10.541Q94.9106 10.866 94.9566 11.1952Q95.0027 11.5245 95.0334 11.8573Q95.0641 12.1902 95.0795 12.5261Q95.0949 12.8619 95.0949 13.2L95.0949 13.2153Q95.0949 13.5534 95.0795 13.8892Q95.0642 14.225 95.0334 14.5579Q95.0027 14.8908 94.9566 15.22Q94.9106 15.5493 94.8493 15.8742Q94.7881 16.1992 94.7118 16.5192Q94.6355 16.8391 94.5443 17.1535Q94.453 17.4678 94.3471 17.7759Q94.2411 18.084 94.1206 18.3852Q94.0001 18.6864 93.8654 18.9801Q93.7306 19.2738 93.5819 19.5594Q93.4331 19.845 93.2707 20.122Q93.1082 20.3989 92.9324 20.6665Q92.7566 20.9342 92.5678 21.1921Q92.379 21.4499 92.1776 21.6975Q91.9762 21.945 91.7625 22.1817Q91.5489 22.4184 91.3235 22.6438Q91.0981 22.8692 90.8614 23.0829Q90.6247 23.2965 90.3771 23.4979Q90.1296 23.6993 89.8717 23.8881Q89.6139 24.077 89.3462 24.2528Q89.0785 24.4286 88.8016 24.591Q88.5247 24.7534 88.2391 24.9022Q87.9535 25.0509 87.6598 25.1857Q87.3661 25.3205 87.0649 25.4409Q86.7637 25.5614 86.4556 25.6674Q86.1475 25.7733 85.8332 25.8646Q85.5188 25.9558 85.1988 26.0321Q84.8789 26.1084 84.5539 26.1697Q84.229 26.2309 83.8997 26.277Q83.5705 26.323 83.2376 26.3537Q82.9047 26.3845 82.5689 26.3999Q82.233 26.4153 81.8949 26.4153L13.2 26.4153Q12.8619 26.4153 12.5261 26.3999Q12.1902 26.3845 11.8573 26.3537Q11.5245 26.323 11.1952 26.277Q10.866 26.2309 10.541 26.1697Q10.2161 26.1084 9.89611 26.0321Q9.57613 25.9558 9.26177 25.8646Q8.94742 25.7733 8.63932 25.6674Q8.33122 25.5614 8.03002 25.4409Q7.72881 25.3205 7.43511 25.1857Q7.14141 25.0509 6.85581 24.9022Q6.57021 24.7534 6.2933 24.591Q6.01639 24.4286 5.74873 24.2528Q5.48107 24.077 5.2232 23.8881Q4.96534 23.6993 4.7178 23.4979Q4.47026 23.2965 4.23354 23.0829Q3.99683 22.8692 3.77143 22.6438Q3.54603 22.4184 3.3324 22.1817Q3.11876 21.945 2.91734 21.6975Q2.71592 21.4499 2.52711 21.1921Q2.3383 20.9342 2.1625 20.6665Q1.98669 20.3989 1.82425 20.122Q1.66181 19.845 1.51306 19.5594Q1.36431 19.2738 1.22956 18.9801Q1.0948 18.6864 0.974321 18.3852Q0.853839 18.084 0.747873 17.7759Q0.641908 17.4678 0.550675 17.1535Q0.459443 16.8391 0.38313 16.5192Q0.306817 16.1992 0.245579 15.8742Q0.184341 15.5493 0.138303 15.22Q0.0922646 14.8908 0.0615202 14.5579Q0.0307758 14.225 0.0153879 13.8892Q0 13.5534 0 13.2153L0 13.2Q0 12.8619 0.0153879 12.5261Q0.0307758 12.1902 0.0615202 11.8573Q0.0922646 11.5245 0.138303 11.1952Q0.184341 10.866 0.245579 10.541Q0.306817 10.2161 0.38313 9.89611Q0.459443 9.57613 0.550675 9.26177Q0.641908 8.94742 0.747873 8.63932Q0.853839 8.33122 0.974321 8.03002Q1.0948 7.72881 1.22956 7.43511Q1.36431 7.14141 1.51306 6.85581Q1.66181 6.57021 1.82425 6.2933Q1.98669 6.01639 2.1625 5.74873Q2.3383 5.48107 2.52711 5.2232Q2.71592 4.96534 2.91734 4.7178Q3.11876 4.47026 3.3324 4.23354Q3.54603 3.99683 3.77143 3.77143Q3.99683 3.54603 4.23354 3.3324Q4.47026 3.11876 4.7178 2.91734Q4.96534 2.71592 5.2232 2.52711Q5.48107 2.3383 5.74873 2.1625Q6.01639 1.98669 6.2933 1.82425Q6.57021 1.66181 6.85581 1.51306Q7.14141 1.36431 7.43511 1.22956Q7.72881 1.0948 8.03002 0.974321Q8.33122 0.853839 8.63932 0.747873Q8.94742 0.641908 9.26177 0.550675Q9.57613 0.459443 9.89611 0.38313Q10.2161 0.306817 10.541 0.245579Q10.866 0.184341 11.1952 0.138303Q11.5245 0.0922646 11.8573 0.0615202Q12.1902 0.0307758 12.5261 0.0153879Q12.8619 0 13.2 0L81.8949 0Q82.233 0 82.5689 0.0153879Q82.9047 0.0307758 83.2376 0.0615202Q83.5705 0.0922646 83.8997 0.138303Q84.229 0.184341 84.5539 0.245579Q84.8789 0.306817 85.1988 0.38313Q85.5188 0.459443 85.8332 0.550675Q86.1475 0.641908 86.4556 0.747873Q86.7637 0.853839 87.0649 0.974321Q87.3661 1.0948 87.6598 1.22956Q87.9535 1.36431 88.2391 1.51306Q88.5247 1.66181 88.8016 1.82425Q89.0785 1.98669 89.3462 2.1625Q89.6139 2.3383 89.8717 2.52711Q90.1296 2.71592 90.3771 2.91734Q90.6247 3.11876 90.8614 3.3324Q91.0981 3.54603 91.3235 3.77143Q91.5489 3.99683 91.7625 4.23354Q91.9762 4.47026 92.1776 4.7178Q92.379 4.96534 92.5678 5.2232Q92.7566 5.48107 92.9324 5.74873Q93.1082 6.01639 93.2707 6.2933Q93.4331 6.57021 93.5819 6.85581Q93.7306 7.14141 93.8654 7.43511Q94.0001 7.72881 94.1206 8.03002Q94.2411 8.33122 94.3471 8.63932Q94.453 8.94742 94.5443 9.26177Q94.6355 9.57613 94.7118 9.89611Q94.7881 10.2161 94.8493 10.541Q94.9106 10.866 94.9566 11.1952Q95.0027 11.5245 95.0334 11.8573Q95.0641 12.1902 95.0795 12.5261Q95.0949 12.8619 95.0949 13.2L95.0949 13.2153Q95.0949 13.5534 95.0795 13.8892Q95.0642 14.225 95.0334 14.5579Q95.0027 14.8908 94.9566 15.22Q94.9106 15.5493 94.8493 15.8742Q94.7881 16.1992 94.7118 16.5192Q94.6355 16.8391 94.5443 17.1535Q94.453 17.4678 94.3471 17.7759Q94.2411 18.084 94.1206 18.3852Q94.0001 18.6864 93.8654 18.9801Q93.7306 19.2738 93.5819 19.5594Q93.4331 19.845 93.2707 20.122Q93.1082 20.3989 92.9324 20.6665Q92.7566 20.9342 92.5678 21.1921Q92.379 21.4499 92.1776 21.6975Q91.9762 21.945 91.7625 22.1817Q91.5489 22.4184 91.3235 22.6438Q91.0981 22.8692 90.8614 23.0829Q90.6247 23.2965 90.3771 23.4979Q90.1296 23.6993 89.8717 23.8881Q89.6139 24.077 89.3462 24.2528Q89.0785 24.4286 88.8016 24.591Q88.5247 24.7534 88.2391 24.9022Q87.9535 25.0509 87.6598 25.1857Q87.3661 25.3205 87.0649 25.4409Q86.7637 25.5614 86.4556 25.6674Q86.1475 25.7733 85.8332 25.8646Q85.5188 25.9558 85.1988 26.0321Q84.8789 26.1084 84.5539 26.1697Q84.229 26.2309 83.8997 26.277Q83.5705 26.323 83.2376 26.3537Q82.9047 26.3845 82.5689 26.3999Q82.233 26.4153 81.8949 26.4153L13.2 26.4153Q12.8619 26.4153 12.5261 26.3999Q12.1902 26.3845 11.8573 26.3537Q11.5245 26.323 11.1952 26.277Q10.866 26.2309 10.541 26.1697Q10.2161 26.1084 9.89611 26.0321Q9.57613 25.9558 9.26177 25.8646Q8.94742 25.7733 8.63932 25.6674Q8.33122 25.5614 8.03002 25.4409Q7.72881 25.3205 7.43511 25.1857Q7.14141 25.0509 6.85581 24.9022Q6.57021 24.7534 6.2933 24.591Q6.01639 24.4286 5.74873 24.2528Q5.48107 24.077 5.2232 23.8881Q4.96534 23.6993 4.7178 23.4979Q4.47026 23.2965 4.23354 23.0829Q3.99683 22.8692 3.77143 22.6438Q3.54603 22.4184 3.3324 22.1817Q3.11876 21.945 2.91734 21.6975Q2.71592 21.4499 2.52711 21.1921Q2.3383 20.9342 2.1625 20.6665Q1.98669 20.3989 1.82425 20.122Q1.66181 19.845 1.51306 19.5594Q1.36431 19.2738 1.22956 18.9801Q1.0948 18.6864 0.974321 18.3852Q0.853839 18.084 0.747873 17.7759Q0.641908 17.4678 0.550675 17.1535Q0.459443 16.8391 0.38313 16.5192Q0.306817 16.1992 0.245579 15.8742Q0.184341 15.5493 0.138303 15.22Q0.0922646 14.8908 0.0615202 14.5579Q0.0307758 14.225 0.0153879 13.8892Q0 13.5534 0 13.2153L0 13.2Q0 12.8619 0.0153879 12.5261Q0.0307758 12.1902 0.0615202 11.8573Q0.0922646 11.5245 0.138303 11.1952Q0.184341 10.866 0.245579 10.541Q0.306817 10.2161 0.38313 9.89611Q0.459443 9.57613 0.550675 9.26177Q0.641908 8.94742 0.747873 8.63932Q0.853839 8.33122 0.974321 8.03002Q1.0948 7.72881 1.22956 7.43511Q1.36431 7.14141 1.51306 6.85581Q1.66181 6.57021 1.82425 6.2933Q1.98669 6.01639 2.1625 5.74873Q2.3383 5.48107 2.52711 5.2232Q2.71592 4.96534 2.91734 4.7178Q3.11876 4.47026 3.3324 4.23354Q3.54603 3.99683 3.77143 3.77143Q3.99683 3.54603 4.23354 3.3324Q4.47026 3.11876 4.7178 2.91734Q4.96534 2.71592 5.2232 2.52711Q5.48107 2.3383 5.74873 2.1625Q6.01639 1.98669 6.2933 1.82425Q6.57021 1.66181 6.85581 1.51306Q7.14141 1.36431 7.43511 1.22956Q7.72881 1.0948 8.03002 0.974321Q8.33122 0.853839 8.63932 0.747873Q8.94742 0.641908 9.26177 0.550675Q9.57613 0.459443 9.89611 0.38313Q10.2161 0.306817 10.541 0.245579Q10.866 0.184341 11.1952 0.138303Q11.5245 0.0922646 11.8573 0.0615202Q12.1902 0.0307758 12.5261 0.0153879Q12.8619 0 13.2 0Z" transform="matrix(0.8191521 -0.5735765 0.5735765 0.8191521 1.59369 54.56828)" id="Rectangle-3-Copy-2" fill="url(#gradient_1)" stroke="none" />
    </g>
    <g id="Group" transform="translate(320.1529 -5.968559E-13)">
      <path d="M13.2 0L81.8949 0Q82.233 0 82.5689 0.0153879Q82.9047 0.0307758 83.2376 0.0615202Q83.5705 0.0922646 83.8997 0.138303Q84.229 0.184341 84.5539 0.245579Q84.8789 0.306817 85.1988 0.38313Q85.5188 0.459443 85.8332 0.550675Q86.1475 0.641908 86.4556 0.747873Q86.7637 0.853839 87.0649 0.974321Q87.3661 1.0948 87.6598 1.22956Q87.9535 1.36431 88.2391 1.51306Q88.5247 1.66181 88.8016 1.82425Q89.0785 1.98669 89.3462 2.1625Q89.6139 2.3383 89.8717 2.52711Q90.1296 2.71592 90.3771 2.91734Q90.6247 3.11876 90.8614 3.3324Q91.0981 3.54603 91.3235 3.77143Q91.5489 3.99683 91.7625 4.23354Q91.9762 4.47026 92.1776 4.7178Q92.379 4.96534 92.5678 5.2232Q92.7566 5.48107 92.9324 5.74873Q93.1082 6.01639 93.2707 6.2933Q93.4331 6.57021 93.5819 6.85581Q93.7306 7.14141 93.8654 7.43511Q94.0001 7.72881 94.1206 8.03002Q94.2411 8.33122 94.3471 8.63932Q94.453 8.94742 94.5443 9.26177Q94.6355 9.57613 94.7118 9.89611Q94.7881 10.2161 94.8493 10.541Q94.9106 10.866 94.9566 11.1952Q95.0027 11.5245 95.0334 11.8573Q95.0641 12.1902 95.0795 12.5261Q95.0949 12.8619 95.0949 13.2L95.0949 13.2153Q95.0949 13.5534 95.0795 13.8892Q95.0642 14.225 95.0334 14.5579Q95.0027 14.8908 94.9566 15.22Q94.9106 15.5493 94.8493 15.8742Q94.7881 16.1992 94.7118 16.5192Q94.6355 16.8391 94.5443 17.1535Q94.453 17.4678 94.3471 17.7759Q94.2411 18.084 94.1206 18.3852Q94.0001 18.6864 93.8654 18.9801Q93.7306 19.2738 93.5819 19.5594Q93.4331 19.845 93.2707 20.122Q93.1082 20.3989 92.9324 20.6665Q92.7566 20.9342 92.5678 21.1921Q92.379 21.4499 92.1776 21.6975Q91.9762 21.945 91.7625 22.1817Q91.5489 22.4184 91.3235 22.6438Q91.0981 22.8692 90.8614 23.0829Q90.6247 23.2965 90.3771 23.4979Q90.1296 23.6993 89.8717 23.8881Q89.6139 24.077 89.3462 24.2528Q89.0785 24.4286 88.8016 24.591Q88.5247 24.7534 88.2391 24.9022Q87.9535 25.0509 87.6598 25.1857Q87.3661 25.3205 87.0649 25.4409Q86.7637 25.5614 86.4556 25.6674Q86.1475 25.7733 85.8332 25.8646Q85.5188 25.9558 85.1988 26.0321Q84.8789 26.1084 84.5539 26.1697Q84.229 26.2309 83.8997 26.277Q83.5705 26.323 83.2376 26.3537Q82.9047 26.3845 82.5689 26.3999Q82.233 26.4153 81.8949 26.4153L13.2 26.4153Q12.8619 26.4153 12.5261 26.3999Q12.1902 26.3845 11.8573 26.3537Q11.5245 26.323 11.1952 26.277Q10.866 26.2309 10.541 26.1697Q10.2161 26.1084 9.89611 26.0321Q9.57613 25.9558 9.26177 25.8646Q8.94742 25.7733 8.63932 25.6674Q8.33122 25.5614 8.03002 25.4409Q7.72881 25.3205 7.43511 25.1857Q7.14141 25.0509 6.85581 24.9022Q6.57021 24.7534 6.2933 24.591Q6.01639 24.4286 5.74873 24.2528Q5.48107 24.077 5.2232 23.8881Q4.96534 23.6993 4.7178 23.4979Q4.47026 23.2965 4.23354 23.0829Q3.99683 22.8692 3.77143 22.6438Q3.54603 22.4184 3.3324 22.1817Q3.11876 21.945 2.91734 21.6975Q2.71592 21.4499 2.52711 21.1921Q2.3383 20.9342 2.1625 20.6665Q1.98669 20.3989 1.82425 20.122Q1.66181 19.845 1.51306 19.5594Q1.36431 19.2738 1.22956 18.9801Q1.0948 18.6864 0.974321 18.3852Q0.853839 18.084 0.747873 17.7759Q0.641908 17.4678 0.550675 17.1535Q0.459443 16.8391 0.38313 16.5192Q0.306817 16.1992 0.245579 15.8742Q0.184341 15.5493 0.138303 15.22Q0.0922646 14.8908 0.0615202 14.5579Q0.0307758 14.225 0.0153879 13.8892Q0 13.5534 0 13.2153L0 13.2Q0 12.8619 0.0153879 12.5261Q0.0307758 12.1902 0.0615202 11.8573Q0.0922646 11.5245 0.138303 11.1952Q0.184341 10.866 0.245579 10.541Q0.306817 10.2161 0.38313 9.89611Q0.459443 9.57613 0.550675 9.26177Q0.641908 8.94742 0.747873 8.63932Q0.853839 8.33122 0.974321 8.03002Q1.0948 7.72881 1.22956 7.43511Q1.36431 7.14141 1.51306 6.85581Q1.66181 6.57021 1.82425 6.2933Q1.98669 6.01639 2.1625 5.74873Q2.3383 5.48107 2.52711 5.2232Q2.71592 4.96534 2.91734 4.7178Q3.11876 4.47026 3.3324 4.23354Q3.54603 3.99683 3.77143 3.77143Q3.99683 3.54603 4.23354 3.3324Q4.47026 3.11876 4.7178 2.91734Q4.96534 2.71592 5.2232 2.52711Q5.48107 2.3383 5.74873 2.1625Q6.01639 1.98669 6.2933 1.82425Q6.57021 1.66181 6.85581 1.51306Q7.14141 1.36431 7.43511 1.22956Q7.72881 1.0948 8.03002 0.974321Q8.33122 0.853839 8.63932 0.747873Q8.94742 0.641908 9.26177 0.550675Q9.57613 0.459443 9.89611 0.38313Q10.2161 0.306817 10.541 0.245579Q10.866 0.184341 11.1952 0.138303Q11.5245 0.0922646 11.8573 0.0615202Q12.1902 0.0307758 12.5261 0.0153879Q12.8619 0 13.2 0L81.8949 0Q82.233 0 82.5689 0.0153879Q82.9047 0.0307758 83.2376 0.0615202Q83.5705 0.0922646 83.8997 0.138303Q84.229 0.184341 84.5539 0.245579Q84.8789 0.306817 85.1988 0.38313Q85.5188 0.459443 85.8332 0.550675Q86.1475 0.641908 86.4556 0.747873Q86.7637 0.853839 87.0649 0.974321Q87.3661 1.0948 87.6598 1.22956Q87.9535 1.36431 88.2391 1.51306Q88.5247 1.66181 88.8016 1.82425Q89.0785 1.98669 89.3462 2.1625Q89.6139 2.3383 89.8717 2.52711Q90.1296 2.71592 90.3771 2.91734Q90.6247 3.11876 90.8614 3.3324Q91.0981 3.54603 91.3235 3.77143Q91.5489 3.99683 91.7625 4.23354Q91.9762 4.47026 92.1776 4.7178Q92.379 4.96534 92.5678 5.2232Q92.7566 5.48107 92.9324 5.74873Q93.1082 6.01639 93.2707 6.2933Q93.4331 6.57021 93.5819 6.85581Q93.7306 7.14141 93.8654 7.43511Q94.0001 7.72881 94.1206 8.03002Q94.2411 8.33122 94.3471 8.63932Q94.453 8.94742 94.5443 9.26177Q94.6355 9.57613 94.7118 9.89611Q94.7881 10.2161 94.8493 10.541Q94.9106 10.866 94.9566 11.1952Q95.0027 11.5245 95.0334 11.8573Q95.0641 12.1902 95.0795 12.5261Q95.0949 12.8619 95.0949 13.2L95.0949 13.2153Q95.0949 13.5534 95.0795 13.8892Q95.0642 14.225 95.0334 14.5579Q95.0027 14.8908 94.9566 15.22Q94.9106 15.5493 94.8493 15.8742Q94.7881 16.1992 94.7118 16.5192Q94.6355 16.8391 94.5443 17.1535Q94.453 17.4678 94.3471 17.7759Q94.2411 18.084 94.1206 18.3852Q94.0001 18.6864 93.8654 18.9801Q93.7306 19.2738 93.5819 19.5594Q93.4331 19.845 93.2707 20.122Q93.1082 20.3989 92.9324 20.6665Q92.7566 20.9342 92.5678 21.1921Q92.379 21.4499 92.1776 21.6975Q91.9762 21.945 91.7625 22.1817Q91.5489 22.4184 91.3235 22.6438Q91.0981 22.8692 90.8614 23.0829Q90.6247 23.2965 90.3771 23.4979Q90.1296 23.6993 89.8717 23.8881Q89.6139 24.077 89.3462 24.2528Q89.0785 24.4286 88.8016 24.591Q88.5247 24.7534 88.2391 24.9022Q87.9535 25.0509 87.6598 25.1857Q87.3661 25.3205 87.0649 25.4409Q86.7637 25.5614 86.4556 25.6674Q86.1475 25.7733 85.8332 25.8646Q85.5188 25.9558 85.1988 26.0321Q84.8789 26.1084 84.5539 26.1697Q84.229 26.2309 83.8997 26.277Q83.5705 26.323 83.2376 26.3537Q82.9047 26.3845 82.5689 26.3999Q82.233 26.4153 81.8949 26.4153L13.2 26.4153Q12.8619 26.4153 12.5261 26.3999Q12.1902 26.3845 11.8573 26.3537Q11.5245 26.323 11.1952 26.277Q10.866 26.2309 10.541 26.1697Q10.2161 26.1084 9.89611 26.0321Q9.57613 25.9558 9.26177 25.8646Q8.94742 25.7733 8.63932 25.6674Q8.33122 25.5614 8.03002 25.4409Q7.72881 25.3205 7.43511 25.1857Q7.14141 25.0509 6.85581 24.9022Q6.57021 24.7534 6.2933 24.591Q6.01639 24.4286 5.74873 24.2528Q5.48107 24.077 5.2232 23.8881Q4.96534 23.6993 4.7178 23.4979Q4.47026 23.2965 4.23354 23.0829Q3.99683 22.8692 3.77143 22.6438Q3.54603 22.4184 3.3324 22.1817Q3.11876 21.945 2.91734 21.6975Q2.71592 21.4499 2.52711 21.1921Q2.3383 20.9342 2.1625 20.6665Q1.98669 20.3989 1.82425 20.122Q1.66181 19.845 1.51306 19.5594Q1.36431 19.2738 1.22956 18.9801Q1.0948 18.6864 0.974321 18.3852Q0.853839 18.084 0.747873 17.7759Q0.641908 17.4678 0.550675 17.1535Q0.459443 16.8391 0.38313 16.5192Q0.306817 16.1992 0.245579 15.8742Q0.184341 15.5493 0.138303 15.22Q0.0922646 14.8908 0.0615202 14.5579Q0.0307758 14.225 0.0153879 13.8892Q0 13.5534 0 13.2153L0 13.2Q0 12.8619 0.0153879 12.5261Q0.0307758 12.1902 0.0615202 11.8573Q0.0922646 11.5245 0.138303 11.1952Q0.184341 10.866 0.245579 10.541Q0.306817 10.2161 0.38313 9.89611Q0.459443 9.57613 0.550675 9.26177Q0.641908 8.94742 0.747873 8.63932Q0.853839 8.33122 0.974321 8.03002Q1.0948 7.72881 1.22956 7.43511Q1.36431 7.14141 1.51306 6.85581Q1.66181 6.57021 1.82425 6.2933Q1.98669 6.01639 2.1625 5.74873Q2.3383 5.48107 2.52711 5.2232Q2.71592 4.96534 2.91734 4.7178Q3.11876 4.47026 3.3324 4.23354Q3.54603 3.99683 3.77143 3.77143Q3.99683 3.54603 4.23354 3.3324Q4.47026 3.11876 4.7178 2.91734Q4.96534 2.71592 5.2232 2.52711Q5.48107 2.3383 5.74873 2.1625Q6.01639 1.98669 6.2933 1.82425Q6.57021 1.66181 6.85581 1.51306Q7.14141 1.36431 7.43511 1.22956Q7.72881 1.0948 8.03002 0.974321Q8.33122 0.853839 8.63932 0.747873Q8.94742 0.641908 9.26177 0.550675Q9.57613 0.459443 9.89611 0.38313Q10.2161 0.306817 10.541 0.245579Q10.866 0.184341 11.1952 0.138303Q11.5245 0.0922646 11.8573 0.0615202Q12.1902 0.0307758 12.5261 0.0153879Q12.8619 0 13.2 0Z" transform="matrix(0.8191521 -0.5735765 0.5735765 0.8191521 0.5370803 61.96455)" id="Rectangle-3-Copy-5" fill="#B74256" stroke="none" />
      <path d="M13.2 0L81.8949 0Q82.233 0 82.5689 0.0153879Q82.9047 0.0307758 83.2376 0.0615202Q83.5705 0.0922646 83.8997 0.138303Q84.229 0.184341 84.5539 0.245579Q84.8789 0.306817 85.1988 0.38313Q85.5188 0.459443 85.8332 0.550675Q86.1475 0.641908 86.4556 0.747873Q86.7637 0.853839 87.0649 0.974321Q87.3661 1.0948 87.6598 1.22956Q87.9535 1.36431 88.2391 1.51306Q88.5247 1.66181 88.8016 1.82425Q89.0785 1.98669 89.3462 2.1625Q89.6139 2.3383 89.8717 2.52711Q90.1296 2.71592 90.3771 2.91734Q90.6247 3.11876 90.8614 3.3324Q91.0981 3.54603 91.3235 3.77143Q91.5489 3.99683 91.7625 4.23354Q91.9762 4.47026 92.1776 4.7178Q92.379 4.96534 92.5678 5.2232Q92.7566 5.48107 92.9324 5.74873Q93.1082 6.01639 93.2707 6.2933Q93.4331 6.57021 93.5819 6.85581Q93.7306 7.14141 93.8654 7.43511Q94.0001 7.72881 94.1206 8.03002Q94.2411 8.33122 94.3471 8.63932Q94.453 8.94742 94.5443 9.26177Q94.6355 9.57613 94.7118 9.89611Q94.7881 10.2161 94.8493 10.541Q94.9106 10.866 94.9566 11.1952Q95.0027 11.5245 95.0334 11.8573Q95.0641 12.1902 95.0795 12.5261Q95.0949 12.8619 95.0949 13.2L95.0949 13.2153Q95.0949 13.5534 95.0795 13.8892Q95.0642 14.225 95.0334 14.5579Q95.0027 14.8908 94.9566 15.22Q94.9106 15.5493 94.8493 15.8742Q94.7881 16.1992 94.7118 16.5192Q94.6355 16.8391 94.5443 17.1535Q94.453 17.4678 94.3471 17.7759Q94.2411 18.084 94.1206 18.3852Q94.0001 18.6864 93.8654 18.9801Q93.7306 19.2738 93.5819 19.5594Q93.4331 19.845 93.2707 20.122Q93.1082 20.3989 92.9324 20.6665Q92.7566 20.9342 92.5678 21.1921Q92.379 21.4499 92.1776 21.6975Q91.9762 21.945 91.7625 22.1817Q91.5489 22.4184 91.3235 22.6438Q91.0981 22.8692 90.8614 23.0829Q90.6247 23.2965 90.3771 23.4979Q90.1296 23.6993 89.8717 23.8881Q89.6139 24.077 89.3462 24.2528Q89.0785 24.4286 88.8016 24.591Q88.5247 24.7534 88.2391 24.9022Q87.9535 25.0509 87.6598 25.1857Q87.3661 25.3205 87.0649 25.4409Q86.7637 25.5614 86.4556 25.6674Q86.1475 25.7733 85.8332 25.8646Q85.5188 25.9558 85.1988 26.0321Q84.8789 26.1084 84.5539 26.1697Q84.229 26.2309 83.8997 26.277Q83.5705 26.323 83.2376 26.3537Q82.9047 26.3845 82.5689 26.3999Q82.233 26.4153 81.8949 26.4153L13.2 26.4153Q12.8619 26.4153 12.5261 26.3999Q12.1902 26.3845 11.8573 26.3537Q11.5245 26.323 11.1952 26.277Q10.866 26.2309 10.541 26.1697Q10.2161 26.1084 9.89611 26.0321Q9.57613 25.9558 9.26177 25.8646Q8.94742 25.7733 8.63932 25.6674Q8.33122 25.5614 8.03002 25.4409Q7.72881 25.3205 7.43511 25.1857Q7.14141 25.0509 6.85581 24.9022Q6.57021 24.7534 6.2933 24.591Q6.01639 24.4286 5.74873 24.2528Q5.48107 24.077 5.2232 23.8881Q4.96534 23.6993 4.7178 23.4979Q4.47026 23.2965 4.23354 23.0829Q3.99683 22.8692 3.77143 22.6438Q3.54603 22.4184 3.3324 22.1817Q3.11876 21.945 2.91734 21.6975Q2.71592 21.4499 2.52711 21.1921Q2.3383 20.9342 2.1625 20.6665Q1.98669 20.3989 1.82425 20.122Q1.66181 19.845 1.51306 19.5594Q1.36431 19.2738 1.22956 18.9801Q1.0948 18.6864 0.974321 18.3852Q0.853839 18.084 0.747873 17.7759Q0.641908 17.4678 0.550675 17.1535Q0.459443 16.8391 0.38313 16.5192Q0.306817 16.1992 0.245579 15.8742Q0.184341 15.5493 0.138303 15.22Q0.0922646 14.8908 0.0615202 14.5579Q0.0307758 14.225 0.0153879 13.8892Q0 13.5534 0 13.2153L0 13.2Q0 12.8619 0.0153879 12.5261Q0.0307758 12.1902 0.0615202 11.8573Q0.0922646 11.5245 0.138303 11.1952Q0.184341 10.866 0.245579 10.541Q0.306817 10.2161 0.38313 9.89611Q0.459443 9.57613 0.550675 9.26177Q0.641908 8.94742 0.747873 8.63932Q0.853839 8.33122 0.974321 8.03002Q1.0948 7.72881 1.22956 7.43511Q1.36431 7.14141 1.51306 6.85581Q1.66181 6.57021 1.82425 6.2933Q1.98669 6.01639 2.1625 5.74873Q2.3383 5.48107 2.52711 5.2232Q2.71592 4.96534 2.91734 4.7178Q3.11876 4.47026 3.3324 4.23354Q3.54603 3.99683 3.77143 3.77143Q3.99683 3.54603 4.23354 3.3324Q4.47026 3.11876 4.7178 2.91734Q4.96534 2.71592 5.2232 2.52711Q5.48107 2.3383 5.74873 2.1625Q6.01639 1.98669 6.2933 1.82425Q6.57021 1.66181 6.85581 1.51306Q7.14141 1.36431 7.43511 1.22956Q7.72881 1.0948 8.03002 0.974321Q8.33122 0.853839 8.63932 0.747873Q8.94742 0.641908 9.26177 0.550675Q9.57613 0.459443 9.89611 0.38313Q10.2161 0.306817 10.541 0.245579Q10.866 0.184341 11.1952 0.138303Q11.5245 0.0922646 11.8573 0.0615202Q12.1902 0.0307758 12.5261 0.0153879Q12.8619 0 13.2 0L81.8949 0Q82.233 0 82.5689 0.0153879Q82.9047 0.0307758 83.2376 0.0615202Q83.5705 0.0922646 83.8997 0.138303Q84.229 0.184341 84.5539 0.245579Q84.8789 0.306817 85.1988 0.38313Q85.5188 0.459443 85.8332 0.550675Q86.1475 0.641908 86.4556 0.747873Q86.7637 0.853839 87.0649 0.974321Q87.3661 1.0948 87.6598 1.22956Q87.9535 1.36431 88.2391 1.51306Q88.5247 1.66181 88.8016 1.82425Q89.0785 1.98669 89.3462 2.1625Q89.6139 2.3383 89.8717 2.52711Q90.1296 2.71592 90.3771 2.91734Q90.6247 3.11876 90.8614 3.3324Q91.0981 3.54603 91.3235 3.77143Q91.5489 3.99683 91.7625 4.23354Q91.9762 4.47026 92.1776 4.7178Q92.379 4.96534 92.5678 5.2232Q92.7566 5.48107 92.9324 5.74873Q93.1082 6.01639 93.2707 6.2933Q93.4331 6.57021 93.5819 6.85581Q93.7306 7.14141 93.8654 7.43511Q94.0001 7.72881 94.1206 8.03002Q94.2411 8.33122 94.3471 8.63932Q94.453 8.94742 94.5443 9.26177Q94.6355 9.57613 94.7118 9.89611Q94.7881 10.2161 94.8493 10.541Q94.9106 10.866 94.9566 11.1952Q95.0027 11.5245 95.0334 11.8573Q95.0641 12.1902 95.0795 12.5261Q95.0949 12.8619 95.0949 13.2L95.0949 13.2153Q95.0949 13.5534 95.0795 13.8892Q95.0642 14.225 95.0334 14.5579Q95.0027 14.8908 94.9566 15.22Q94.9106 15.5493 94.8493 15.8742Q94.7881 16.1992 94.7118 16.5192Q94.6355 16.8391 94.5443 17.1535Q94.453 17.4678 94.3471 17.7759Q94.2411 18.084 94.1206 18.3852Q94.0001 18.6864 93.8654 18.9801Q93.7306 19.2738 93.5819 19.5594Q93.4331 19.845 93.2707 20.122Q93.1082 20.3989 92.9324 20.6665Q92.7566 20.9342 92.5678 21.1921Q92.379 21.4499 92.1776 21.6975Q91.9762 21.945 91.7625 22.1817Q91.5489 22.4184 91.3235 22.6438Q91.0981 22.8692 90.8614 23.0829Q90.6247 23.2965 90.3771 23.4979Q90.1296 23.6993 89.8717 23.8881Q89.6139 24.077 89.3462 24.2528Q89.0785 24.4286 88.8016 24.591Q88.5247 24.7534 88.2391 24.9022Q87.9535 25.0509 87.6598 25.1857Q87.3661 25.3205 87.0649 25.4409Q86.7637 25.5614 86.4556 25.6674Q86.1475 25.7733 85.8332 25.8646Q85.5188 25.9558 85.1988 26.0321Q84.8789 26.1084 84.5539 26.1697Q84.229 26.2309 83.8997 26.277Q83.5705 26.323 83.2376 26.3537Q82.9047 26.3845 82.5689 26.3999Q82.233 26.4153 81.8949 26.4153L13.2 26.4153Q12.8619 26.4153 12.5261 26.3999Q12.1902 26.3845 11.8573 26.3537Q11.5245 26.323 11.1952 26.277Q10.866 26.2309 10.541 26.1697Q10.2161 26.1084 9.89611 26.0321Q9.57613 25.9558 9.26177 25.8646Q8.94742 25.7733 8.63932 25.6674Q8.33122 25.5614 8.03002 25.4409Q7.72881 25.3205 7.43511 25.1857Q7.14141 25.0509 6.85581 24.9022Q6.57021 24.7534 6.2933 24.591Q6.01639 24.4286 5.74873 24.2528Q5.48107 24.077 5.2232 23.8881Q4.96534 23.6993 4.7178 23.4979Q4.47026 23.2965 4.23354 23.0829Q3.99683 22.8692 3.77143 22.6438Q3.54603 22.4184 3.3324 22.1817Q3.11876 21.945 2.91734 21.6975Q2.71592 21.4499 2.52711 21.1921Q2.3383 20.9342 2.1625 20.6665Q1.98669 20.3989 1.82425 20.122Q1.66181 19.845 1.51306 19.5594Q1.36431 19.2738 1.22956 18.9801Q1.0948 18.6864 0.974321 18.3852Q0.853839 18.084 0.747873 17.7759Q0.641908 17.4678 0.550675 17.1535Q0.459443 16.8391 0.38313 16.5192Q0.306817 16.1992 0.245579 15.8742Q0.184341 15.5493 0.138303 15.22Q0.0922646 14.8908 0.0615202 14.5579Q0.0307758 14.225 0.0153879 13.8892Q0 13.5534 0 13.2153L0 13.2Q0 12.8619 0.0153879 12.5261Q0.0307758 12.1902 0.0615202 11.8573Q0.0922646 11.5245 0.138303 11.1952Q0.184341 10.866 0.245579 10.541Q0.306817 10.2161 0.38313 9.89611Q0.459443 9.57613 0.550675 9.26177Q0.641908 8.94742 0.747873 8.63932Q0.853839 8.33122 0.974321 8.03002Q1.0948 7.72881 1.22956 7.43511Q1.36431 7.14141 1.51306 6.85581Q1.66181 6.57021 1.82425 6.2933Q1.98669 6.01639 2.1625 5.74873Q2.3383 5.48107 2.52711 5.2232Q2.71592 4.96534 2.91734 4.7178Q3.11876 4.47026 3.3324 4.23354Q3.54603 3.99683 3.77143 3.77143Q3.99683 3.54603 4.23354 3.3324Q4.47026 3.11876 4.7178 2.91734Q4.96534 2.71592 5.2232 2.52711Q5.48107 2.3383 5.74873 2.1625Q6.01639 1.98669 6.2933 1.82425Q6.57021 1.66181 6.85581 1.51306Q7.14141 1.36431 7.43511 1.22956Q7.72881 1.0948 8.03002 0.974321Q8.33122 0.853839 8.63932 0.747873Q8.94742 0.641908 9.26177 0.550675Q9.57613 0.459443 9.89611 0.38313Q10.2161 0.306817 10.541 0.245579Q10.866 0.184341 11.1952 0.138303Q11.5245 0.0922646 11.8573 0.0615202Q12.1902 0.0307758 12.5261 0.0153879Q12.8619 0 13.2 0Z" transform="matrix(0.8191521 -0.5735765 0.5735765 0.8191521 1.59369 54.56828)" id="Rectangle-3-Copy-4" fill="url(#gradient_1)" stroke="none" />
    </g>
  </g>
</svg>