<?xml version="1.0" encoding="utf-8"?>
<svg width="30px" height="30px" viewBox="0 0 30 30" version="1.1" xmlns:xlink="http://www.w3.org/1999/xlink" xmlns="http://www.w3.org/2000/svg">
  <desc>Created with Lunacy</desc>
  <g id="Финансово">
    <path d="M4.999 0L25.001 0C27.7619 0 30 2.23813 30 4.999L30 25.001C30 27.7619 27.7619 30 25.001 30L4.999 30C2.23813 30 0 27.7619 0 25.001L0 4.999C0 2.23813 2.23813 0 4.999 0L25.001 0C27.7619 0 30 2.23813 30 4.999L30 25.001C30 27.7619 27.7619 30 25.001 30L4.999 30C2.23813 30 0 27.7619 0 25.001L0 4.999C0 2.23813 2.23813 0 4.999 0Z" id="Rectangle-12-Copy-3" fill="#9C5D9A" stroke="none" />
    <path d="M1.656 0C0.751765 0 0.0148235 0.730588 0.0148235 1.62847L0 1.62847L0 13.2109C0 14.1088 0.735882 14.8394 1.64118 14.8394L15.9268 14.8394L15.9268 13.0871L18 13.0871L18 0L1.656 0ZM1.07365 1.62847C1.07365 1.95035 1.36694 2.09541 1.656 2.09541L15.9268 2.09541L15.9268 6.36776L16.9412 6.36776L16.9412 1.05882L1.656 1.05882C1.33624 1.05882 1.07471 1.314 1.07365 1.62847ZM1.64118 13.7795C1.32035 13.7795 1.05882 13.5244 1.05882 13.2099L1.05882 3.06318C1.08424 3.07059 1.116 3.06847 1.14141 3.07588C1.29282 3.12035 1.45165 3.14788 1.62106 3.15106C1.62847 3.15106 1.63376 3.15424 1.64118 3.15424L14.8691 3.15424L14.8691 6.36776L11.8419 6.36776C10.9292 6.36776 10.1869 7.08035 10.1869 7.956L10.1869 9.01482C10.1869 9.89047 10.9292 10.6031 11.8419 10.6031L14.8691 10.6031L14.8691 13.7795L1.64118 13.7795ZM11.2447 9.01482C11.2447 9.30706 11.5115 9.54424 11.8408 9.54424L16.9412 9.54424L16.9412 7.42659L11.8408 7.42659C11.5126 7.42659 11.2447 7.66376 11.2447 7.956L11.2447 9.01482ZM16.9412 12.0272L15.9268 12.0272L15.9268 10.6031L16.9412 10.6031L16.9412 12.0272Z" transform="translate(6 8)" id="Shape" fill="#FFFFFF" fill-rule="evenodd" stroke="none" />
  </g>
</svg>