<?xml version="1.0" encoding="utf-8"?>
<svg width="30px" height="30px" viewBox="0 0 30 30" version="1.1" xmlns:xlink="http://www.w3.org/1999/xlink" xmlns="http://www.w3.org/2000/svg">
  <desc>Created with Lunacy</desc>
  <g id="Финансово">
    <path d="M4.999 0L25.001 0C27.7619 0 30 2.23813 30 4.999L30 25.001C30 27.7619 27.7619 30 25.001 30L4.999 30C2.23813 30 0 27.7619 0 25.001L0 4.999C0 2.23813 2.23813 0 4.999 0L25.001 0C27.7619 0 30 2.23813 30 4.999L30 25.001C30 27.7619 27.7619 30 25.001 30L4.999 30C2.23813 30 0 27.7619 0 25.001L0 4.999C0 2.23813 2.23813 0 4.999 0Z" id="Rectangle-12-Copy-3" fill="#8492F3" stroke="none" />
    <path d="M1.656 0C0.751765 0 0.0148235 0.730588 0.0148235 1.62847L0 1.62847L0 13.2109C0 14.1088 0.735882 14.8394 1.64118 14.8394L15.9268 14.8394L15.9268 13.0871L18 13.0871L18 0L1.656 0ZM1.07422 1.62848C1.07422 1.95037 1.36751 2.09543 1.65657 2.09543L15.9274 2.09543L15.9274 6.36778L16.9417 6.36778L16.9417 1.05884L1.65657 1.05884C1.33681 1.05884 1.07528 1.31401 1.07422 1.62848ZM1.64095 13.7795C1.32012 13.7795 1.05859 13.5243 1.05859 13.2099L1.05859 3.06317C1.08401 3.07058 1.11577 3.06847 1.14118 3.07588C1.29259 3.12035 1.45142 3.14788 1.62083 3.15105C1.62824 3.15105 1.63353 3.15423 1.64095 3.15423L14.8688 3.15423L14.8688 6.36776L11.8417 6.36776C10.9289 6.36776 10.1867 7.08035 10.1867 7.956L10.1867 9.01482C10.1867 9.89047 10.9289 10.6031 11.8417 10.6031L14.8688 10.6031L14.8688 13.7795L1.64095 13.7795ZM11.2441 9.01481C11.2441 9.30704 11.511 9.54422 11.8403 9.54422L16.9406 9.54422L16.9406 7.42657L11.8403 7.42657C11.512 7.42657 11.2441 7.66375 11.2441 7.95599L11.2441 9.01481ZM16.9421 12.0272L15.9277 12.0272L15.9277 10.6031L16.9421 10.6031L16.9421 12.0272Z" transform="translate(6 8)" id="Shape" fill="#FFFFFF" fill-rule="evenodd" stroke="none" />
  </g>
</svg>