<?xml version="1.0" encoding="utf-8"?>
<svg width="64px" height="64px" viewBox="0 0 64 64" version="1.1" xmlns:xlink="http://www.w3.org/1999/xlink" xmlns="http://www.w3.org/2000/svg">
  <desc>Created with Lunacy</desc>
  <defs>
    <filter filterUnits="userSpaceOnUse" color-interpolation-filters="sRGB" id="filter_1">
      <feFlood flood-opacity="0" result="BackgroundImageFix" />
      <feColorMatrix in="SourceAlpha" type="matrix" values="0 0 0 0 0 0 0 0 0 0 0 0 0 0 0 0 0 0 127 0" />
      <feOffset dx="0" dy="2" />
      <feGaussianBlur stdDeviation="1" />
      <feColorMatrix type="matrix" values="0 0 0 0 0 0 0 0 0 0 0 0 0 0 0 0 0 0 0.2 0" />
      <feBlend mode="normal" in2="BackgroundImageFix" result="effect0_dropShadow" />
      <feColorMatrix in="SourceAlpha" type="matrix" values="0 0 0 0 0 0 0 0 0 0 0 0 0 0 0 0 0 0 127 0" />
      <feOffset dx="0" dy="2" />
      <feGaussianBlur stdDeviation="8" />
      <feColorMatrix type="matrix" values="0 0 0 0 0.6156863 0 0 0 0 0.3686275 0 0 0 0 0.6078432 0 0 0 1 0" />
      <feBlend mode="normal" in2="effect0_dropShadow" result="effect1_dropShadow" />
      <feBlend mode="normal" in="SourceGraphic" in2="effect1_dropShadow" result="shape" />
    </filter>
    <filter filterUnits="userSpaceOnUse" color-interpolation-filters="sRGB" id="filter_2">
      <feFlood flood-opacity="0" result="BackgroundImageFix" />
      <feColorMatrix in="SourceAlpha" type="matrix" values="0 0 0 0 0 0 0 0 0 0 0 0 0 0 0 0 0 0 127 0" />
      <feOffset dx="0" dy="1" />
      <feGaussianBlur stdDeviation="1.5" />
      <feColorMatrix type="matrix" values="0 0 0 0 0 0 0 0 0 0 0 0 0 0 0 0 0 0 0.4 0" />
      <feBlend mode="normal" in2="BackgroundImageFix" result="effect0_dropShadow" />
      <feBlend mode="normal" in="SourceGraphic" in2="effect0_dropShadow" result="shape" />
    </filter>
  </defs>
  <g id="Чат" transform="translate(2 2)">
    <g filter="url(#filter_1)">
      <path d="M30 60C46.5685 60 60 46.5685 60 30C60 13.4315 46.5685 0 30 0C13.4315 0 0 13.4315 0 30C0 46.5685 13.4315 60 30 60C46.5685 60 60 46.5685 60 30C60 13.4315 46.5685 0 30 0C13.4315 0 0 13.4315 0 30C0 46.5685 13.4315 60 30 60Z" id="Oval-4" fill="#9D5E9B" stroke="none" />
    </g>
    <g filter="url(#filter_2)">
      <path d="M34.4388 0L3.06122 0C1.48456 0 0 1.4757 0 3.06122L0 25.2551C0 27.0297 1.48456 28.5054 3.06122 28.3163L4.59184 28.3163L4.59184 37.5L14.5408 28.3163L34.4388 28.3163C36.0154 28.5054 37.5 27.0297 37.5 25.2551L37.5 3.06122C37.5 1.4757 36.0154 0 34.4388 0L3.06122 0C1.48456 0 0 1.4757 0 3.06122L0 25.2551C0 27.0297 1.48456 28.5054 3.06122 28.3163L4.59184 28.3163L4.59184 37.5L14.5408 28.3163L34.4388 28.3163C36.0154 28.5054 37.5 27.0297 37.5 25.2551L37.5 3.06122C37.5 1.4757 36.0154 0 34.4388 0Z" transform="translate(12 14.25)" id="Shape" fill="#FFFFFF" stroke="none" />
    </g>
  </g>
</svg>